<ttFont>
    <TTGlyph name="A" xMin="19" yMin="0" xMax="926" yMax="1593">
      <contour>
        <pt x="750" y="1593" on="1"/>
        <pt x="926" y="0" on="1"/>
        <pt x="586" y="0" on="1"/>
        <pt x="561" y="240" on="1"/>
        <pt x="383" y="240" on="1"/>
        <pt x="361" y="0" on="1"/>
        <pt x="19" y="0" on="1"/>
        <pt x="199" y="1593" on="1"/>
      </contour>
      <contour>
        <pt x="487" y="1294" on="1"/>
        <pt x="455" y="1294" on="1"/>
        <pt x="408" y="530" on="1"/>
        <pt x="534" y="530" on="1"/>
      </contour>
    </TTGlyph>
    <TTGlyph name="AE" xMin="-10" yMin="0" xMax="1246" yMax="1593">
      <contour>
        <pt x="579" y="0" on="1"/>
        <pt x="578" y="120" on="1"/>
        <pt x="578" y="240" on="1"/>
        <pt x="370" y="240" on="1"/>
        <pt x="331" y="0" on="1"/>
        <pt x="-10" y="0" on="1"/>
        <pt x="311" y="1593" on="1"/>
        <pt x="1223" y="1593" on="1"/>
        <pt x="1223" y="1284" on="1"/>
        <pt x="937" y="1284" on="1"/>
        <pt x="937" y="973" on="1"/>
        <pt x="1209" y="973" on="1"/>
        <pt x="1209" y="674" on="1"/>
        <pt x="937" y="674" on="1"/>
        <pt x="937" y="311" on="1"/>
        <pt x="1246" y="311" on="1"/>
        <pt x="1246" y="0" on="1"/>
      </contour>
      <contour>
        <pt x="574" y="1294" on="1"/>
        <pt x="546" y="1294" on="1"/>
        <pt x="416" y="530" on="1"/>
        <pt x="574" y="530" on="1"/>
      </contour>
    </TTGlyph>
    <TTGlyph name="AEacute" xMin="-10" yMin="0" xMax="1246" yMax="2173">
      <component glyphName="acute" x="726" y="139" flags="0x1004"/>
      <component glyphName="AE" x="0" y="0" flags="0x1204"/>
    </TTGlyph>
    <TTGlyph name="Aacute" xMin="19" yMin="0" xMax="926" yMax="2173">
      <component glyphName="acute" x="282" y="139" flags="0x1004"/>
      <component glyphName="A" x="0" y="0" flags="0x1204"/>
    </TTGlyph>
    <TTGlyph name="Abreve" xMin="19" yMin="0" xMax="926" yMax="2085">
      <component glyphName="breve" x="-28" y="140" flags="0x1004"/>
      <component glyphName="A" x="0" y="0" flags="0x1204"/>
    </TTGlyph>
    <TTGlyph name="Acircumflex" xMin="19" yMin="0" xMax="926" yMax="2135">
      <component glyphName="circumflex" x="-10" y="141" flags="0x1004"/>
      <component glyphName="A" x="0" y="0" flags="0x1204"/>
    </TTGlyph>
    <TTGlyph name="Adieresis" xMin="19" yMin="0" xMax="926" yMax="2030">
      <component glyphName="dieresis" x="-14" y="141" flags="0x1004"/>
      <component glyphName="A" x="0" y="0" flags="0x1204"/>
    </TTGlyph>
    <TTGlyph name="Agrave" xMin="19" yMin="0" xMax="926" yMax="2173">
      <component glyphName="grave" x="116" y="179" flags="0x1004"/>
      <component glyphName="A" x="0" y="0" flags="0x1204"/>
    </TTGlyph>
    <TTGlyph name="Amacron" xMin="19" yMin="0" xMax="926" yMax="1980">
      <component glyphName="macron" x="230" y="140" flags="0x1004"/>
      <component glyphName="A" x="0" y="0" flags="0x1204"/>
    </TTGlyph>
    <TTGlyph name="Aogonek" xMin="19" yMin="-631" xMax="926" yMax="1593">
      <component glyphName="A" x="0" y="0" flags="0x1204"/>
      <component glyphName="ogonek" x="74" y="0" flags="0x1004"/>
    </TTGlyph>
    <TTGlyph name="Aring" xMin="19" yMin="0" xMax="926" yMax="2379">
      <component glyphName="ring" x="72" y="1591" flags="0x1004"/>
      <component glyphName="A" x="0" y="0" flags="0x1204"/>
    </TTGlyph>
    <TTGlyph name="Atilde" xMin="19" yMin="0" xMax="926" yMax="2118">
      <component glyphName="tilde" x="-22" y="130" flags="0x1004"/>
      <component glyphName="A" x="0" y="0" flags="0x1204"/>
    </TTGlyph>
    <TTGlyph name="B" xMin="87" yMin="0" xMax="951" yMax="1593">
      <contour>
        <pt x="87" y="0" on="1"/>
        <pt x="87" y="1593" on="1"/>
        <pt x="564" y="1593" on="1"/>
        <pt x="751" y="1593" on="0"/>
        <pt x="931" y="1428" on="0"/>
        <pt x="931" y="1229" on="1"/>
        <pt x="931" y="1223" on="0"/>
        <pt x="931" y="1212" on="1"/>
        <pt x="931" y="1177" on="0"/>
        <pt x="931" y="1143" on="0"/>
        <pt x="924" y="1071" on="0"/>
        <pt x="911" y="1030" on="0"/>
        <pt x="885" y="970" on="0"/>
        <pt x="847" y="932" on="0"/>
        <pt x="789" y="896" on="0"/>
        <pt x="751" y="887" on="1"/>
        <pt x="806" y="874" on="0"/>
        <pt x="884" y="810" on="0"/>
        <pt x="924" y="739" on="0"/>
        <pt x="947" y="635" on="0"/>
        <pt x="951" y="565" on="0"/>
        <pt x="951" y="516" on="1"/>
        <pt x="951" y="390" on="0"/>
        <pt x="916" y="210" on="0"/>
        <pt x="830" y="69" on="0"/>
        <pt x="677" y="0" on="0"/>
        <pt x="564" y="0" on="1"/>
      </contour>
      <contour>
        <pt x="431" y="745" on="1"/>
        <pt x="431" y="283" on="1"/>
        <pt x="455" y="281" on="0"/>
        <pt x="466" y="281" on="1"/>
        <pt x="603" y="281" on="0"/>
        <pt x="603" y="399" on="1"/>
        <pt x="603" y="598" on="1"/>
        <pt x="603" y="674" on="0"/>
        <pt x="552" y="745" on="0"/>
        <pt x="496" y="745" on="1"/>
      </contour>
      <contour>
        <pt x="431" y="993" on="1"/>
        <pt x="503" y="993" on="1"/>
        <pt x="529" y="993" on="0"/>
        <pt x="562" y="1015" on="0"/>
        <pt x="576" y="1056" on="0"/>
        <pt x="580" y="1089" on="0"/>
        <pt x="580" y="1112" on="1"/>
        <pt x="580" y="1270" on="1"/>
        <pt x="580" y="1346" on="0"/>
        <pt x="505" y="1346" on="1"/>
        <pt x="431" y="1346" on="1"/>
      </contour>
    </TTGlyph>
    <TTGlyph name="C" xMin="65" yMin="-18" xMax="937" yMax="1606">
      <contour>
        <pt x="937" y="686" on="1"/>
        <pt x="937" y="385" on="1"/>
        <pt x="937" y="177" on="0"/>
        <pt x="701" y="-18" on="0"/>
        <pt x="489" y="-18" on="1"/>
        <pt x="301" y="-18" on="0"/>
        <pt x="65" y="197" on="0"/>
        <pt x="65" y="395" on="1"/>
        <pt x="65" y="1134" on="1"/>
        <pt x="65" y="1371" on="0"/>
        <pt x="274" y="1606" on="0"/>
        <pt x="497" y="1606" on="1"/>
        <pt x="588" y="1606" on="0"/>
        <pt x="742" y="1561" on="0"/>
        <pt x="861" y="1473" on="0"/>
        <pt x="929" y="1330" on="0"/>
        <pt x="929" y="1237" on="1"/>
        <pt x="929" y="956" on="1"/>
        <pt x="581" y="956" on="1"/>
        <pt x="581" y="1141" on="1"/>
        <pt x="581" y="1284" on="0"/>
        <pt x="497" y="1284" on="1"/>
        <pt x="447" y="1284" on="0"/>
        <pt x="415" y="1221" on="0"/>
        <pt x="415" y="1165" on="1"/>
        <pt x="415" y="412" on="1"/>
        <pt x="415" y="363" on="0"/>
        <pt x="460" y="291" on="0"/>
        <pt x="497" y="291" on="1"/>
        <pt x="531" y="291" on="0"/>
        <pt x="581" y="344" on="0"/>
        <pt x="581" y="412" on="1"/>
        <pt x="581" y="686" on="1"/>
      </contour>
    </TTGlyph>
    <TTGlyph name="Cacute" xMin="65" yMin="-18" xMax="937" yMax="2173">
      <component glyphName="acute" x="342" y="139" flags="0x1004"/>
      <component glyphName="C" x="0" y="0" flags="0x1204"/>
    </TTGlyph>
    <TTGlyph name="Ccaron" xMin="52" yMin="-18" xMax="942" yMax="2135">
      <component glyphName="caron" x="12" y="141" flags="0x1004"/>
      <component glyphName="C" x="0" y="0" flags="0x1204"/>
    </TTGlyph>
    <TTGlyph name="Ccedilla" xMin="66" yMin="-631" xMax="938" yMax="1606">
      <contour>
        <pt x="938" y="385" on="1"/>
        <pt x="938" y="177" on="0"/>
        <pt x="702" y="-18" on="0"/>
        <pt x="490" y="-18" on="1"/>
        <pt x="302" y="-18" on="0"/>
        <pt x="66" y="197" on="0"/>
        <pt x="66" y="395" on="1"/>
        <pt x="66" y="1134" on="1"/>
        <pt x="66" y="1371" on="0"/>
        <pt x="275" y="1606" on="0"/>
        <pt x="498" y="1606" on="1"/>
        <pt x="589" y="1606" on="0"/>
        <pt x="743" y="1561" on="0"/>
        <pt x="862" y="1473" on="0"/>
        <pt x="930" y="1330" on="0"/>
        <pt x="930" y="1237" on="1"/>
        <pt x="930" y="956" on="1"/>
        <pt x="582" y="956" on="1"/>
        <pt x="582" y="1141" on="1"/>
        <pt x="582" y="1284" on="0"/>
        <pt x="498" y="1284" on="1"/>
        <pt x="448" y="1284" on="0"/>
        <pt x="416" y="1221" on="0"/>
        <pt x="416" y="1165" on="1"/>
        <pt x="416" y="412" on="1"/>
        <pt x="416" y="363" on="0"/>
        <pt x="461" y="291" on="0"/>
        <pt x="498" y="291" on="1"/>
        <pt x="532" y="291" on="0"/>
        <pt x="582" y="344" on="0"/>
        <pt x="582" y="412" on="1"/>
        <pt x="582" y="686" on="1"/>
        <pt x="938" y="686" on="1"/>
      </contour>
      <contour>
        <pt x="229" y="-591" on="1"/>
        <pt x="229" y="-368" on="1"/>
        <pt x="295" y="-391" on="0"/>
        <pt x="345" y="-391" on="1"/>
        <pt x="398" y="-391" on="0"/>
        <pt x="460" y="-337" on="0"/>
        <pt x="460" y="-279" on="1"/>
        <pt x="460" y="-223" on="0"/>
        <pt x="375" y="-122" on="0"/>
        <pt x="300" y="-106" on="1"/>
        <pt x="300" y="0" on="1"/>
        <pt x="511" y="0" on="1"/>
        <pt x="511" y="-76" on="1"/>
        <pt x="638" y="-93" on="0"/>
        <pt x="775" y="-237" on="0"/>
        <pt x="775" y="-330" on="1"/>
        <pt x="775" y="-469" on="0"/>
        <pt x="574" y="-631" on="0"/>
        <pt x="427" y="-631" on="1"/>
        <pt x="325" y="-631" on="0"/>
      </contour>
    </TTGlyph>
    <TTGlyph name="Ccircumflex" xMin="52" yMin="-18" xMax="942" yMax="2135">
      <component glyphName="circumflex" x="12" y="141" flags="0x1004"/>
      <component glyphName="C" x="0" y="0" flags="0x1204"/>
    </TTGlyph>
    <TTGlyph name="Cdotaccent" xMin="65" yMin="-18" xMax="937" yMax="2030">
      <component glyphName="dotaccent" x="251" y="140" flags="0x1004"/>
      <component glyphName="C" x="0" y="0" flags="0x1204"/>
    </TTGlyph>
    <TTGlyph name="D" xMin="87" yMin="0" xMax="955" yMax="1593">
      <contour>
        <pt x="87" y="0" on="1"/>
        <pt x="87" y="1593" on="1"/>
        <pt x="572" y="1593" on="1"/>
        <pt x="769" y="1593" on="0"/>
        <pt x="950" y="1392" on="0"/>
        <pt x="951" y="1217" on="1"/>
        <pt x="955" y="473" on="1"/>
        <pt x="955" y="234" on="0"/>
        <pt x="768" y="0" on="0"/>
        <pt x="560" y="0" on="1"/>
      </contour>
      <contour>
        <pt x="441" y="1311" on="1"/>
        <pt x="441" y="291" on="1"/>
        <pt x="444" y="292" on="0"/>
        <pt x="453" y="292" on="1"/>
        <pt x="459" y="292" on="0"/>
        <pt x="492" y="290" on="0"/>
        <pt x="502" y="290" on="1"/>
        <pt x="603" y="290" on="0"/>
        <pt x="603" y="375" on="1"/>
        <pt x="603" y="1161" on="1"/>
        <pt x="603" y="1248" on="0"/>
        <pt x="548" y="1313" on="0"/>
        <pt x="480" y="1313" on="1"/>
        <pt x="469" y="1313" on="0"/>
      </contour>
    </TTGlyph>
    <TTGlyph name="Dcaron" xMin="76" yMin="0" xMax="966" yMax="2135">
      <component glyphName="caron" x="36" y="141" flags="0x1004"/>
      <component glyphName="D" x="0" y="0" flags="0x1204"/>
    </TTGlyph>
    <TTGlyph name="Dcroat" xMin="0" yMin="0" xMax="955" yMax="1593">
      <contour>
        <pt x="87" y="0" on="1"/>
        <pt x="87" y="714" on="1"/>
        <pt x="0" y="714" on="1"/>
        <pt x="0" y="962" on="1"/>
        <pt x="87" y="962" on="1"/>
        <pt x="87" y="1593" on="1"/>
        <pt x="572" y="1593" on="1"/>
        <pt x="769" y="1593" on="0"/>
        <pt x="950" y="1392" on="0"/>
        <pt x="951" y="1217" on="1"/>
        <pt x="955" y="473" on="1"/>
        <pt x="955" y="234" on="0"/>
        <pt x="768" y="0" on="0"/>
        <pt x="560" y="0" on="1"/>
      </contour>
      <contour>
        <pt x="441" y="1311" on="1"/>
        <pt x="441" y="962" on="1"/>
        <pt x="570" y="962" on="1"/>
        <pt x="570" y="714" on="1"/>
        <pt x="441" y="714" on="1"/>
        <pt x="441" y="291" on="1"/>
        <pt x="444" y="292" on="0"/>
        <pt x="453" y="292" on="1"/>
        <pt x="459" y="292" on="0"/>
        <pt x="492" y="290" on="0"/>
        <pt x="502" y="290" on="1"/>
        <pt x="603" y="290" on="0"/>
        <pt x="603" y="375" on="1"/>
        <pt x="603" y="1161" on="1"/>
        <pt x="603" y="1248" on="0"/>
        <pt x="548" y="1313" on="0"/>
        <pt x="480" y="1313" on="1"/>
        <pt x="469" y="1313" on="0"/>
      </contour>
    </TTGlyph>
    <TTGlyph name="Delta" xMin="15" yMin="267" xMax="928" yMax="1436">
      <contour>
        <pt x="320" y="457" on="1"/>
        <pt x="620" y="457" on="1"/>
        <pt x="486" y="1247" on="1"/>
        <pt x="454" y="1247" on="1"/>
      </contour>
      <contour>
        <pt x="15" y="267" on="1"/>
        <pt x="228" y="1436" on="1"/>
        <pt x="719" y="1436" on="1"/>
        <pt x="928" y="267" on="1"/>
      </contour>
    </TTGlyph>
    <TTGlyph name="E" xMin="87" yMin="0" xMax="814" yMax="1593">
      <contour>
        <pt x="87" y="0" on="1"/>
        <pt x="87" y="1593" on="1"/>
        <pt x="791" y="1593" on="1"/>
        <pt x="791" y="1284" on="1"/>
        <pt x="445" y="1284" on="1"/>
        <pt x="445" y="973" on="1"/>
        <pt x="777" y="973" on="1"/>
        <pt x="777" y="674" on="1"/>
        <pt x="445" y="674" on="1"/>
        <pt x="445" y="311" on="1"/>
        <pt x="814" y="311" on="1"/>
        <pt x="814" y="0" on="1"/>
      </contour>
    </TTGlyph>
    <TTGlyph name="Eacute" xMin="87" yMin="0" xMax="814" yMax="2173">
      <component glyphName="acute" x="314" y="139" flags="0x1004"/>
      <component glyphName="E" x="0" y="0" flags="0x1204"/>
    </TTGlyph>
    <TTGlyph name="Ebreve" xMin="5" yMin="0" xMax="872" yMax="2085">
      <component glyphName="breve" x="-64" y="140" flags="0x1004"/>
      <component glyphName="E" x="0" y="0" flags="0x1204"/>
    </TTGlyph>
    <TTGlyph name="Ecaron" xMin="-6" yMin="0" xMax="884" yMax="2135">
      <component glyphName="caron" x="-46" y="141" flags="0x1004"/>
      <component glyphName="E" x="0" y="0" flags="0x1204"/>
    </TTGlyph>
    <TTGlyph name="Ecircumflex" xMin="-6" yMin="0" xMax="884" yMax="2135">
      <component glyphName="circumflex" x="-46" y="141" flags="0x1004"/>
      <component glyphName="E" x="0" y="0" flags="0x1204"/>
    </TTGlyph>
    <TTGlyph name="Edieresis" xMin="18" yMin="0" xMax="860" yMax="2030">
      <component glyphName="dieresis" x="-49" y="141" flags="0x1004"/>
      <component glyphName="E" x="0" y="0" flags="0x1204"/>
    </TTGlyph>
    <TTGlyph name="Edotaccent" xMin="87" yMin="0" xMax="814" yMax="2030">
      <component glyphName="dotaccent" x="193" y="140" flags="0x1004"/>
      <component glyphName="E" x="0" y="0" flags="0x1204"/>
    </TTGlyph>
    <TTGlyph name="Egrave" xMin="87" yMin="0" xMax="814" yMax="2173">
      <component glyphName="grave" x="37" y="179" flags="0x1004"/>
      <component glyphName="E" x="0" y="0" flags="0x1204"/>
    </TTGlyph>
    <TTGlyph name="Emacron" xMin="87" yMin="0" xMax="814" yMax="1980">
      <component glyphName="macron" x="194" y="140" flags="0x1004"/>
      <component glyphName="E" x="0" y="0" flags="0x1204"/>
    </TTGlyph>
    <TTGlyph name="Eng" xMin="87" yMin="-565" xMax="951" yMax="1593">
      <contour>
        <pt x="439" y="-144" on="1"/>
        <pt x="439" y="-187" on="0"/>
        <pt x="477" y="-242" on="0"/>
        <pt x="517" y="-242" on="1"/>
        <pt x="597" y="-242" on="0"/>
        <pt x="596" y="-103" on="1"/>
        <pt x="596" y="50" on="1"/>
        <pt x="431" y="797" on="1"/>
        <pt x="431" y="0" on="1"/>
        <pt x="87" y="0" on="1"/>
        <pt x="87" y="1593" on="1"/>
        <pt x="449" y="1593" on="1"/>
        <pt x="611" y="831" on="1"/>
        <pt x="611" y="1593" on="1"/>
        <pt x="951" y="1593" on="1"/>
        <pt x="951" y="-148" on="1"/>
        <pt x="951" y="-244" on="0"/>
        <pt x="886" y="-398" on="0"/>
        <pt x="771" y="-507" on="0"/>
        <pt x="614" y="-565" on="0"/>
        <pt x="521" y="-565" on="1"/>
        <pt x="437" y="-565" on="0"/>
        <pt x="282" y="-517" on="0"/>
        <pt x="162" y="-424" on="0"/>
        <pt x="91" y="-286" on="0"/>
        <pt x="91" y="-195" on="1"/>
        <pt x="91" y="-144" on="1"/>
      </contour>
    </TTGlyph>
    <TTGlyph name="Eogonek" xMin="87" yMin="-631" xMax="818" yMax="1593">
      <component glyphName="E" x="0" y="0" flags="0x1204"/>
      <component glyphName="ogonek" x="-34" y="0" flags="0x1004"/>
    </TTGlyph>
    <TTGlyph name="Eth" xMin="0" yMin="0" xMax="955" yMax="1593">
      <contour>
        <pt x="87" y="0" on="1"/>
        <pt x="87" y="762" on="1"/>
        <pt x="0" y="762" on="1"/>
        <pt x="0" y="994" on="1"/>
        <pt x="87" y="994" on="1"/>
        <pt x="87" y="1593" on="1"/>
        <pt x="572" y="1593" on="1"/>
        <pt x="769" y="1593" on="0"/>
        <pt x="950" y="1392" on="0"/>
        <pt x="951" y="1217" on="1"/>
        <pt x="955" y="473" on="1"/>
        <pt x="955" y="234" on="0"/>
        <pt x="768" y="0" on="0"/>
        <pt x="560" y="0" on="1"/>
      </contour>
      <contour>
        <pt x="441" y="1311" on="1"/>
        <pt x="441" y="994" on="1"/>
        <pt x="516" y="994" on="1"/>
        <pt x="516" y="762" on="1"/>
        <pt x="441" y="762" on="1"/>
        <pt x="441" y="291" on="1"/>
        <pt x="444" y="292" on="0"/>
        <pt x="453" y="292" on="1"/>
        <pt x="459" y="292" on="0"/>
        <pt x="492" y="290" on="0"/>
        <pt x="502" y="290" on="1"/>
        <pt x="603" y="290" on="0"/>
        <pt x="603" y="375" on="1"/>
        <pt x="603" y="1161" on="1"/>
        <pt x="603" y="1248" on="0"/>
        <pt x="548" y="1313" on="0"/>
        <pt x="480" y="1313" on="1"/>
        <pt x="469" y="1313" on="0"/>
      </contour>
    </TTGlyph>
    <TTGlyph name="Euro" xMin="54" yMin="-18" xMax="1056" yMax="1729">
      <contour>
        <pt x="54" y="942" on="1"/>
        <pt x="54" y="1166" on="1"/>
        <pt x="154" y="1166" on="1"/>
        <pt x="154" y="1231" on="1"/>
        <pt x="154" y="1480" on="0"/>
        <pt x="392" y="1729" on="0"/>
        <pt x="620" y="1729" on="1"/>
        <pt x="831" y="1729" on="0"/>
        <pt x="1052" y="1487" on="0"/>
        <pt x="1056" y="1245" on="1"/>
        <pt x="707" y="1246" on="1"/>
        <pt x="707" y="1273" on="1"/>
        <pt x="707" y="1299" on="0"/>
        <pt x="706" y="1330" on="0"/>
        <pt x="696" y="1377" on="0"/>
        <pt x="679" y="1404" on="0"/>
        <pt x="645" y="1424" on="0"/>
        <pt x="595" y="1424" on="0"/>
        <pt x="561" y="1404" on="0"/>
        <pt x="544" y="1377" on="0"/>
        <pt x="534" y="1330" on="0"/>
        <pt x="533" y="1299" on="0"/>
        <pt x="533" y="1273" on="1"/>
        <pt x="533" y="1166" on="1"/>
        <pt x="848" y="1166" on="1"/>
        <pt x="848" y="942" on="1"/>
        <pt x="533" y="942" on="1"/>
        <pt x="533" y="791" on="1"/>
        <pt x="848" y="791" on="1"/>
        <pt x="848" y="559" on="1"/>
        <pt x="533" y="559" on="1"/>
        <pt x="533" y="447" on="1"/>
        <pt x="533" y="391" on="0"/>
        <pt x="588" y="330" on="0"/>
        <pt x="652" y="330" on="0"/>
        <pt x="707" y="391" on="0"/>
        <pt x="707" y="447" on="1"/>
        <pt x="707" y="469" on="1"/>
        <pt x="1056" y="475" on="1"/>
        <pt x="1055" y="347" on="0"/>
        <pt x="979" y="151" on="0"/>
        <pt x="853" y="38" on="0"/>
        <pt x="703" y="-18" on="0"/>
        <pt x="620" y="-18" on="1"/>
        <pt x="549" y="-18" on="0"/>
        <pt x="418" y="16" on="0"/>
        <pt x="297" y="93" on="0"/>
        <pt x="207" y="206" on="0"/>
        <pt x="154" y="377" on="0"/>
        <pt x="154" y="482" on="1"/>
        <pt x="154" y="559" on="1"/>
        <pt x="54" y="559" on="1"/>
        <pt x="54" y="791" on="1"/>
        <pt x="154" y="791" on="1"/>
        <pt x="154" y="942" on="1"/>
      </contour>
    </TTGlyph>
    <TTGlyph name="F" xMin="87" yMin="0" xMax="791" yMax="1593">
      <contour>
        <pt x="87" y="0" on="1"/>
        <pt x="87" y="1593" on="1"/>
        <pt x="791" y="1593" on="1"/>
        <pt x="791" y="1282" on="1"/>
        <pt x="441" y="1282" on="1"/>
        <pt x="441" y="1030" on="1"/>
        <pt x="773" y="1030" on="1"/>
        <pt x="773" y="723" on="1"/>
        <pt x="441" y="723" on="1"/>
        <pt x="441" y="0" on="1"/>
      </contour>
    </TTGlyph>
    <TTGlyph name="G" xMin="65" yMin="-18" xMax="937" yMax="1606">
      <contour>
        <pt x="796" y="0" on="1"/>
        <pt x="736" y="135" on="1"/>
        <pt x="642" y="-18" on="0"/>
        <pt x="446" y="-18" on="1"/>
        <pt x="65" y="-18" on="0"/>
        <pt x="65" y="475" on="1"/>
        <pt x="65" y="1165" on="1"/>
        <pt x="65" y="1278" on="0"/>
        <pt x="125" y="1446" on="0"/>
        <pt x="212" y="1537" on="0"/>
        <pt x="338" y="1591" on="0"/>
        <pt x="441" y="1606" on="0"/>
        <pt x="501" y="1606" on="1"/>
        <pt x="575" y="1606" on="0"/>
        <pt x="695" y="1585" on="0"/>
        <pt x="782" y="1541" on="0"/>
        <pt x="848" y="1486" on="0"/>
        <pt x="891" y="1405" on="0"/>
        <pt x="918" y="1326" on="0"/>
        <pt x="932" y="1215" on="0"/>
        <pt x="937" y="1119" on="0"/>
        <pt x="937" y="1054" on="1"/>
        <pt x="601" y="1054" on="1"/>
        <pt x="601" y="1180" on="1"/>
        <pt x="601" y="1218" on="0"/>
        <pt x="585" y="1268" on="0"/>
        <pt x="556" y="1289" on="0"/>
        <pt x="532" y="1296" on="0"/>
        <pt x="517" y="1296" on="1"/>
        <pt x="487" y="1296" on="0"/>
        <pt x="450" y="1280" on="0"/>
        <pt x="429" y="1256" on="0"/>
        <pt x="419" y="1193" on="0"/>
        <pt x="417" y="1137" on="0"/>
        <pt x="417" y="1077" on="1"/>
        <pt x="417" y="461" on="1"/>
        <pt x="417" y="426" on="0"/>
        <pt x="422" y="378" on="0"/>
        <pt x="440" y="322" on="0"/>
        <pt x="481" y="293" on="0"/>
        <pt x="513" y="293" on="1"/>
        <pt x="566" y="293" on="0"/>
        <pt x="601" y="376" on="0"/>
        <pt x="601" y="469" on="1"/>
        <pt x="601" y="653" on="1"/>
        <pt x="507" y="653" on="1"/>
        <pt x="507" y="928" on="1"/>
        <pt x="933" y="928" on="1"/>
        <pt x="933" y="0" on="1"/>
      </contour>
    </TTGlyph>
    <TTGlyph name="Gbreve" xMin="65" yMin="-18" xMax="937" yMax="2085">
      <component glyphName="breve" x="-2" y="140" flags="0x1004"/>
      <component glyphName="G" x="0" y="0" flags="0x1204"/>
    </TTGlyph>
    <TTGlyph name="Gcircumflex" xMin="56" yMin="-18" xMax="946" yMax="2135">
      <component glyphName="circumflex" x="16" y="141" flags="0x1004"/>
      <component glyphName="G" x="0" y="0" flags="0x1204"/>
    </TTGlyph>
    <TTGlyph name="Gcommaaccent" xMin="65" yMin="-674" xMax="937" yMax="1606">
      <component glyphName="comma" x="234" y="-439" flags="0x1004"/>
      <component glyphName="G" x="0" y="0" flags="0x1204"/>
    </TTGlyph>
    <TTGlyph name="Gdotaccent" xMin="65" yMin="-18" xMax="937" yMax="2030">
      <component glyphName="dotaccent" x="255" y="140" flags="0x1004"/>
      <component glyphName="G" x="0" y="0" flags="0x1204"/>
    </TTGlyph>
    <TTGlyph name="H" xMin="87" yMin="0" xMax="953" yMax="1593">
      <contour>
        <pt x="437" y="723" on="1"/>
        <pt x="437" y="0" on="1"/>
        <pt x="87" y="0" on="1"/>
        <pt x="87" y="1593" on="1"/>
        <pt x="437" y="1593" on="1"/>
        <pt x="437" y="1024" on="1"/>
        <pt x="603" y="1024" on="1"/>
        <pt x="603" y="1593" on="1"/>
        <pt x="953" y="1593" on="1"/>
        <pt x="953" y="0" on="1"/>
        <pt x="603" y="0" on="1"/>
        <pt x="603" y="723" on="1"/>
      </contour>
    </TTGlyph>
    <TTGlyph name="Hbar" xMin="-1" yMin="0" xMax="1041" yMax="1593">
      <contour>
        <pt x="437" y="723" on="1"/>
        <pt x="437" y="0" on="1"/>
        <pt x="87" y="0" on="1"/>
        <pt x="87" y="1187" on="1"/>
        <pt x="-1" y="1187" on="1"/>
        <pt x="-1" y="1405" on="1"/>
        <pt x="87" y="1405" on="1"/>
        <pt x="87" y="1593" on="1"/>
        <pt x="437" y="1593" on="1"/>
        <pt x="437" y="1405" on="1"/>
        <pt x="603" y="1405" on="1"/>
        <pt x="603" y="1593" on="1"/>
        <pt x="953" y="1593" on="1"/>
        <pt x="953" y="1405" on="1"/>
        <pt x="1041" y="1405" on="1"/>
        <pt x="1041" y="1187" on="1"/>
        <pt x="953" y="1187" on="1"/>
        <pt x="953" y="0" on="1"/>
        <pt x="603" y="0" on="1"/>
        <pt x="603" y="723" on="1"/>
      </contour>
      <contour>
        <pt x="603" y="1024" on="1"/>
        <pt x="603" y="1187" on="1"/>
        <pt x="437" y="1187" on="1"/>
        <pt x="437" y="1024" on="1"/>
      </contour>
    </TTGlyph>
    <TTGlyph name="Hcircumflex" xMin="75" yMin="0" xMax="965" yMax="2135">
      <component glyphName="circumflex" x="35" y="141" flags="0x1004"/>
      <component glyphName="H" x="0" y="0" flags="0x1204"/>
    </TTGlyph>
    <TTGlyph name="I" xMin="87" yMin="0" xMax="427" yMax="1593">
      <contour>
        <pt x="87" y="0" on="1"/>
        <pt x="87" y="1593" on="1"/>
        <pt x="427" y="1593" on="1"/>
        <pt x="427" y="0" on="1"/>
      </contour>
    </TTGlyph>
    <TTGlyph name="Iacute" xMin="81" yMin="0" xMax="556" yMax="2173">
      <component glyphName="acute" x="80" y="139" flags="0x1004"/>
      <component glyphName="I" x="0" y="0" flags="0x1204"/>
    </TTGlyph>
    <TTGlyph name="Ibreve" xMin="-176" yMin="0" xMax="691" yMax="2085">
      <component glyphName="breve" x="-245" y="140" flags="0x1004"/>
      <component glyphName="I" x="1" y="0" flags="0x1204"/>
    </TTGlyph>
    <TTGlyph name="Icircumflex" xMin="-188" yMin="0" xMax="702" yMax="2135">
      <component glyphName="circumflex" x="-228" y="141" flags="0x1004"/>
      <component glyphName="I" x="0" y="0" flags="0x1204"/>
    </TTGlyph>
    <TTGlyph name="Idieresis" xMin="-164" yMin="0" xMax="678" yMax="2030">
      <component glyphName="dieresis" x="-231" y="141" flags="0x1004"/>
      <component glyphName="I" x="0" y="0" flags="0x1204"/>
    </TTGlyph>
    <TTGlyph name="Idotaccent" xMin="78" yMin="0" xMax="436" yMax="1982">
      <component glyphName="I" x="0" y="0" flags="0x1204"/>
      <component glyphName="dotaccent" x="11" y="92" flags="0x1004"/>
    </TTGlyph>
    <TTGlyph name="Igrave" xMin="-46" yMin="0" xMax="429" yMax="2173">
      <component glyphName="grave" x="-97" y="179" flags="0x1004"/>
      <component glyphName="I" x="0" y="0" flags="0x1204"/>
    </TTGlyph>
    <TTGlyph name="Imacron" xMin="-28" yMin="0" xMax="542" yMax="1980">
      <component glyphName="macron" x="12" y="140" flags="0x1004"/>
      <component glyphName="I" x="0" y="0" flags="0x1204"/>
    </TTGlyph>
    <TTGlyph name="Iogonek" xMin="-112" yMin="-610" xMax="434" yMax="1593">
      <component glyphName="ogonek" x="-418" y="21" flags="0x1004"/>
      <component glyphName="I" x="0" y="0" flags="0x1204"/>
    </TTGlyph>
    <TTGlyph name="Itilde" xMin="-150" yMin="0" xMax="664" yMax="2118">
      <component glyphName="tilde" x="-240" y="130" flags="0x1004"/>
      <component glyphName="I" x="0" y="0" flags="0x1204"/>
    </TTGlyph>
    <TTGlyph name="J" xMin="24" yMin="-18" xMax="884" yMax="1593">
      <contour>
        <pt x="454" y="-18" on="1"/>
        <pt x="370" y="-18" on="0"/>
        <pt x="217" y="30" on="0"/>
        <pt x="96" y="120" on="0"/>
        <pt x="24" y="264" on="0"/>
        <pt x="24" y="352" on="1"/>
        <pt x="24" y="752" on="1"/>
        <pt x="372" y="752" on="1"/>
        <pt x="372" y="403" on="1"/>
        <pt x="372" y="360" on="0"/>
        <pt x="410" y="305" on="0"/>
        <pt x="450" y="305" on="1"/>
        <pt x="530" y="305" on="0"/>
        <pt x="530" y="444" on="1"/>
        <pt x="530" y="455" on="0"/>
        <pt x="529" y="490" on="0"/>
        <pt x="529" y="496" on="1"/>
        <pt x="529" y="1593" on="1"/>
        <pt x="884" y="1593" on="1"/>
        <pt x="884" y="399" on="1"/>
        <pt x="884" y="207" on="0"/>
        <pt x="642" y="-18" on="0"/>
      </contour>
    </TTGlyph>
    <TTGlyph name="Jcircumflex" xMin="24" yMin="-18" xMax="1152" yMax="2135">
      <component glyphName="circumflex" x="222" y="141" flags="0x1004"/>
      <component glyphName="J" x="0" y="0" flags="0x1204"/>
    </TTGlyph>
    <TTGlyph name="K" xMin="87" yMin="0" xMax="994" yMax="1593">
      <contour>
        <pt x="599" y="1593" on="1"/>
        <pt x="953" y="1593" on="1"/>
        <pt x="756" y="864" on="1"/>
        <pt x="994" y="0" on="1"/>
        <pt x="629" y="0" on="1"/>
        <pt x="437" y="772" on="1"/>
        <pt x="437" y="0" on="1"/>
        <pt x="87" y="0" on="1"/>
        <pt x="87" y="1593" on="1"/>
        <pt x="435" y="1593" on="1"/>
        <pt x="435" y="956" on="1"/>
      </contour>
    </TTGlyph>
    <TTGlyph name="Kcommaaccent" xMin="87" yMin="-656" xMax="994" yMax="1593">
      <component glyphName="comma" x="296" y="-421" flags="0x1004"/>
      <component glyphName="K" x="0" y="0" flags="0x1204"/>
    </TTGlyph>
    <TTGlyph name="L" xMin="87" yMin="0" xMax="801" yMax="1593">
      <contour>
        <pt x="87" y="0" on="1"/>
        <pt x="87" y="1593" on="1"/>
        <pt x="439" y="1593" on="1"/>
        <pt x="439" y="311" on="1"/>
        <pt x="801" y="311" on="1"/>
        <pt x="801" y="0" on="1"/>
      </contour>
    </TTGlyph>
    <TTGlyph name="Lacute" xMin="87" yMin="0" xMax="801" yMax="2173">
      <component glyphName="acute" x="289" y="139" flags="0x1004"/>
      <component glyphName="L" x="0" y="0" flags="0x1204"/>
    </TTGlyph>
    <TTGlyph name="Lcaron" xMin="87" yMin="0" xMax="931" yMax="1684">
      <component glyphName="L" x="0" y="0" flags="0x1204"/>
      <component glyphName="quoteright" x="505" y="92" flags="0x1004"/>
    </TTGlyph>
    <TTGlyph name="Lcommaaccent" xMin="87" yMin="-656" xMax="801" yMax="1593">
      <component glyphName="comma" x="199" y="-421" flags="0x1004"/>
      <component glyphName="L" x="0" y="0" flags="0x1204"/>
    </TTGlyph>
    <TTGlyph name="Ldot" xMin="87" yMin="0" xMax="922" yMax="1593">
      <component glyphName="L" x="0" y="0" flags="0x1204"/>
      <component glyphName="periodcentered" x="497" y="0" flags="0x1004"/>
    </TTGlyph>
    <TTGlyph name="Lslash" xMin="21" yMin="0" xMax="805" yMax="1593">
      <contour>
        <pt x="91" y="0" on="1"/>
        <pt x="91" y="1593" on="1"/>
        <pt x="443" y="1593" on="1"/>
        <pt x="443" y="311" on="1"/>
        <pt x="805" y="311" on="1"/>
        <pt x="805" y="0" on="1"/>
      </contour>
      <contour>
        <pt x="21" y="509" on="1"/>
        <pt x="21" y="741" on="1"/>
        <pt x="708" y="973" on="1"/>
        <pt x="708" y="741" on="1"/>
      </contour>
    </TTGlyph>
    <TTGlyph name="M" xMin="87" yMin="0" xMax="1459" yMax="1593">
      <contour>
        <pt x="935" y="0" on="1"/>
        <pt x="619" y="0" on="1"/>
        <pt x="425" y="1149" on="1"/>
        <pt x="425" y="0" on="1"/>
        <pt x="87" y="0" on="1"/>
        <pt x="87" y="1593" on="1"/>
        <pt x="623" y="1593" on="1"/>
        <pt x="771" y="762" on="1"/>
        <pt x="918" y="1593" on="1"/>
        <pt x="1459" y="1593" on="1"/>
        <pt x="1459" y="0" on="1"/>
        <pt x="1117" y="0" on="1"/>
        <pt x="1117" y="1149" on="1"/>
      </contour>
    </TTGlyph>
    <TTGlyph name="N" xMin="87" yMin="0" xMax="951" yMax="1593">
      <contour>
        <pt x="951" y="1593" on="1"/>
        <pt x="951" y="0" on="1"/>
        <pt x="607" y="0" on="1"/>
        <pt x="431" y="797" on="1"/>
        <pt x="431" y="0" on="1"/>
        <pt x="87" y="0" on="1"/>
        <pt x="87" y="1593" on="1"/>
        <pt x="449" y="1593" on="1"/>
        <pt x="611" y="831" on="1"/>
        <pt x="611" y="1593" on="1"/>
      </contour>
    </TTGlyph>
    <TTGlyph name="Nacute" xMin="87" yMin="0" xMax="951" yMax="2173">
      <component glyphName="acute" x="331" y="139" flags="0x1004"/>
      <component glyphName="N" x="0" y="0" flags="0x1204"/>
    </TTGlyph>
    <TTGlyph name="Ncaron" xMin="74" yMin="0" xMax="964" yMax="2135">
      <component glyphName="caron" x="34" y="141" flags="0x1004"/>
      <component glyphName="N" x="0" y="0" flags="0x1204"/>
    </TTGlyph>
    <TTGlyph name="Ncommaaccent" xMin="87" yMin="-656" xMax="951" yMax="1593">
      <component glyphName="comma" x="274" y="-421" flags="0x1004"/>
      <component glyphName="N" x="0" y="0" flags="0x1204"/>
    </TTGlyph>
    <TTGlyph name="Ntilde" xMin="87" yMin="0" xMax="951" yMax="2118">
      <component glyphName="tilde" x="22" y="130" flags="0x1004"/>
      <component glyphName="N" x="0" y="0" flags="0x1204"/>
    </TTGlyph>
    <TTGlyph name="O" xMin="66" yMin="-18" xMax="934" yMax="1610">
      <contour>
        <pt x="66" y="430" on="1"/>
        <pt x="66" y="1189" on="1"/>
        <pt x="66" y="1388" on="0"/>
        <pt x="281" y="1607" on="0"/>
        <pt x="497" y="1610" on="1"/>
        <pt x="719" y="1607" on="0"/>
        <pt x="934" y="1388" on="0"/>
        <pt x="934" y="1189" on="1"/>
        <pt x="934" y="430" on="1"/>
        <pt x="934" y="333" on="0"/>
        <pt x="885" y="174" on="0"/>
        <pt x="785" y="50" on="0"/>
        <pt x="614" y="-18" on="0"/>
        <pt x="503" y="-15" on="1"/>
        <pt x="386" y="-18" on="0"/>
        <pt x="215" y="50" on="0"/>
        <pt x="115" y="174" on="0"/>
        <pt x="66" y="333" on="0"/>
      </contour>
      <contour>
        <pt x="500" y="297" on="1"/>
        <pt x="519" y="297" on="0"/>
        <pt x="548" y="312" on="0"/>
        <pt x="565" y="343" on="0"/>
        <pt x="575" y="371" on="0"/>
        <pt x="579" y="418" on="0"/>
        <pt x="580" y="443" on="0"/>
        <pt x="580" y="465" on="1"/>
        <pt x="580" y="470" on="0"/>
        <pt x="580" y="473" on="1"/>
        <pt x="580" y="1113" on="1"/>
        <pt x="580" y="1119" on="0"/>
        <pt x="581" y="1155" on="0"/>
        <pt x="580" y="1173" on="0"/>
        <pt x="579" y="1208" on="0"/>
        <pt x="574" y="1227" on="0"/>
        <pt x="567" y="1256" on="0"/>
        <pt x="555" y="1271" on="0"/>
        <pt x="539" y="1288" on="0"/>
        <pt x="515" y="1295" on="0"/>
        <pt x="500" y="1295" on="1"/>
        <pt x="479" y="1295" on="0"/>
        <pt x="448" y="1281" on="0"/>
        <pt x="430" y="1250" on="0"/>
        <pt x="418" y="1225" on="0"/>
        <pt x="414" y="1176" on="0"/>
        <pt x="414" y="1155" on="0"/>
        <pt x="414" y="1130" on="1"/>
        <pt x="414" y="1126" on="0"/>
        <pt x="414" y="1120" on="0"/>
        <pt x="414" y="1117" on="1"/>
        <pt x="414" y="477" on="1"/>
        <pt x="414" y="455" on="0"/>
        <pt x="415" y="429" on="0"/>
        <pt x="419" y="379" on="0"/>
        <pt x="430" y="348" on="0"/>
        <pt x="448" y="314" on="0"/>
        <pt x="479" y="297" on="0"/>
      </contour>
    </TTGlyph>
    <TTGlyph name="OE" xMin="63" yMin="0" xMax="1304" yMax="1593">
      <contour>
        <pt x="1304" y="0" on="1"/>
        <pt x="619" y="0" on="1"/>
        <pt x="63" y="0" on="0"/>
        <pt x="63" y="430" on="1"/>
        <pt x="63" y="1189" on="1"/>
        <pt x="63" y="1403" on="0"/>
        <pt x="343" y="1593" on="0"/>
        <pt x="611" y="1593" on="1"/>
        <pt x="1281" y="1593" on="1"/>
        <pt x="1281" y="1284" on="1"/>
        <pt x="944" y="1284" on="1"/>
        <pt x="944" y="973" on="1"/>
        <pt x="1267" y="973" on="1"/>
        <pt x="1267" y="674" on="1"/>
        <pt x="944" y="674" on="1"/>
        <pt x="944" y="311" on="1"/>
        <pt x="1304" y="311" on="1"/>
      </contour>
      <contour>
        <pt x="411" y="477" on="1"/>
        <pt x="411" y="391" on="0"/>
        <pt x="476" y="308" on="0"/>
        <pt x="526" y="308" on="1"/>
        <pt x="556" y="308" on="0"/>
        <pt x="587" y="322" on="1"/>
        <pt x="587" y="1280" on="1"/>
        <pt x="560" y="1289" on="0"/>
        <pt x="532" y="1289" on="1"/>
        <pt x="480" y="1289" on="0"/>
        <pt x="411" y="1219" on="0"/>
        <pt x="411" y="1147" on="1"/>
      </contour>
    </TTGlyph>
    <TTGlyph name="Oacute" xMin="66" yMin="-18" xMax="934" yMax="2173">
      <component glyphName="acute" x="308" y="139" flags="0x1004"/>
      <component glyphName="O" x="0" y="0" flags="0x1204"/>
    </TTGlyph>
    <TTGlyph name="Obreve" xMin="63" yMin="-18" xMax="934" yMax="2085">
      <component glyphName="breve" x="-6" y="140" flags="0x1004"/>
      <component glyphName="O" x="0" y="0" flags="0x1204"/>
    </TTGlyph>
    <TTGlyph name="Ocircumflex" xMin="52" yMin="-18" xMax="942" yMax="2135">
      <component glyphName="circumflex" x="12" y="141" flags="0x1004"/>
      <component glyphName="O" x="0" y="0" flags="0x1204"/>
    </TTGlyph>
    <TTGlyph name="Odieresis" xMin="66" yMin="-18" xMax="934" yMax="2030">
      <component glyphName="dieresis" x="9" y="141" flags="0x1004"/>
      <component glyphName="O" x="0" y="0" flags="0x1204"/>
    </TTGlyph>
    <TTGlyph name="Ograve" xMin="66" yMin="-18" xMax="934" yMax="2173">
      <component glyphName="grave" x="151" y="179" flags="0x1004"/>
      <component glyphName="O" x="0" y="0" flags="0x1204"/>
    </TTGlyph>
    <TTGlyph name="Ohungarumlaut" xMin="66" yMin="-18" xMax="937" yMax="2269">
      <component glyphName="hungarumlaut" x="-77" y="496" flags="0x1004"/>
      <component glyphName="O" x="0" y="0" flags="0x1204"/>
    </TTGlyph>
    <TTGlyph name="Omacron" xMin="66" yMin="-18" xMax="934" yMax="1980">
      <component glyphName="macron" x="252" y="140" flags="0x1004"/>
      <component glyphName="O" x="0" y="0" flags="0x1204"/>
    </TTGlyph>
    <TTGlyph name="Omega" xMin="56" yMin="0" xMax="954" yMax="1607">
      <contour>
        <pt x="929" y="1189" on="1"/>
        <pt x="929" y="710" on="1"/>
        <pt x="929" y="394" on="0"/>
        <pt x="832" y="246" on="1"/>
        <pt x="954" y="246" on="1"/>
        <pt x="954" y="0" on="1"/>
        <pt x="538" y="0" on="1"/>
        <pt x="538" y="247" on="1"/>
        <pt x="540" y="248" on="0"/>
        <pt x="544" y="250" on="1"/>
        <pt x="567" y="262" on="0"/>
        <pt x="582" y="298" on="0"/>
        <pt x="590" y="424" on="0"/>
        <pt x="590" y="581" on="1"/>
        <pt x="590" y="1211" on="1"/>
        <pt x="590" y="1247" on="0"/>
        <pt x="580" y="1296" on="0"/>
        <pt x="540" y="1335" on="0"/>
        <pt x="470" y="1335" on="0"/>
        <pt x="430" y="1296" on="0"/>
        <pt x="420" y="1247" on="0"/>
        <pt x="420" y="1211" on="1"/>
        <pt x="420" y="581" on="1"/>
        <pt x="420" y="493" on="0"/>
        <pt x="421" y="442" on="1"/>
        <pt x="423" y="297" on="0"/>
        <pt x="440" y="271" on="1"/>
        <pt x="446" y="261" on="0"/>
        <pt x="472" y="247" on="1"/>
        <pt x="472" y="0" on="1"/>
        <pt x="56" y="0" on="1"/>
        <pt x="56" y="246" on="1"/>
        <pt x="178" y="246" on="1"/>
        <pt x="81" y="394" on="0"/>
        <pt x="81" y="710" on="1"/>
        <pt x="81" y="1189" on="1"/>
        <pt x="81" y="1388" on="0"/>
        <pt x="291" y="1607" on="0"/>
        <pt x="719" y="1607" on="0"/>
        <pt x="929" y="1388" on="0"/>
      </contour>
    </TTGlyph>
    <TTGlyph name="Oslash" xMin="66" yMin="-120" xMax="934" yMax="1699">
      <contour>
        <pt x="500" y="-18" on="1"/>
        <pt x="416" y="-18" on="0"/>
        <pt x="345" y="1" on="1"/>
        <pt x="311" y="-120" on="1"/>
        <pt x="211" y="-92" on="1"/>
        <pt x="248" y="42" on="1"/>
        <pt x="66" y="151" on="0"/>
        <pt x="66" y="430" on="1"/>
        <pt x="66" y="1189" on="1"/>
        <pt x="66" y="1388" on="0"/>
        <pt x="281" y="1607" on="0"/>
        <pt x="500" y="1607" on="1"/>
        <pt x="598" y="1607" on="0"/>
        <pt x="676" y="1584" on="1"/>
        <pt x="708" y="1699" on="1"/>
        <pt x="809" y="1671" on="1"/>
        <pt x="772" y="1540" on="1"/>
        <pt x="934" y="1437" on="0"/>
        <pt x="934" y="1189" on="1"/>
        <pt x="934" y="430" on="1"/>
        <pt x="934" y="333" on="0"/>
        <pt x="885" y="174" on="0"/>
        <pt x="785" y="50" on="0"/>
        <pt x="614" y="-18" on="0"/>
      </contour>
      <contour>
        <pt x="500" y="1295" on="1"/>
        <pt x="479" y="1295" on="0"/>
        <pt x="448" y="1281" on="0"/>
        <pt x="430" y="1250" on="0"/>
        <pt x="418" y="1225" on="0"/>
        <pt x="414" y="1176" on="0"/>
        <pt x="414" y="1155" on="0"/>
        <pt x="414" y="1130" on="1"/>
        <pt x="414" y="1126" on="0"/>
        <pt x="414" y="1120" on="0"/>
        <pt x="414" y="1117" on="1"/>
        <pt x="414" y="639" on="1"/>
        <pt x="576" y="1222" on="1"/>
        <pt x="562" y="1295" on="0"/>
      </contour>
      <contour>
        <pt x="500" y="297" on="1"/>
        <pt x="519" y="297" on="0"/>
        <pt x="548" y="312" on="0"/>
        <pt x="565" y="343" on="0"/>
        <pt x="575" y="371" on="0"/>
        <pt x="579" y="418" on="0"/>
        <pt x="580" y="443" on="0"/>
        <pt x="580" y="465" on="1"/>
        <pt x="580" y="470" on="0"/>
        <pt x="580" y="473" on="1"/>
        <pt x="580" y="846" on="1"/>
        <pt x="437" y="333" on="1"/>
        <pt x="458" y="297" on="0"/>
      </contour>
    </TTGlyph>
    <TTGlyph name="Oslashacute" xMin="66" yMin="-120" xMax="935" yMax="2262">
      <component glyphName="acute" x="459" y="228" flags="0x1004"/>
      <component glyphName="Oslash" x="0" y="0" flags="0x1204"/>
    </TTGlyph>
    <TTGlyph name="Otilde" xMin="66" yMin="-18" xMax="934" yMax="2118">
      <component glyphName="tilde" x="0" y="130" flags="0x1004"/>
      <component glyphName="O" x="0" y="0" flags="0x1204"/>
    </TTGlyph>
    <TTGlyph name="P" xMin="87" yMin="0" xMax="943" yMax="1593">
      <contour>
        <pt x="87" y="0" on="1"/>
        <pt x="87" y="1593" on="1"/>
        <pt x="552" y="1593" on="1"/>
        <pt x="644" y="1593" on="0"/>
        <pt x="782" y="1545" on="0"/>
        <pt x="888" y="1437" on="0"/>
        <pt x="943" y="1246" on="0"/>
        <pt x="943" y="1110" on="1"/>
        <pt x="943" y="993" on="0"/>
        <pt x="910" y="826" on="0"/>
        <pt x="830" y="696" on="0"/>
        <pt x="683" y="631" on="0"/>
        <pt x="576" y="631" on="1"/>
        <pt x="433" y="631" on="1"/>
        <pt x="433" y="0" on="1"/>
      </contour>
      <contour>
        <pt x="433" y="1303" on="1"/>
        <pt x="433" y="918" on="1"/>
        <pt x="453" y="918" on="1"/>
        <pt x="481" y="918" on="0"/>
        <pt x="510" y="921" on="0"/>
        <pt x="549" y="932" on="0"/>
        <pt x="568" y="957" on="0"/>
        <pt x="588" y="1000" on="0"/>
        <pt x="595" y="1068" on="0"/>
        <pt x="595" y="1116" on="1"/>
        <pt x="595" y="1221" on="0"/>
        <pt x="540" y="1303" on="0"/>
        <pt x="472" y="1303" on="1"/>
      </contour>
    </TTGlyph>
    <TTGlyph name="Q" xMin="66" yMin="-170" xMax="987" yMax="1606">
      <contour>
        <pt x="500" y="-18" on="1"/>
        <pt x="386" y="-18" on="0"/>
        <pt x="216" y="46" on="0"/>
        <pt x="115" y="165" on="0"/>
        <pt x="66" y="321" on="0"/>
        <pt x="66" y="418" on="1"/>
        <pt x="66" y="1186" on="1"/>
        <pt x="66" y="1385" on="0"/>
        <pt x="282" y="1606" on="0"/>
        <pt x="501" y="1606" on="1"/>
        <pt x="718" y="1606" on="0"/>
        <pt x="934" y="1385" on="0"/>
        <pt x="934" y="1186" on="1"/>
        <pt x="934" y="418" on="1"/>
        <pt x="934" y="222" on="0"/>
        <pt x="836" y="109" on="1"/>
        <pt x="987" y="20" on="1"/>
        <pt x="868" y="-170" on="1"/>
        <pt x="588" y="-8" on="1"/>
        <pt x="520" y="-18" on="0"/>
      </contour>
      <contour>
        <pt x="500" y="299" on="1"/>
        <pt x="544" y="299" on="0"/>
        <pt x="563" y="341" on="1"/>
        <pt x="580" y="377" on="0"/>
        <pt x="580" y="475" on="1"/>
        <pt x="580" y="1110" on="1"/>
        <pt x="580" y="1113" on="0"/>
        <pt x="580" y="1154" on="0"/>
        <pt x="580" y="1167" on="0"/>
        <pt x="578" y="1206" on="0"/>
        <pt x="573" y="1223" on="0"/>
        <pt x="566" y="1253" on="0"/>
        <pt x="553" y="1268" on="0"/>
        <pt x="537" y="1285" on="0"/>
        <pt x="513" y="1292" on="0"/>
        <pt x="483" y="1292" on="0"/>
        <pt x="458" y="1285" on="0"/>
        <pt x="441" y="1268" on="0"/>
        <pt x="428" y="1252" on="0"/>
        <pt x="421" y="1223" on="0"/>
        <pt x="416" y="1205" on="0"/>
        <pt x="414" y="1169" on="0"/>
        <pt x="414" y="1154" on="0"/>
        <pt x="414" y="1117" on="0"/>
        <pt x="414" y="1114" on="1"/>
        <pt x="414" y="479" on="1"/>
        <pt x="414" y="457" on="0"/>
        <pt x="415" y="431" on="0"/>
        <pt x="419" y="381" on="0"/>
        <pt x="430" y="350" on="0"/>
        <pt x="448" y="316" on="0"/>
        <pt x="479" y="299" on="0"/>
      </contour>
    </TTGlyph>
    <TTGlyph name="R" xMin="87" yMin="0" xMax="947" yMax="1593">
      <contour>
        <pt x="443" y="725" on="1"/>
        <pt x="443" y="0" on="1"/>
        <pt x="87" y="0" on="1"/>
        <pt x="87" y="1593" on="1"/>
        <pt x="627" y="1593" on="1"/>
        <pt x="710" y="1593" on="0"/>
        <pt x="828" y="1548" on="0"/>
        <pt x="896" y="1475" on="0"/>
        <pt x="935" y="1354" on="0"/>
        <pt x="947" y="1233" on="0"/>
        <pt x="947" y="1147" on="1"/>
        <pt x="947" y="1102" on="0"/>
        <pt x="944" y="1045" on="0"/>
        <pt x="925" y="958" on="0"/>
        <pt x="891" y="900" on="0"/>
        <pt x="822" y="844" on="0"/>
        <pt x="773" y="829" on="1"/>
        <pt x="822" y="820" on="0"/>
        <pt x="886" y="771" on="0"/>
        <pt x="914" y="699" on="0"/>
        <pt x="924" y="638" on="0"/>
        <pt x="924" y="600" on="1"/>
        <pt x="924" y="205" on="0"/>
        <pt x="920" y="0" on="1"/>
        <pt x="576" y="0" on="1"/>
        <pt x="576" y="621" on="1"/>
        <pt x="576" y="658" on="0"/>
        <pt x="561" y="702" on="0"/>
        <pt x="520" y="721" on="0"/>
        <pt x="482" y="725" on="0"/>
      </contour>
      <contour>
        <pt x="445" y="1298" on="1"/>
        <pt x="445" y="1001" on="1"/>
        <pt x="533" y="1001" on="1"/>
        <pt x="603" y="1001" on="0"/>
        <pt x="603" y="1147" on="1"/>
        <pt x="603" y="1244" on="0"/>
        <pt x="548" y="1298" on="0"/>
        <pt x="464" y="1298" on="1"/>
      </contour>
    </TTGlyph>
    <TTGlyph name="Racute" xMin="87" yMin="0" xMax="947" yMax="2173">
      <component glyphName="acute" x="316" y="139" flags="0x1004"/>
      <component glyphName="R" x="0" y="0" flags="0x1204"/>
    </TTGlyph>
    <TTGlyph name="Rcaron" xMin="32" yMin="0" xMax="947" yMax="2135">
      <component glyphName="caron" x="-8" y="141" flags="0x1004"/>
      <component glyphName="R" x="0" y="0" flags="0x1204"/>
    </TTGlyph>
    <TTGlyph name="Rcommaaccent" xMin="87" yMin="-656" xMax="947" yMax="1593">
      <component glyphName="comma" x="258" y="-421" flags="0x1004"/>
      <component glyphName="R" x="0" y="0" flags="0x1204"/>
    </TTGlyph>
    <TTGlyph name="S" xMin="48" yMin="-18" xMax="912" yMax="1607">
      <contour>
        <pt x="502" y="-18" on="1"/>
        <pt x="257" y="-18" on="0"/>
        <pt x="48" y="206" on="0"/>
        <pt x="48" y="440" on="1"/>
        <pt x="48" y="596" on="1"/>
        <pt x="396" y="596" on="1"/>
        <pt x="396" y="453" on="1"/>
        <pt x="396" y="299" on="0"/>
        <pt x="480" y="299" on="1"/>
        <pt x="519" y="299" on="0"/>
        <pt x="564" y="359" on="0"/>
        <pt x="564" y="408" on="1"/>
        <pt x="564" y="472" on="0"/>
        <pt x="529" y="560" on="0"/>
        <pt x="458" y="639" on="0"/>
        <pt x="377" y="709" on="1"/>
        <pt x="228" y="838" on="1"/>
        <pt x="48" y="993" on="0"/>
        <pt x="48" y="1188" on="1"/>
        <pt x="48" y="1400" on="0"/>
        <pt x="265" y="1607" on="0"/>
        <pt x="455" y="1607" on="1"/>
        <pt x="460" y="1607" on="0"/>
        <pt x="468" y="1607" on="0"/>
        <pt x="566" y="1607" on="0"/>
        <pt x="720" y="1562" on="0"/>
        <pt x="840" y="1457" on="0"/>
        <pt x="900" y="1270" on="0"/>
        <pt x="900" y="1135" on="1"/>
        <pt x="543" y="1135" on="1"/>
        <pt x="541" y="1231" on="1"/>
        <pt x="540" y="1258" on="0"/>
        <pt x="496" y="1300" on="0"/>
        <pt x="469" y="1300" on="1"/>
        <pt x="434" y="1300" on="0"/>
        <pt x="385" y="1257" on="0"/>
        <pt x="385" y="1223" on="1"/>
        <pt x="385" y="1155" on="0"/>
        <pt x="484" y="1075" on="1"/>
        <pt x="697" y="903" on="1"/>
        <pt x="749" y="861" on="0"/>
        <pt x="826" y="774" on="0"/>
        <pt x="871" y="689" on="0"/>
        <pt x="899" y="620" on="0"/>
        <pt x="910" y="539" on="0"/>
        <pt x="912" y="498" on="0"/>
        <pt x="912" y="465" on="1"/>
        <pt x="912" y="381" on="0"/>
        <pt x="890" y="244" on="0"/>
        <pt x="834" y="117" on="0"/>
        <pt x="743" y="32" on="0"/>
        <pt x="598" y="-18" on="0"/>
      </contour>
    </TTGlyph>
    <TTGlyph name="Sacute" xMin="48" yMin="-18" xMax="912" yMax="2173">
      <component glyphName="acute" x="328" y="139" flags="0x1004"/>
      <component glyphName="S" x="0" y="0" flags="0x1204"/>
    </TTGlyph>
    <TTGlyph name="Scaron" xMin="41" yMin="-18" xMax="931" yMax="2135">
      <component glyphName="caron" x="1" y="141" flags="0x1004"/>
      <component glyphName="S" x="0" y="0" flags="0x1204"/>
    </TTGlyph>
    <TTGlyph name="Scedilla" xMin="48" yMin="-631" xMax="912" yMax="1607">
      <component glyphName="S" x="0" y="0" flags="0x1204"/>
      <component glyphName="cedilla" x="0" y="0" flags="0x1004"/>
    </TTGlyph>
    <TTGlyph name="Scircumflex" xMin="41" yMin="-18" xMax="931" yMax="2135">
      <component glyphName="circumflex" x="1" y="141" flags="0x1004"/>
      <component glyphName="S" x="0" y="0" flags="0x1204"/>
    </TTGlyph>
    <TTGlyph name="Scommaaccent" xMin="48" yMin="-674" xMax="912" yMax="1607">
      <component glyphName="comma" x="257" y="-439" flags="0x1004"/>
      <component glyphName="S" x="0" y="0" flags="0x1204"/>
    </TTGlyph>
    <TTGlyph name="Sigma" xMin="62" yMin="0" xMax="826" yMax="1501">
      <contour>
        <pt x="272" y="751" on="1"/>
        <pt x="62" y="1229" on="1"/>
        <pt x="62" y="1501" on="1"/>
        <pt x="826" y="1501" on="1"/>
        <pt x="826" y="1200" on="1"/>
        <pt x="434" y="1200" on="1"/>
        <pt x="647" y="751" on="1"/>
        <pt x="434" y="301" on="1"/>
        <pt x="826" y="301" on="1"/>
        <pt x="826" y="0" on="1"/>
        <pt x="62" y="0" on="1"/>
        <pt x="62" y="272" on="1"/>
      </contour>
    </TTGlyph>
    <TTGlyph name="T" xMin="20" yMin="0" xMax="790" yMax="1593">
      <contour>
        <pt x="20" y="1593" on="1"/>
        <pt x="790" y="1593" on="1"/>
        <pt x="790" y="1286" on="1"/>
        <pt x="581" y="1286" on="1"/>
        <pt x="581" y="0" on="1"/>
        <pt x="229" y="0" on="1"/>
        <pt x="229" y="1286" on="1"/>
        <pt x="20" y="1286" on="1"/>
      </contour>
    </TTGlyph>
    <TTGlyph name="Tbar" xMin="20" yMin="0" xMax="790" yMax="1593">
      <contour>
        <pt x="20" y="1593" on="1"/>
        <pt x="790" y="1593" on="1"/>
        <pt x="790" y="1286" on="1"/>
        <pt x="581" y="1286" on="1"/>
        <pt x="581" y="911" on="1"/>
        <pt x="690" y="911" on="1"/>
        <pt x="690" y="663" on="1"/>
        <pt x="581" y="663" on="1"/>
        <pt x="581" y="0" on="1"/>
        <pt x="229" y="0" on="1"/>
        <pt x="229" y="663" on="1"/>
        <pt x="120" y="663" on="1"/>
        <pt x="120" y="911" on="1"/>
        <pt x="229" y="911" on="1"/>
        <pt x="229" y="1286" on="1"/>
        <pt x="20" y="1286" on="1"/>
      </contour>
    </TTGlyph>
    <TTGlyph name="Tcaron" xMin="-40" yMin="0" xMax="850" yMax="2135">
      <component glyphName="caron" x="-80" y="141" flags="0x1004"/>
      <component glyphName="T" x="0" y="0" flags="0x1204"/>
    </TTGlyph>
    <TTGlyph name="Tcommaaccent" xMin="20" yMin="-656" xMax="790" yMax="1593">
      <contour>
        <pt x="20" y="1593" on="1"/>
        <pt x="790" y="1593" on="1"/>
        <pt x="790" y="1286" on="1"/>
        <pt x="581" y="1286" on="1"/>
        <pt x="581" y="0" on="1"/>
        <pt x="229" y="0" on="1"/>
        <pt x="229" y="1286" on="1"/>
        <pt x="20" y="1286" on="1"/>
      </contour>
      <contour>
        <pt x="218" y="-420" on="1"/>
        <pt x="218" y="-122" on="1"/>
        <pt x="592" y="-122" on="1"/>
        <pt x="592" y="-411" on="1"/>
        <pt x="490" y="-656" on="1"/>
        <pt x="279" y="-656" on="1"/>
        <pt x="345" y="-420" on="1"/>
      </contour>
    </TTGlyph>
    <TTGlyph name="Thorn" xMin="87" yMin="0" xMax="943" yMax="1593">
      <contour>
        <pt x="87" y="0" on="1"/>
        <pt x="87" y="1593" on="1"/>
        <pt x="432" y="1593" on="1"/>
        <pt x="432" y="1418" on="1"/>
        <pt x="552" y="1418" on="1"/>
        <pt x="644" y="1418" on="0"/>
        <pt x="782" y="1365" on="0"/>
        <pt x="888" y="1244" on="0"/>
        <pt x="943" y="1028" on="0"/>
        <pt x="943" y="875" on="1"/>
        <pt x="943" y="771" on="0"/>
        <pt x="923" y="612" on="0"/>
        <pt x="873" y="474" on="0"/>
        <pt x="791" y="386" on="0"/>
        <pt x="662" y="336" on="0"/>
        <pt x="576" y="336" on="1"/>
        <pt x="433" y="336" on="1"/>
        <pt x="433" y="0" on="1"/>
      </contour>
      <contour>
        <pt x="433" y="1128" on="1"/>
        <pt x="433" y="623" on="1"/>
        <pt x="453" y="623" on="1"/>
        <pt x="487" y="623" on="0"/>
        <pt x="520" y="628" on="0"/>
        <pt x="563" y="654" on="0"/>
        <pt x="581" y="707" on="0"/>
        <pt x="595" y="806" on="0"/>
        <pt x="595" y="881" on="1"/>
        <pt x="595" y="1021" on="0"/>
        <pt x="540" y="1128" on="0"/>
        <pt x="472" y="1128" on="1"/>
      </contour>
    </TTGlyph>
    <TTGlyph name="U" xMin="82" yMin="-18" xMax="938" yMax="1593">
      <contour>
        <pt x="82" y="422" on="1"/>
        <pt x="82" y="1593" on="1"/>
        <pt x="424" y="1593" on="1"/>
        <pt x="424" y="453" on="1"/>
        <pt x="424" y="451" on="0"/>
        <pt x="424" y="446" on="1"/>
        <pt x="424" y="420" on="0"/>
        <pt x="425" y="390" on="0"/>
        <pt x="434" y="338" on="0"/>
        <pt x="451" y="308" on="0"/>
        <pt x="485" y="285" on="0"/>
        <pt x="510" y="285" on="1"/>
        <pt x="531" y="285" on="0"/>
        <pt x="562" y="299" on="0"/>
        <pt x="580" y="328" on="0"/>
        <pt x="591" y="355" on="0"/>
        <pt x="595" y="400" on="0"/>
        <pt x="596" y="424" on="0"/>
        <pt x="596" y="446" on="1"/>
        <pt x="596" y="451" on="0"/>
        <pt x="596" y="453" on="1"/>
        <pt x="596" y="1593" on="1"/>
        <pt x="938" y="1593" on="1"/>
        <pt x="938" y="422" on="1"/>
        <pt x="938" y="206" on="0"/>
        <pt x="731" y="-18" on="0"/>
        <pt x="512" y="-17" on="1"/>
        <pt x="289" y="-18" on="0"/>
        <pt x="82" y="206" on="0"/>
      </contour>
    </TTGlyph>
    <TTGlyph name="Uacute" xMin="82" yMin="-18" xMax="938" yMax="2173">
      <component glyphName="acute" x="337" y="139" flags="0x1004"/>
      <component glyphName="U" x="0" y="0" flags="0x1204"/>
    </TTGlyph>
    <TTGlyph name="Ubreve" xMin="76" yMin="-18" xMax="943" yMax="2085">
      <component glyphName="breve" x="7" y="140" flags="0x1004"/>
      <component glyphName="U" x="-1" y="0" flags="0x1204"/>
    </TTGlyph>
    <TTGlyph name="Ucircumflex" xMin="65" yMin="-18" xMax="955" yMax="2135">
      <component glyphName="circumflex" x="25" y="141" flags="0x1004"/>
      <component glyphName="U" x="0" y="0" flags="0x1204"/>
    </TTGlyph>
    <TTGlyph name="Udieresis" xMin="82" yMin="-18" xMax="938" yMax="2030">
      <component glyphName="dieresis" x="22" y="141" flags="0x1004"/>
      <component glyphName="U" x="0" y="0" flags="0x1204"/>
    </TTGlyph>
    <TTGlyph name="Ugrave" xMin="82" yMin="-18" xMax="938" yMax="2173">
      <component glyphName="grave" x="148" y="179" flags="0x1004"/>
      <component glyphName="U" x="0" y="0" flags="0x1204"/>
    </TTGlyph>
    <TTGlyph name="Uhungarumlaut" xMin="82" yMin="-18" xMax="950" yMax="2269">
      <component glyphName="hungarumlaut" x="-64" y="496" flags="0x1004"/>
      <component glyphName="U" x="0" y="0" flags="0x1204"/>
    </TTGlyph>
    <TTGlyph name="Umacron" xMin="82" yMin="-18" xMax="938" yMax="1980">
      <component glyphName="macron" x="265" y="140" flags="0x1004"/>
      <component glyphName="U" x="0" y="0" flags="0x1204"/>
    </TTGlyph>
    <TTGlyph name="Uogonek" xMin="82" yMin="-631" xMax="938" yMax="1593">
      <component glyphName="U" x="0" y="0" flags="0x1204"/>
      <component glyphName="ogonek" x="-124" y="0" flags="0x1004"/>
    </TTGlyph>
    <TTGlyph name="Uring" xMin="82" yMin="-18" xMax="938" yMax="2408">
      <component glyphName="ring" x="108" y="1620" flags="0x1004"/>
      <component glyphName="U" x="0" y="0" flags="0x1204"/>
    </TTGlyph>
    <TTGlyph name="Utilde" xMin="82" yMin="-18" xMax="938" yMax="2118">
      <component glyphName="tilde" x="13" y="130" flags="0x1004"/>
      <component glyphName="U" x="0" y="0" flags="0x1204"/>
    </TTGlyph>
    <TTGlyph name="V" xMin="9" yMin="0" xMax="923" yMax="1593">
      <contour>
        <pt x="706" y="0" on="1"/>
        <pt x="226" y="0" on="1"/>
        <pt x="9" y="1593" on="1"/>
        <pt x="364" y="1593" on="1"/>
        <pt x="463" y="537" on="1"/>
        <pt x="568" y="1593" on="1"/>
        <pt x="923" y="1593" on="1"/>
      </contour>
    </TTGlyph>
    <TTGlyph name="W" xMin="14" yMin="0" xMax="1418" yMax="1593">
      <contour>
        <pt x="455" y="588" on="1"/>
        <pt x="554" y="1593" on="1"/>
        <pt x="882" y="1593" on="1"/>
        <pt x="976" y="588" on="1"/>
        <pt x="1070" y="1593" on="1"/>
        <pt x="1418" y="1593" on="1"/>
        <pt x="1226" y="0" on="1"/>
        <pt x="804" y="0" on="1"/>
        <pt x="716" y="768" on="1"/>
        <pt x="632" y="0" on="1"/>
        <pt x="203" y="0" on="1"/>
        <pt x="14" y="1593" on="1"/>
        <pt x="358" y="1593" on="1"/>
      </contour>
    </TTGlyph>
    <TTGlyph name="Wacute" xMin="14" yMin="0" xMax="1418" yMax="2173">
      <component glyphName="acute" x="715" y="139" flags="0x1004"/>
      <component glyphName="W" x="0" y="0" flags="0x1204"/>
    </TTGlyph>
    <TTGlyph name="Wcircumflex" xMin="14" yMin="0" xMax="1418" yMax="2135">
      <component glyphName="circumflex" x="231" y="141" flags="0x1004"/>
      <component glyphName="W" x="0" y="0" flags="0x1204"/>
    </TTGlyph>
    <TTGlyph name="Wdieresis" xMin="14" yMin="0" xMax="1418" yMax="2030">
      <component glyphName="dieresis" x="228" y="141" flags="0x1004"/>
      <component glyphName="W" x="0" y="0" flags="0x1204"/>
    </TTGlyph>
    <TTGlyph name="Wgrave" xMin="14" yMin="0" xMax="1418" yMax="2173">
      <component glyphName="grave" x="190" y="179" flags="0x1004"/>
      <component glyphName="W" x="0" y="0" flags="0x1204"/>
    </TTGlyph>
    <TTGlyph name="X" xMin="6" yMin="0" xMax="944" yMax="1593">
      <contour>
        <pt x="477" y="623" on="1"/>
        <pt x="363" y="0" on="1"/>
        <pt x="6" y="0" on="1"/>
        <pt x="195" y="846" on="1"/>
        <pt x="45" y="1593" on="1"/>
        <pt x="389" y="1593" on="1"/>
        <pt x="480" y="1049" on="1"/>
        <pt x="561" y="1593" on="1"/>
        <pt x="906" y="1593" on="1"/>
        <pt x="756" y="846" on="1"/>
        <pt x="944" y="0" on="1"/>
        <pt x="588" y="0" on="1"/>
      </contour>
    </TTGlyph>
    <TTGlyph name="Y" xMin="-17" yMin="0" xMax="876" yMax="1593">
      <contour>
        <pt x="596" y="0" on="1"/>
        <pt x="264" y="0" on="1"/>
        <pt x="264" y="524" on="1"/>
        <pt x="-17" y="1593" on="1"/>
        <pt x="332" y="1593" on="1"/>
        <pt x="430" y="1053" on="1"/>
        <pt x="528" y="1593" on="1"/>
        <pt x="876" y="1593" on="1"/>
        <pt x="596" y="524" on="1"/>
      </contour>
    </TTGlyph>
    <TTGlyph name="Yacute" xMin="-17" yMin="0" xMax="876" yMax="2173">
      <component glyphName="acute" x="388" y="139" flags="0x1004"/>
      <component glyphName="Y" x="0" y="0" flags="0x1204"/>
    </TTGlyph>
    <TTGlyph name="Ycircumflex" xMin="-17" yMin="0" xMax="876" yMax="2135">
      <component glyphName="circumflex" x="-56" y="141" flags="0x1004"/>
      <component glyphName="Y" x="0" y="0" flags="0x1204"/>
    </TTGlyph>
    <TTGlyph name="Ydieresis" xMin="-17" yMin="0" xMax="876" yMax="2030">
      <component glyphName="dieresis" x="-58" y="141" flags="0x1004"/>
      <component glyphName="Y" x="0" y="0" flags="0x1204"/>
    </TTGlyph>
    <TTGlyph name="Ygrave" xMin="-45" yMin="0" xMax="876" yMax="2173">
      <component glyphName="grave" x="-96" y="179" flags="0x1004"/>
      <component glyphName="Y" x="0" y="0" flags="0x1204"/>
    </TTGlyph>
    <TTGlyph name="Z" xMin="34" yMin="0" xMax="847" yMax="1593">
      <contour>
        <pt x="34" y="0" on="1"/>
        <pt x="34" y="303" on="1"/>
        <pt x="456" y="1284" on="1"/>
        <pt x="73" y="1284" on="1"/>
        <pt x="73" y="1593" on="1"/>
        <pt x="847" y="1593" on="1"/>
        <pt x="847" y="1296" on="1"/>
        <pt x="417" y="307" on="1"/>
        <pt x="830" y="307" on="1"/>
        <pt x="830" y="0" on="1"/>
      </contour>
    </TTGlyph>
    <TTGlyph name="Zacute" xMin="34" yMin="0" xMax="847" yMax="2173">
      <component glyphName="acute" x="308" y="139" flags="0x1004"/>
      <component glyphName="Z" x="0" y="0" flags="0x1204"/>
    </TTGlyph>
    <TTGlyph name="Zcaron" xMin="15" yMin="0" xMax="905" yMax="2135">
      <component glyphName="caron" x="-25" y="141" flags="0x1004"/>
      <component glyphName="Z" x="0" y="0" flags="0x1204"/>
    </TTGlyph>
    <TTGlyph name="Zdotaccent" xMin="34" yMin="0" xMax="847" yMax="2030">
      <component glyphName="dotaccent" x="214" y="140" flags="0x1004"/>
      <component glyphName="Z" x="0" y="0" flags="0x1204"/>
    </TTGlyph>
    <TTGlyph name="a" xMin="41" yMin="-18" xMax="924" yMax="1518">
      <contour>
        <pt x="41" y="430" on="1"/>
        <pt x="41" y="629" on="0"/>
        <pt x="100" y="729" on="1"/>
        <pt x="151" y="815" on="0"/>
        <pt x="277" y="874" on="1"/>
        <pt x="341" y="904" on="0"/>
        <pt x="563" y="980" on="1"/>
        <pt x="563" y="981" on="0"/>
        <pt x="563" y="983" on="1"/>
        <pt x="563" y="1015" on="0"/>
        <pt x="562" y="1055" on="0"/>
        <pt x="561" y="1105" on="0"/>
        <pt x="559" y="1135" on="0"/>
        <pt x="555" y="1171" on="0"/>
        <pt x="550" y="1190" on="0"/>
        <pt x="541" y="1213" on="0"/>
        <pt x="530" y="1225" on="0"/>
        <pt x="516" y="1235" on="0"/>
        <pt x="497" y="1239" on="0"/>
        <pt x="486" y="1239" on="1"/>
        <pt x="412" y="1239" on="0"/>
        <pt x="412" y="1157" on="1"/>
        <pt x="412" y="1056" on="1"/>
        <pt x="64" y="1056" on="1"/>
        <pt x="63" y="1073" on="0"/>
        <pt x="63" y="1105" on="1"/>
        <pt x="63" y="1319" on="0"/>
        <pt x="266" y="1518" on="0"/>
        <pt x="504" y="1518" on="1"/>
        <pt x="581" y="1518" on="0"/>
        <pt x="725" y="1475" on="0"/>
        <pt x="849" y="1390" on="0"/>
        <pt x="924" y="1240" on="0"/>
        <pt x="924" y="1143" on="1"/>
        <pt x="924" y="0" on="1"/>
        <pt x="568" y="0" on="1"/>
        <pt x="568" y="156" on="1"/>
        <pt x="550" y="90" on="0"/>
        <pt x="420" y="-18" on="0"/>
        <pt x="345" y="-18" on="1"/>
        <pt x="291" y="-18" on="0"/>
        <pt x="209" y="1" on="0"/>
        <pt x="127" y="59" on="0"/>
        <pt x="74" y="156" on="0"/>
        <pt x="41" y="319" on="0"/>
      </contour>
      <contour>
        <pt x="406" y="570" on="1"/>
        <pt x="406" y="395" on="1"/>
        <pt x="406" y="262" on="0"/>
        <pt x="486" y="262" on="1"/>
        <pt x="508" y="262" on="0"/>
        <pt x="540" y="286" on="0"/>
        <pt x="556" y="324" on="0"/>
        <pt x="562" y="360" on="0"/>
        <pt x="562" y="379" on="1"/>
        <pt x="562" y="774" on="1"/>
        <pt x="470" y="737" on="0"/>
        <pt x="406" y="638" on="0"/>
      </contour>
    </TTGlyph>
    <TTGlyph name="aacute" xMin="41" yMin="-18" xMax="924" yMax="2081">
      <component glyphName="acute" x="363" y="47" flags="0x1004"/>
      <component glyphName="a" x="0" y="0" flags="0x1204"/>
    </TTGlyph>
    <TTGlyph name="abreve" xMin="41" yMin="-18" xMax="938" yMax="1993">
      <component glyphName="breve" x="2" y="48" flags="0x1004"/>
      <component glyphName="a" x="0" y="0" flags="0x1204"/>
    </TTGlyph>
    <TTGlyph name="acircumflex" xMin="41" yMin="-18" xMax="949" yMax="2043">
      <component glyphName="circumflex" x="19" y="49" flags="0x1004"/>
      <component glyphName="a" x="0" y="0" flags="0x1204"/>
    </TTGlyph>
    <TTGlyph name="acute" xMin="1" yMin="1593" xMax="476" yMax="2034">
      <contour>
        <pt x="1" y="1593" on="1"/>
        <pt x="1" y="1816" on="1"/>
        <pt x="476" y="2034" on="1"/>
        <pt x="476" y="1687" on="1"/>
      </contour>
    </TTGlyph>
    <TTGlyph name="adieresis" xMin="41" yMin="-18" xMax="925" yMax="1938">
      <component glyphName="dieresis" x="16" y="49" flags="0x1004"/>
      <component glyphName="a" x="0" y="0" flags="0x1204"/>
    </TTGlyph>
    <TTGlyph name="ae" xMin="36" yMin="-18" xMax="1444" yMax="1518">
      <contour>
        <pt x="1034" y="-18" on="1"/>
        <pt x="973" y="-18" on="0"/>
        <pt x="868" y="18" on="0"/>
        <pt x="808" y="62" on="0"/>
        <pt x="761" y="119" on="0"/>
        <pt x="749" y="141" on="0"/>
        <pt x="746" y="148" on="1"/>
        <pt x="738" y="131" on="1"/>
        <pt x="730" y="114" on="0"/>
        <pt x="707" y="90" on="1"/>
        <pt x="685" y="66" on="0"/>
        <pt x="621" y="16" on="0"/>
        <pt x="512" y="-18" on="0"/>
        <pt x="447" y="-18" on="1"/>
        <pt x="397" y="-18" on="0"/>
        <pt x="299" y="1" on="0"/>
        <pt x="182" y="60" on="0"/>
        <pt x="95" y="154" on="0"/>
        <pt x="36" y="321" on="0"/>
        <pt x="36" y="430" on="1"/>
        <pt x="36" y="630" on="0"/>
        <pt x="95" y="729" on="1"/>
        <pt x="146" y="815" on="0"/>
        <pt x="272" y="874" on="1"/>
        <pt x="336" y="904" on="0"/>
        <pt x="558" y="980" on="1"/>
        <pt x="558" y="981" on="0"/>
        <pt x="558" y="983" on="1"/>
        <pt x="558" y="1015" on="0"/>
        <pt x="557" y="1055" on="0"/>
        <pt x="556" y="1105" on="0"/>
        <pt x="554" y="1135" on="0"/>
        <pt x="550" y="1171" on="0"/>
        <pt x="545" y="1190" on="0"/>
        <pt x="536" y="1213" on="0"/>
        <pt x="525" y="1225" on="0"/>
        <pt x="511" y="1235" on="0"/>
        <pt x="492" y="1239" on="0"/>
        <pt x="481" y="1239" on="1"/>
        <pt x="407" y="1239" on="0"/>
        <pt x="407" y="1157" on="1"/>
        <pt x="407" y="1056" on="1"/>
        <pt x="59" y="1056" on="1"/>
        <pt x="58" y="1073" on="0"/>
        <pt x="58" y="1105" on="1"/>
        <pt x="58" y="1319" on="0"/>
        <pt x="261" y="1518" on="0"/>
        <pt x="499" y="1518" on="1"/>
        <pt x="663" y="1518" on="0"/>
        <pt x="745" y="1396" on="1"/>
        <pt x="825" y="1518" on="0"/>
        <pt x="1012" y="1518" on="1"/>
        <pt x="1444" y="1518" on="0"/>
        <pt x="1444" y="1092" on="1"/>
        <pt x="1444" y="983" on="1"/>
        <pt x="1444" y="780" on="0"/>
        <pt x="1440" y="704" on="1"/>
        <pt x="919" y="704" on="1"/>
        <pt x="919" y="494" on="1"/>
        <pt x="919" y="260" on="0"/>
        <pt x="1006" y="260" on="1"/>
        <pt x="1025" y="260" on="0"/>
        <pt x="1055" y="279" on="0"/>
        <pt x="1073" y="317" on="0"/>
        <pt x="1084" y="356" on="0"/>
        <pt x="1089" y="414" on="0"/>
        <pt x="1090" y="454" on="0"/>
        <pt x="1090" y="483" on="1"/>
        <pt x="1090" y="571" on="0"/>
        <pt x="1088" y="579" on="1"/>
        <pt x="1444" y="579" on="1"/>
        <pt x="1444" y="494" on="1"/>
        <pt x="1444" y="395" on="0"/>
        <pt x="1424" y="246" on="0"/>
        <pt x="1369" y="113" on="0"/>
        <pt x="1278" y="30" on="0"/>
        <pt x="1133" y="-18" on="0"/>
      </contour>
      <contour>
        <pt x="401" y="570" on="1"/>
        <pt x="401" y="395" on="1"/>
        <pt x="401" y="262" on="0"/>
        <pt x="481" y="262" on="1"/>
        <pt x="503" y="262" on="0"/>
        <pt x="535" y="286" on="0"/>
        <pt x="551" y="324" on="0"/>
        <pt x="557" y="360" on="0"/>
        <pt x="557" y="379" on="1"/>
        <pt x="557" y="774" on="1"/>
        <pt x="465" y="737" on="0"/>
        <pt x="401" y="638" on="0"/>
      </contour>
      <contour>
        <pt x="1008" y="1249" on="1"/>
        <pt x="957" y="1249" on="0"/>
        <pt x="919" y="1169" on="0"/>
        <pt x="919" y="1052" on="1"/>
        <pt x="919" y="931" on="1"/>
        <pt x="1088" y="931" on="1"/>
        <pt x="1088" y="1087" on="1"/>
        <pt x="1088" y="1249" on="0"/>
      </contour>
    </TTGlyph>
    <TTGlyph name="aeacute" xMin="36" yMin="-18" xMax="1444" yMax="2081">
      <component glyphName="acute" x="714" y="47" flags="0x1004"/>
      <component glyphName="ae" x="0" y="0" flags="0x1204"/>
    </TTGlyph>
    <TTGlyph name="agrave" xMin="41" yMin="-18" xMax="924" yMax="2081">
      <component glyphName="grave" x="90" y="87" flags="0x1004"/>
      <component glyphName="a" x="0" y="0" flags="0x1204"/>
    </TTGlyph>
    <TTGlyph name="amacron" xMin="41" yMin="-18" xMax="924" yMax="1888">
      <component glyphName="macron" x="259" y="48" flags="0x1004"/>
      <component glyphName="a" x="0" y="0" flags="0x1204"/>
    </TTGlyph>
    <TTGlyph name="ampersand" xMin="30" yMin="-21" xMax="1000" yMax="1582">
      <contour>
        <pt x="30" y="386" on="1"/>
        <pt x="30" y="432" on="0"/>
        <pt x="32" y="488" on="0"/>
        <pt x="41" y="580" on="0"/>
        <pt x="59" y="646" on="0"/>
        <pt x="94" y="734" on="0"/>
        <pt x="143" y="806" on="0"/>
        <pt x="219" y="885" on="0"/>
        <pt x="268" y="921" on="1"/>
        <pt x="225" y="1006" on="0"/>
        <pt x="168" y="1191" on="0"/>
        <pt x="168" y="1262" on="1"/>
        <pt x="168" y="1416" on="0"/>
        <pt x="368" y="1582" on="0"/>
        <pt x="516" y="1582" on="1"/>
        <pt x="581" y="1582" on="0"/>
        <pt x="701" y="1545" on="0"/>
        <pt x="801" y="1472" on="0"/>
        <pt x="861" y="1350" on="0"/>
        <pt x="861" y="1273" on="1"/>
        <pt x="861" y="1063" on="0"/>
        <pt x="626" y="875" on="1"/>
        <pt x="689" y="726" on="1"/>
        <pt x="748" y="878" on="0"/>
        <pt x="861" y="961" on="1"/>
        <pt x="1000" y="744" on="1"/>
        <pt x="883" y="651" on="0"/>
        <pt x="803" y="432" on="1"/>
        <pt x="982" y="0" on="1"/>
        <pt x="642" y="0" on="1"/>
        <pt x="605" y="97" on="1"/>
        <pt x="560" y="41" on="0"/>
        <pt x="424" y="-21" on="0"/>
        <pt x="351" y="-21" on="1"/>
        <pt x="289" y="-21" on="0"/>
        <pt x="177" y="26" on="0"/>
        <pt x="85" y="120" on="0"/>
        <pt x="30" y="281" on="0"/>
      </contour>
      <contour>
        <pt x="336" y="423" on="1"/>
        <pt x="336" y="420" on="0"/>
        <pt x="336" y="413" on="1"/>
        <pt x="336" y="380" on="0"/>
        <pt x="338" y="339" on="0"/>
        <pt x="350" y="271" on="0"/>
        <pt x="382" y="235" on="0"/>
        <pt x="407" y="235" on="1"/>
        <pt x="428" y="235" on="0"/>
        <pt x="465" y="256" on="0"/>
        <pt x="485" y="282" on="0"/>
        <pt x="503" y="317" on="0"/>
        <pt x="507" y="330" on="0"/>
        <pt x="508" y="334" on="1"/>
        <pt x="386" y="625" on="1"/>
        <pt x="374" y="606" on="1"/>
        <pt x="361" y="588" on="0"/>
        <pt x="336" y="487" on="0"/>
      </contour>
      <contour>
        <pt x="492" y="1273" on="1"/>
        <pt x="492" y="1219" on="0"/>
        <pt x="535" y="1110" on="1"/>
        <pt x="552" y="1128" on="1"/>
        <pt x="570" y="1147" on="0"/>
        <pt x="605" y="1229" on="0"/>
        <pt x="605" y="1273" on="1"/>
        <pt x="605" y="1336" on="0"/>
        <pt x="546" y="1336" on="1"/>
        <pt x="521" y="1336" on="0"/>
        <pt x="492" y="1299" on="0"/>
      </contour>
    </TTGlyph>
    <TTGlyph name="aogonek" xMin="41" yMin="-631" xMax="924" yMax="1518">
      <component glyphName="a" x="0" y="0" flags="0x1204"/>
      <component glyphName="ogonek" x="72" y="0" flags="0x1004"/>
    </TTGlyph>
    <TTGlyph name="approxequal" xMin="40" yMin="776" xMax="974" yMax="1222">
      <contour>
        <pt x="360" y="886" on="1"/>
        <pt x="316" y="886" on="0"/>
        <pt x="282" y="807" on="1"/>
        <pt x="40" y="923" on="1"/>
        <pt x="161" y="1222" on="0"/>
        <pt x="370" y="1222" on="1"/>
        <pt x="415" y="1222" on="0"/>
        <pt x="518" y="1168" on="0"/>
        <pt x="615" y="1114" on="0"/>
        <pt x="653" y="1114" on="1"/>
        <pt x="697" y="1114" on="0"/>
        <pt x="732" y="1193" on="1"/>
        <pt x="974" y="1077" on="1"/>
        <pt x="851" y="776" on="0"/>
        <pt x="642" y="776" on="1"/>
        <pt x="601" y="776" on="0"/>
        <pt x="518" y="810" on="0"/>
        <pt x="460" y="852" on="0"/>
        <pt x="389" y="886" on="0"/>
      </contour>
    </TTGlyph>
    <TTGlyph name="aring" xMin="41" yMin="-18" xMax="924" yMax="2316">
      <component glyphName="ring" x="102" y="1528" flags="0x1004"/>
      <component glyphName="a" x="0" y="0" flags="0x1204"/>
    </TTGlyph>
    <TTGlyph name="asciicircum" xMin="40" yMin="432" xMax="930" yMax="1355">
      <contour>
        <pt x="689" y="1355" on="1"/>
        <pt x="930" y="432" on="1"/>
        <pt x="571" y="432" on="1"/>
        <pt x="485" y="1027" on="1"/>
        <pt x="399" y="432" on="1"/>
        <pt x="40" y="432" on="1"/>
        <pt x="281" y="1355" on="1"/>
      </contour>
    </TTGlyph>
    <TTGlyph name="asciitilde" xMin="12" yMin="776" xMax="946" yMax="1222">
      <contour>
        <pt x="332" y="886" on="1"/>
        <pt x="288" y="886" on="0"/>
        <pt x="254" y="807" on="1"/>
        <pt x="12" y="923" on="1"/>
        <pt x="133" y="1222" on="0"/>
        <pt x="342" y="1222" on="1"/>
        <pt x="387" y="1222" on="0"/>
        <pt x="490" y="1168" on="0"/>
        <pt x="587" y="1114" on="0"/>
        <pt x="625" y="1114" on="1"/>
        <pt x="669" y="1114" on="0"/>
        <pt x="704" y="1193" on="1"/>
        <pt x="946" y="1077" on="1"/>
        <pt x="823" y="776" on="0"/>
        <pt x="614" y="776" on="1"/>
        <pt x="573" y="776" on="0"/>
        <pt x="490" y="810" on="0"/>
        <pt x="432" y="852" on="0"/>
        <pt x="361" y="886" on="0"/>
      </contour>
    </TTGlyph>
    <TTGlyph name="asterisk" xMin="46" yMin="741" xMax="900" yMax="1593">
      <contour>
        <pt x="162" y="1480" on="1"/>
        <pt x="400" y="1301" on="1"/>
        <pt x="357" y="1593" on="1"/>
        <pt x="589" y="1593" on="1"/>
        <pt x="554" y="1307" on="1"/>
        <pt x="784" y="1480" on="1"/>
        <pt x="900" y="1280" on="1"/>
        <pt x="625" y="1171" on="1"/>
        <pt x="900" y="1054" on="1"/>
        <pt x="784" y="854" on="1"/>
        <pt x="553" y="1036" on="1"/>
        <pt x="589" y="741" on="1"/>
        <pt x="357" y="741" on="1"/>
        <pt x="401" y="1043" on="1"/>
        <pt x="162" y="854" on="1"/>
        <pt x="46" y="1054" on="1"/>
        <pt x="320" y="1171" on="1"/>
        <pt x="46" y="1280" on="1"/>
      </contour>
    </TTGlyph>
    <TTGlyph name="at" xMin="53" yMin="-64" xMax="1793" yMax="1630">
      <contour>
        <pt x="834" y="718" on="1"/>
        <pt x="834" y="646" on="0"/>
        <pt x="876" y="570" on="0"/>
        <pt x="914" y="570" on="1"/>
        <pt x="936" y="570" on="0"/>
        <pt x="968" y="594" on="0"/>
        <pt x="984" y="632" on="0"/>
        <pt x="990" y="668" on="0"/>
        <pt x="990" y="687" on="1"/>
        <pt x="990" y="972" on="1"/>
        <pt x="957" y="972" on="0"/>
        <pt x="908" y="959" on="0"/>
        <pt x="874" y="941" on="0"/>
        <pt x="852" y="900" on="0"/>
        <pt x="840" y="870" on="0"/>
        <pt x="835" y="803" on="0"/>
        <pt x="834" y="762" on="0"/>
      </contour>
      <contour>
        <pt x="1163" y="224" on="1"/>
        <pt x="1207" y="-37" on="1"/>
        <pt x="1020" y="-64" on="0"/>
        <pt x="882" y="-64" on="1"/>
        <pt x="458" y="-64" on="0"/>
        <pt x="53" y="333" on="0"/>
        <pt x="53" y="726" on="1"/>
        <pt x="53" y="878" on="0"/>
        <pt x="100" y="1127" on="0"/>
        <pt x="185" y="1313" on="0"/>
        <pt x="316" y="1454" on="0"/>
        <pt x="474" y="1548" on="0"/>
        <pt x="677" y="1606" on="0"/>
        <pt x="893" y="1630" on="0"/>
        <pt x="1024" y="1630" on="1"/>
        <pt x="1188" y="1630" on="0"/>
        <pt x="1453" y="1542" on="0"/>
        <pt x="1626" y="1395" on="0"/>
        <pt x="1743" y="1195" on="0"/>
        <pt x="1793" y="982" on="0"/>
        <pt x="1793" y="867" on="1"/>
        <pt x="1793" y="577" on="0"/>
        <pt x="1576" y="268" on="0"/>
        <pt x="1377" y="268" on="1"/>
        <pt x="1225" y="268" on="0"/>
        <pt x="1052" y="376" on="0"/>
        <pt x="1016" y="494" on="1"/>
        <pt x="956" y="326" on="0"/>
        <pt x="760" y="326" on="1"/>
        <pt x="709" y="326" on="0"/>
        <pt x="620" y="368" on="0"/>
        <pt x="543" y="455" on="0"/>
        <pt x="499" y="613" on="0"/>
        <pt x="499" y="718" on="1"/>
        <pt x="499" y="963" on="0"/>
        <pt x="660" y="1209" on="0"/>
        <pt x="798" y="1209" on="1"/>
        <pt x="903" y="1209" on="0"/>
        <pt x="1011" y="1114" on="1"/>
        <pt x="1051" y="1226" on="1"/>
        <pt x="1312" y="1226" on="1"/>
        <pt x="1312" y="621" on="1"/>
        <pt x="1312" y="566" on="0"/>
        <pt x="1362" y="497" on="0"/>
        <pt x="1393" y="497" on="1"/>
        <pt x="1443" y="497" on="0"/>
        <pt x="1507" y="727" on="0"/>
        <pt x="1507" y="888" on="1"/>
        <pt x="1507" y="959" on="0"/>
        <pt x="1481" y="1087" on="0"/>
        <pt x="1413" y="1215" on="0"/>
        <pt x="1309" y="1307" on="0"/>
        <pt x="1137" y="1365" on="0"/>
        <pt x="1027" y="1365" on="1"/>
        <pt x="964" y="1365" on="0"/>
        <pt x="871" y="1361" on="0"/>
        <pt x="753" y="1347" on="0"/>
        <pt x="667" y="1321" on="0"/>
        <pt x="570" y="1273" on="0"/>
        <pt x="501" y="1208" on="0"/>
        <pt x="435" y="1110" on="0"/>
        <pt x="395" y="987" on="0"/>
        <pt x="370" y="822" on="0"/>
        <pt x="370" y="723" on="1"/>
        <pt x="370" y="569" on="0"/>
        <pt x="436" y="364" on="0"/>
        <pt x="574" y="251" on="0"/>
        <pt x="755" y="206" on="0"/>
        <pt x="887" y="206" on="1"/>
        <pt x="998" y="206" on="0"/>
      </contour>
    </TTGlyph>
    <TTGlyph name="atilde" xMin="41" yMin="-18" xMax="924" yMax="2026">
      <component glyphName="tilde" x="7" y="38" flags="0x1004"/>
      <component glyphName="a" x="0" y="0" flags="0x1204"/>
    </TTGlyph>
    <TTGlyph name="b" xMin="84" yMin="-18" xMax="979" yMax="1769">
      <contour>
        <pt x="452" y="160" on="1"/>
        <pt x="452" y="0" on="1"/>
        <pt x="84" y="0" on="1"/>
        <pt x="84" y="1769" on="1"/>
        <pt x="452" y="1769" on="1"/>
        <pt x="452" y="1427" on="1"/>
        <pt x="542" y="1519" on="0"/>
        <pt x="652" y="1519" on="1"/>
        <pt x="673" y="1519" on="0"/>
        <pt x="704" y="1518" on="0"/>
        <pt x="759" y="1510" on="0"/>
        <pt x="800" y="1495" on="0"/>
        <pt x="854" y="1467" on="0"/>
        <pt x="894" y="1427" on="0"/>
        <pt x="936" y="1365" on="0"/>
        <pt x="962" y="1287" on="0"/>
        <pt x="979" y="1178" on="0"/>
        <pt x="979" y="1114" on="1"/>
        <pt x="979" y="391" on="1"/>
        <pt x="979" y="312" on="0"/>
        <pt x="951" y="184" on="0"/>
        <pt x="908" y="101" on="0"/>
        <pt x="846" y="38" on="0"/>
        <pt x="790" y="6" on="0"/>
        <pt x="724" y="-13" on="0"/>
        <pt x="683" y="-18" on="0"/>
        <pt x="663" y="-18" on="1"/>
        <pt x="518" y="-18" on="0"/>
      </contour>
      <contour>
        <pt x="452" y="1085" on="1"/>
        <pt x="452" y="457" on="1"/>
        <pt x="452" y="344" on="0"/>
        <pt x="497" y="263" on="0"/>
        <pt x="542" y="263" on="1"/>
        <pt x="586" y="263" on="0"/>
        <pt x="616" y="339" on="0"/>
        <pt x="616" y="457" on="1"/>
        <pt x="616" y="1081" on="1"/>
        <pt x="616" y="1174" on="0"/>
        <pt x="578" y="1239" on="0"/>
        <pt x="540" y="1239" on="1"/>
        <pt x="501" y="1239" on="0"/>
        <pt x="452" y="1175" on="0"/>
      </contour>
    </TTGlyph>
    <TTGlyph name="backslash" xMin="29" yMin="0" xMax="803" yMax="1767">
      <contour>
        <pt x="440" y="0" on="1"/>
        <pt x="29" y="1767" on="1"/>
        <pt x="393" y="1767" on="1"/>
        <pt x="803" y="0" on="1"/>
      </contour>
    </TTGlyph>
    <TTGlyph name="bar" xMin="95" yMin="-84" xMax="414" yMax="1683">
      <contour>
        <pt x="414" y="-84" on="1"/>
        <pt x="95" y="-84" on="1"/>
        <pt x="95" y="1683" on="1"/>
        <pt x="414" y="1683" on="1"/>
      </contour>
    </TTGlyph>
    <TTGlyph name="braceleft" xMin="22" yMin="-18" xMax="652" yMax="1623">
      <contour>
        <pt x="161" y="1225" on="1"/>
        <pt x="161" y="1416" on="0"/>
        <pt x="413" y="1616" on="0"/>
        <pt x="652" y="1623" on="1"/>
        <pt x="652" y="1356" on="1"/>
        <pt x="604" y="1353" on="0"/>
        <pt x="543" y="1336" on="0"/>
        <pt x="519" y="1309" on="0"/>
        <pt x="513" y="1289" on="0"/>
        <pt x="513" y="1272" on="1"/>
        <pt x="513" y="1179" on="0"/>
        <pt x="497" y="1041" on="0"/>
        <pt x="475" y="956" on="0"/>
        <pt x="423" y="879" on="0"/>
        <pt x="385" y="839" on="0"/>
        <pt x="343" y="802" on="1"/>
        <pt x="384" y="766" on="0"/>
        <pt x="424" y="726" on="0"/>
        <pt x="475" y="650" on="0"/>
        <pt x="497" y="566" on="0"/>
        <pt x="513" y="430" on="0"/>
        <pt x="513" y="338" on="1"/>
        <pt x="512" y="323" on="0"/>
        <pt x="514" y="309" on="0"/>
        <pt x="528" y="281" on="0"/>
        <pt x="555" y="267" on="0"/>
        <pt x="611" y="252" on="0"/>
        <pt x="652" y="249" on="1"/>
        <pt x="652" y="-18" on="1"/>
        <pt x="413" y="-11" on="0"/>
        <pt x="161" y="183" on="0"/>
        <pt x="161" y="370" on="1"/>
        <pt x="161" y="376" on="0"/>
        <pt x="161" y="387" on="1"/>
        <pt x="161" y="427" on="0"/>
        <pt x="161" y="462" on="0"/>
        <pt x="159" y="521" on="0"/>
        <pt x="156" y="544" on="0"/>
        <pt x="149" y="586" on="0"/>
        <pt x="139" y="602" on="0"/>
        <pt x="123" y="629" on="0"/>
        <pt x="104" y="639" on="0"/>
        <pt x="76" y="656" on="0"/>
        <pt x="43" y="665" on="0"/>
        <pt x="22" y="669" on="1"/>
        <pt x="22" y="936" on="1"/>
        <pt x="49" y="941" on="0"/>
        <pt x="87" y="952" on="0"/>
        <pt x="118" y="974" on="0"/>
        <pt x="137" y="989" on="0"/>
        <pt x="151" y="1028" on="0"/>
        <pt x="157" y="1054" on="0"/>
        <pt x="161" y="1118" on="0"/>
        <pt x="161" y="1161" on="0"/>
        <pt x="161" y="1208" on="1"/>
        <pt x="161" y="1219" on="0"/>
      </contour>
    </TTGlyph>
    <TTGlyph name="braceright" xMin="47" yMin="-18" xMax="677" yMax="1623">
      <contour>
        <pt x="538" y="1225" on="1"/>
        <pt x="538" y="1219" on="0"/>
        <pt x="538" y="1208" on="1"/>
        <pt x="538" y="1161" on="0"/>
        <pt x="538" y="1118" on="0"/>
        <pt x="542" y="1054" on="0"/>
        <pt x="548" y="1028" on="0"/>
        <pt x="562" y="989" on="0"/>
        <pt x="581" y="974" on="0"/>
        <pt x="612" y="952" on="0"/>
        <pt x="650" y="941" on="0"/>
        <pt x="677" y="936" on="1"/>
        <pt x="677" y="669" on="1"/>
        <pt x="656" y="665" on="0"/>
        <pt x="623" y="656" on="0"/>
        <pt x="595" y="639" on="0"/>
        <pt x="576" y="629" on="0"/>
        <pt x="560" y="602" on="0"/>
        <pt x="550" y="586" on="0"/>
        <pt x="543" y="544" on="0"/>
        <pt x="540" y="521" on="0"/>
        <pt x="538" y="462" on="0"/>
        <pt x="538" y="427" on="0"/>
        <pt x="538" y="387" on="1"/>
        <pt x="538" y="376" on="0"/>
        <pt x="538" y="370" on="1"/>
        <pt x="538" y="183" on="0"/>
        <pt x="286" y="-11" on="0"/>
        <pt x="47" y="-18" on="1"/>
        <pt x="47" y="249" on="1"/>
        <pt x="88" y="252" on="0"/>
        <pt x="144" y="267" on="0"/>
        <pt x="171" y="281" on="0"/>
        <pt x="185" y="309" on="0"/>
        <pt x="186" y="323" on="0"/>
        <pt x="186" y="338" on="1"/>
        <pt x="186" y="430" on="0"/>
        <pt x="202" y="566" on="0"/>
        <pt x="224" y="650" on="0"/>
        <pt x="275" y="726" on="0"/>
        <pt x="315" y="766" on="0"/>
        <pt x="356" y="802" on="1"/>
        <pt x="314" y="839" on="0"/>
        <pt x="276" y="879" on="0"/>
        <pt x="224" y="956" on="0"/>
        <pt x="202" y="1041" on="0"/>
        <pt x="186" y="1179" on="0"/>
        <pt x="186" y="1272" on="1"/>
        <pt x="186" y="1289" on="0"/>
        <pt x="180" y="1309" on="0"/>
        <pt x="156" y="1336" on="0"/>
        <pt x="95" y="1353" on="0"/>
        <pt x="47" y="1356" on="1"/>
        <pt x="47" y="1623" on="1"/>
        <pt x="286" y="1616" on="0"/>
        <pt x="538" y="1416" on="0"/>
      </contour>
    </TTGlyph>
    <TTGlyph name="bracketleft" xMin="96" yMin="0" xMax="650" yMax="1593">
      <contour>
        <pt x="448" y="1312" on="1"/>
        <pt x="448" y="281" on="1"/>
        <pt x="650" y="281" on="1"/>
        <pt x="650" y="0" on="1"/>
        <pt x="96" y="0" on="1"/>
        <pt x="96" y="1593" on="1"/>
        <pt x="650" y="1593" on="1"/>
        <pt x="650" y="1312" on="1"/>
      </contour>
    </TTGlyph>
    <TTGlyph name="bracketright" xMin="49" yMin="0" xMax="603" yMax="1593">
      <contour>
        <pt x="251" y="1312" on="1"/>
        <pt x="49" y="1312" on="1"/>
        <pt x="49" y="1593" on="1"/>
        <pt x="603" y="1593" on="1"/>
        <pt x="603" y="0" on="1"/>
        <pt x="49" y="0" on="1"/>
        <pt x="49" y="281" on="1"/>
        <pt x="251" y="281" on="1"/>
      </contour>
    </TTGlyph>
    <TTGlyph name="breve" xMin="69" yMin="1592" xMax="936" yMax="1945">
      <contour>
        <pt x="450" y="1832" on="0"/>
        <pt x="556" y="1832" on="0"/>
        <pt x="618" y="1886" on="0"/>
        <pt x="618" y="1944" on="1"/>
        <pt x="618" y="1945" on="0"/>
        <pt x="934" y="1945" on="1"/>
        <pt x="936" y="1921" on="0"/>
        <pt x="936" y="1910" on="1"/>
        <pt x="936" y="1762" on="0"/>
        <pt x="707" y="1592" on="0"/>
        <pt x="501" y="1592" on="1"/>
        <pt x="299" y="1592" on="0"/>
        <pt x="69" y="1759" on="0"/>
        <pt x="69" y="1903" on="1"/>
        <pt x="69" y="1924" on="0"/>
        <pt x="72" y="1945" on="1"/>
        <pt x="388" y="1944" on="1"/>
        <pt x="388" y="1886" on="0"/>
      </contour>
    </TTGlyph>
    <TTGlyph name="brokenbar" xMin="97" yMin="-84" xMax="416" yMax="1683">
      <contour>
        <pt x="416" y="-84" on="1"/>
        <pt x="97" y="-84" on="1"/>
        <pt x="97" y="676" on="1"/>
        <pt x="416" y="676" on="1"/>
      </contour>
      <contour>
        <pt x="416" y="923" on="1"/>
        <pt x="97" y="923" on="1"/>
        <pt x="97" y="1683" on="1"/>
        <pt x="416" y="1683" on="1"/>
      </contour>
    </TTGlyph>
    <TTGlyph name="bullet" xMin="41" yMin="403" xMax="668" yMax="1079">
      <contour>
        <pt x="124" y="494" on="1"/>
        <pt x="41" y="585" on="0"/>
        <pt x="41" y="897" on="0"/>
        <pt x="208" y="1079" on="0"/>
        <pt x="500" y="1079" on="0"/>
        <pt x="668" y="897" on="0"/>
        <pt x="668" y="585" on="0"/>
        <pt x="500" y="403" on="0"/>
        <pt x="208" y="403" on="0"/>
      </contour>
    </TTGlyph>
    <TTGlyph name="c" xMin="59" yMin="-18" xMax="952" yMax="1518">
      <contour>
        <pt x="59" y="492" on="1"/>
        <pt x="59" y="954" on="1"/>
        <pt x="59" y="1258" on="0"/>
        <pt x="269" y="1518" on="0"/>
        <pt x="517" y="1518" on="1"/>
        <pt x="710" y="1518" on="0"/>
        <pt x="952" y="1314" on="0"/>
        <pt x="952" y="1135" on="1"/>
        <pt x="952" y="879" on="1"/>
        <pt x="587" y="879" on="1"/>
        <pt x="587" y="1116" on="1"/>
        <pt x="587" y="1172" on="0"/>
        <pt x="554" y="1239" on="0"/>
        <pt x="507" y="1239" on="1"/>
        <pt x="419" y="1239" on="0"/>
        <pt x="419" y="1114" on="1"/>
        <pt x="419" y="387" on="1"/>
        <pt x="419" y="341" on="0"/>
        <pt x="459" y="264" on="0"/>
        <pt x="505" y="264" on="1"/>
        <pt x="518" y="264" on="0"/>
        <pt x="543" y="274" on="0"/>
        <pt x="572" y="298" on="0"/>
        <pt x="589" y="351" on="0"/>
        <pt x="589" y="389" on="1"/>
        <pt x="587" y="614" on="1"/>
        <pt x="952" y="614" on="1"/>
        <pt x="952" y="379" on="1"/>
        <pt x="952" y="194" on="0"/>
        <pt x="713" y="-18" on="0"/>
        <pt x="522" y="-18" on="1"/>
        <pt x="434" y="-18" on="0"/>
        <pt x="292" y="16" on="0"/>
        <pt x="197" y="71" on="0"/>
        <pt x="127" y="155" on="0"/>
        <pt x="88" y="239" on="0"/>
        <pt x="65" y="348" on="0"/>
        <pt x="59" y="437" on="0"/>
      </contour>
    </TTGlyph>
    <TTGlyph name="cacute" xMin="59" yMin="-18" xMax="952" yMax="2081">
      <component glyphName="acute" x="380" y="47" flags="0x1004"/>
      <component glyphName="c" x="0" y="0" flags="0x1204"/>
    </TTGlyph>
    <TTGlyph name="caron" xMin="40" yMin="1591" xMax="930" yMax="1994">
      <contour>
        <pt x="689" y="1591" on="1"/>
        <pt x="281" y="1591" on="1"/>
        <pt x="40" y="1994" on="1"/>
        <pt x="399" y="1994" on="1"/>
        <pt x="485" y="1709" on="1"/>
        <pt x="571" y="1994" on="1"/>
        <pt x="930" y="1994" on="1"/>
      </contour>
    </TTGlyph>
    <TTGlyph name="ccaron" xMin="59" yMin="-18" xMax="962" yMax="2043">
      <component glyphName="caron" x="32" y="49" flags="0x1004"/>
      <component glyphName="c" x="0" y="0" flags="0x1204"/>
    </TTGlyph>
    <TTGlyph name="ccedilla" xMin="60" yMin="-631" xMax="953" yMax="1518">
      <contour>
        <pt x="60" y="954" on="1"/>
        <pt x="60" y="1258" on="0"/>
        <pt x="270" y="1518" on="0"/>
        <pt x="518" y="1518" on="1"/>
        <pt x="711" y="1518" on="0"/>
        <pt x="953" y="1314" on="0"/>
        <pt x="953" y="1135" on="1"/>
        <pt x="953" y="879" on="1"/>
        <pt x="588" y="879" on="1"/>
        <pt x="588" y="1116" on="1"/>
        <pt x="588" y="1172" on="0"/>
        <pt x="555" y="1239" on="0"/>
        <pt x="508" y="1239" on="1"/>
        <pt x="420" y="1239" on="0"/>
        <pt x="420" y="1114" on="1"/>
        <pt x="420" y="387" on="1"/>
        <pt x="420" y="341" on="0"/>
        <pt x="460" y="264" on="0"/>
        <pt x="506" y="264" on="1"/>
        <pt x="519" y="264" on="0"/>
        <pt x="544" y="274" on="0"/>
        <pt x="573" y="298" on="0"/>
        <pt x="590" y="351" on="0"/>
        <pt x="590" y="389" on="1"/>
        <pt x="588" y="614" on="1"/>
        <pt x="953" y="614" on="1"/>
        <pt x="953" y="379" on="1"/>
        <pt x="953" y="194" on="0"/>
        <pt x="714" y="-18" on="0"/>
        <pt x="523" y="-18" on="1"/>
        <pt x="435" y="-18" on="0"/>
        <pt x="293" y="16" on="0"/>
        <pt x="198" y="71" on="0"/>
        <pt x="128" y="155" on="0"/>
        <pt x="89" y="239" on="0"/>
        <pt x="66" y="348" on="0"/>
        <pt x="60" y="437" on="0"/>
        <pt x="60" y="492" on="1"/>
      </contour>
      <contour>
        <pt x="233" y="-591" on="1"/>
        <pt x="233" y="-368" on="1"/>
        <pt x="299" y="-391" on="0"/>
        <pt x="349" y="-391" on="1"/>
        <pt x="402" y="-391" on="0"/>
        <pt x="464" y="-337" on="0"/>
        <pt x="464" y="-279" on="1"/>
        <pt x="464" y="-223" on="0"/>
        <pt x="379" y="-122" on="0"/>
        <pt x="304" y="-106" on="1"/>
        <pt x="304" y="0" on="1"/>
        <pt x="515" y="0" on="1"/>
        <pt x="515" y="-76" on="1"/>
        <pt x="642" y="-93" on="0"/>
        <pt x="779" y="-237" on="0"/>
        <pt x="779" y="-330" on="1"/>
        <pt x="779" y="-469" on="0"/>
        <pt x="578" y="-631" on="0"/>
        <pt x="431" y="-631" on="1"/>
        <pt x="329" y="-631" on="0"/>
      </contour>
    </TTGlyph>
    <TTGlyph name="ccircumflex" xMin="59" yMin="-18" xMax="962" yMax="2043">
      <component glyphName="circumflex" x="32" y="49" flags="0x1004"/>
      <component glyphName="c" x="0" y="0" flags="0x1204"/>
    </TTGlyph>
    <TTGlyph name="cdotaccent" xMin="59" yMin="-18" xMax="952" yMax="1938">
      <component glyphName="dotaccent" x="271" y="48" flags="0x1004"/>
      <component glyphName="c" x="0" y="0" flags="0x1204"/>
    </TTGlyph>
    <TTGlyph name="cedilla" xMin="306" yMin="-631" xMax="852" yMax="0">
      <contour>
        <pt x="306" y="-591" on="1"/>
        <pt x="306" y="-368" on="1"/>
        <pt x="372" y="-391" on="0"/>
        <pt x="422" y="-391" on="1"/>
        <pt x="475" y="-391" on="0"/>
        <pt x="537" y="-337" on="0"/>
        <pt x="537" y="-279" on="1"/>
        <pt x="537" y="-223" on="0"/>
        <pt x="452" y="-122" on="0"/>
        <pt x="377" y="-106" on="1"/>
        <pt x="377" y="0" on="1"/>
        <pt x="588" y="0" on="1"/>
        <pt x="588" y="-76" on="1"/>
        <pt x="715" y="-93" on="0"/>
        <pt x="852" y="-237" on="0"/>
        <pt x="852" y="-330" on="1"/>
        <pt x="852" y="-469" on="0"/>
        <pt x="651" y="-631" on="0"/>
        <pt x="504" y="-631" on="1"/>
        <pt x="402" y="-631" on="0"/>
      </contour>
    </TTGlyph>
    <TTGlyph name="cent" xMin="60" yMin="-113" xMax="953" yMax="1607">
      <contour>
        <pt x="434" y="-113" on="1"/>
        <pt x="434" y="-13" on="1"/>
        <pt x="363" y="-5" on="0"/>
        <pt x="249" y="38" on="0"/>
        <pt x="172" y="96" on="0"/>
        <pt x="115" y="178" on="0"/>
        <pt x="84" y="257" on="0"/>
        <pt x="65" y="359" on="0"/>
        <pt x="60" y="441" on="0"/>
        <pt x="60" y="492" on="1"/>
        <pt x="60" y="954" on="1"/>
        <pt x="60" y="1232" on="0"/>
        <pt x="233" y="1494" on="0"/>
        <pt x="434" y="1514" on="1"/>
        <pt x="434" y="1607" on="1"/>
        <pt x="607" y="1607" on="1"/>
        <pt x="607" y="1511" on="1"/>
        <pt x="764" y="1489" on="0"/>
        <pt x="953" y="1292" on="0"/>
        <pt x="953" y="1135" on="1"/>
        <pt x="953" y="879" on="1"/>
        <pt x="588" y="879" on="1"/>
        <pt x="588" y="1116" on="1"/>
        <pt x="588" y="1172" on="0"/>
        <pt x="555" y="1239" on="0"/>
        <pt x="508" y="1239" on="1"/>
        <pt x="420" y="1239" on="0"/>
        <pt x="420" y="1114" on="1"/>
        <pt x="420" y="387" on="1"/>
        <pt x="420" y="341" on="0"/>
        <pt x="460" y="264" on="0"/>
        <pt x="506" y="264" on="1"/>
        <pt x="519" y="264" on="0"/>
        <pt x="544" y="274" on="0"/>
        <pt x="573" y="298" on="0"/>
        <pt x="590" y="351" on="0"/>
        <pt x="590" y="389" on="1"/>
        <pt x="588" y="614" on="1"/>
        <pt x="953" y="614" on="1"/>
        <pt x="953" y="379" on="1"/>
        <pt x="953" y="216" on="0"/>
        <pt x="764" y="10" on="0"/>
        <pt x="607" y="-12" on="1"/>
        <pt x="607" y="-113" on="1"/>
      </contour>
    </TTGlyph>
    <TTGlyph name="circumflex" xMin="40" yMin="1591" xMax="930" yMax="1994">
      <contour>
        <pt x="689" y="1994" on="1"/>
        <pt x="930" y="1591" on="1"/>
        <pt x="571" y="1591" on="1"/>
        <pt x="485" y="1876" on="1"/>
        <pt x="399" y="1591" on="1"/>
        <pt x="40" y="1591" on="1"/>
        <pt x="281" y="1994" on="1"/>
      </contour>
    </TTGlyph>
    <TTGlyph name="colon" xMin="86" yMin="237" xMax="444" yMax="1274">
      <contour>
        <pt x="86" y="237" on="1"/>
        <pt x="86" y="535" on="1"/>
        <pt x="444" y="535" on="1"/>
        <pt x="444" y="237" on="1"/>
      </contour>
      <contour>
        <pt x="86" y="976" on="1"/>
        <pt x="86" y="1274" on="1"/>
        <pt x="444" y="1274" on="1"/>
        <pt x="444" y="976" on="1"/>
      </contour>
    </TTGlyph>
    <TTGlyph name="comma" xMin="58" yMin="-235" xMax="432" yMax="299">
      <contour>
        <pt x="58" y="1" on="1"/>
        <pt x="58" y="299" on="1"/>
        <pt x="432" y="299" on="1"/>
        <pt x="432" y="10" on="1"/>
        <pt x="330" y="-235" on="1"/>
        <pt x="119" y="-235" on="1"/>
        <pt x="185" y="1" on="1"/>
      </contour>
    </TTGlyph>
    <TTGlyph name="copyright" xMin="48" yMin="205" xMax="1362" yMax="1519">
      <contour>
        <pt x="274" y="1126" on="1"/>
        <pt x="207" y="1005" on="0"/>
        <pt x="207" y="719" on="0"/>
        <pt x="341" y="476" on="0"/>
        <pt x="570" y="334" on="0"/>
        <pt x="840" y="334" on="0"/>
        <pt x="1069" y="476" on="0"/>
        <pt x="1203" y="719" on="0"/>
        <pt x="1203" y="1005" on="0"/>
        <pt x="1069" y="1248" on="0"/>
        <pt x="840" y="1390" on="0"/>
        <pt x="570" y="1390" on="0"/>
        <pt x="341" y="1248" on="0"/>
      </contour>
      <contour>
        <pt x="136" y="532" on="1"/>
        <pt x="48" y="683" on="0"/>
        <pt x="48" y="1041" on="0"/>
        <pt x="224" y="1343" on="0"/>
        <pt x="526" y="1519" on="0"/>
        <pt x="884" y="1519" on="0"/>
        <pt x="1186" y="1343" on="0"/>
        <pt x="1362" y="1041" on="0"/>
        <pt x="1362" y="683" on="0"/>
        <pt x="1186" y="381" on="0"/>
        <pt x="884" y="205" on="0"/>
        <pt x="526" y="205" on="0"/>
        <pt x="224" y="381" on="0"/>
      </contour>
      <contour>
        <pt x="942" y="806" on="1"/>
        <pt x="942" y="643" on="1"/>
        <pt x="942" y="424" on="0"/>
        <pt x="699" y="424" on="1"/>
        <pt x="597" y="424" on="0"/>
        <pt x="469" y="540" on="0"/>
        <pt x="469" y="648" on="1"/>
        <pt x="469" y="1049" on="1"/>
        <pt x="469" y="1178" on="0"/>
        <pt x="582" y="1305" on="0"/>
        <pt x="703" y="1305" on="1"/>
        <pt x="806" y="1305" on="0"/>
        <pt x="938" y="1204" on="0"/>
        <pt x="938" y="1105" on="1"/>
        <pt x="938" y="952" on="1"/>
        <pt x="749" y="952" on="1"/>
        <pt x="749" y="1053" on="1"/>
        <pt x="749" y="1130" on="0"/>
        <pt x="703" y="1130" on="1"/>
        <pt x="676" y="1130" on="0"/>
        <pt x="659" y="1096" on="0"/>
        <pt x="659" y="1066" on="1"/>
        <pt x="659" y="657" on="1"/>
        <pt x="659" y="631" on="0"/>
        <pt x="684" y="592" on="0"/>
        <pt x="703" y="592" on="1"/>
        <pt x="749" y="592" on="0"/>
        <pt x="749" y="657" on="1"/>
        <pt x="749" y="806" on="1"/>
      </contour>
    </TTGlyph>
    <TTGlyph name="currency" xMin="53" yMin="509" xMax="962" yMax="1418">
      <contour>
        <pt x="507" y="545" on="1"/>
        <pt x="383" y="545" on="0"/>
        <pt x="291" y="598" on="1"/>
        <pt x="202" y="509" on="1"/>
        <pt x="53" y="659" on="1"/>
        <pt x="144" y="750" on="1"/>
        <pt x="91" y="848" on="0"/>
        <pt x="91" y="964" on="1"/>
        <pt x="91" y="1081" on="0"/>
        <pt x="143" y="1178" on="1"/>
        <pt x="53" y="1268" on="1"/>
        <pt x="202" y="1418" on="1"/>
        <pt x="289" y="1330" on="1"/>
        <pt x="386" y="1385" on="0"/>
        <pt x="507" y="1385" on="1"/>
        <pt x="627" y="1385" on="0"/>
        <pt x="725" y="1331" on="1"/>
        <pt x="812" y="1418" on="1"/>
        <pt x="962" y="1269" on="1"/>
        <pt x="872" y="1179" on="1"/>
        <pt x="926" y="1082" on="0"/>
        <pt x="926" y="846" on="0"/>
        <pt x="872" y="748" on="1"/>
        <pt x="962" y="658" on="1"/>
        <pt x="812" y="509" on="1"/>
        <pt x="723" y="597" on="1"/>
        <pt x="630" y="545" on="0"/>
      </contour>
      <contour>
        <pt x="507" y="1186" on="1"/>
        <pt x="409" y="1186" on="0"/>
        <pt x="299" y="1054" on="0"/>
        <pt x="299" y="964" on="1"/>
        <pt x="299" y="873" on="0"/>
        <pt x="409" y="741" on="0"/>
        <pt x="605" y="741" on="0"/>
        <pt x="716" y="875" on="0"/>
        <pt x="716" y="966" on="1"/>
        <pt x="716" y="1059" on="0"/>
        <pt x="606" y="1186" on="0"/>
      </contour>
    </TTGlyph>
    <TTGlyph name="d" xMin="64" yMin="-18" xMax="952" yMax="1767">
      <contour>
        <pt x="64" y="477" on="1"/>
        <pt x="68" y="1153" on="1"/>
        <pt x="68" y="1225" on="0"/>
        <pt x="106" y="1354" on="0"/>
        <pt x="180" y="1457" on="0"/>
        <pt x="301" y="1518" on="0"/>
        <pt x="377" y="1518" on="1"/>
        <pt x="520" y="1518" on="0"/>
        <pt x="594" y="1419" on="1"/>
        <pt x="594" y="1767" on="1"/>
        <pt x="952" y="1767" on="1"/>
        <pt x="952" y="0" on="1"/>
        <pt x="594" y="0" on="1"/>
        <pt x="594" y="159" on="1"/>
        <pt x="556" y="58" on="0"/>
        <pt x="443" y="-18" on="0"/>
        <pt x="371" y="-18" on="1"/>
        <pt x="319" y="-18" on="0"/>
        <pt x="234" y="1" on="0"/>
        <pt x="173" y="42" on="0"/>
        <pt x="126" y="91" on="0"/>
        <pt x="96" y="165" on="0"/>
        <pt x="77" y="236" on="0"/>
        <pt x="67" y="335" on="0"/>
        <pt x="64" y="420" on="0"/>
      </contour>
      <contour>
        <pt x="422" y="1083" on="1"/>
        <pt x="422" y="520" on="1"/>
        <pt x="422" y="515" on="0"/>
        <pt x="422" y="494" on="1"/>
        <pt x="422" y="466" on="0"/>
        <pt x="422" y="460" on="1"/>
        <pt x="422" y="458" on="0"/>
        <pt x="422" y="454" on="0"/>
        <pt x="422" y="452" on="1"/>
        <pt x="422" y="264" on="0"/>
        <pt x="508" y="264" on="1"/>
        <pt x="524" y="264" on="0"/>
        <pt x="549" y="276" on="0"/>
        <pt x="567" y="301" on="0"/>
        <pt x="580" y="325" on="0"/>
        <pt x="588" y="367" on="0"/>
        <pt x="593" y="396" on="0"/>
        <pt x="594" y="445" on="0"/>
        <pt x="595" y="468" on="0"/>
        <pt x="594" y="515" on="0"/>
        <pt x="594" y="520" on="1"/>
        <pt x="594" y="1083" on="1"/>
        <pt x="594" y="1106" on="0"/>
        <pt x="589" y="1150" on="0"/>
        <pt x="573" y="1205" on="0"/>
        <pt x="537" y="1239" on="0"/>
        <pt x="510" y="1239" on="1"/>
        <pt x="482" y="1239" on="0"/>
        <pt x="444" y="1211" on="0"/>
        <pt x="428" y="1160" on="0"/>
        <pt x="422" y="1114" on="0"/>
      </contour>
    </TTGlyph>
    <TTGlyph name="dagger" xMin="47" yMin="0" xMax="774" yMax="1592">
      <contour>
        <pt x="594" y="0" on="1"/>
        <pt x="230" y="0" on="1"/>
        <pt x="230" y="996" on="1"/>
        <pt x="47" y="996" on="1"/>
        <pt x="47" y="1292" on="1"/>
        <pt x="230" y="1292" on="1"/>
        <pt x="230" y="1592" on="1"/>
        <pt x="594" y="1592" on="1"/>
        <pt x="594" y="1292" on="1"/>
        <pt x="774" y="1292" on="1"/>
        <pt x="774" y="996" on="1"/>
        <pt x="594" y="996" on="1"/>
      </contour>
    </TTGlyph>
    <TTGlyph name="daggerdbl" xMin="58" yMin="0" xMax="785" yMax="1592">
      <contour>
        <pt x="605" y="1592" on="1"/>
        <pt x="605" y="1236" on="1"/>
        <pt x="785" y="1236" on="1"/>
        <pt x="785" y="940" on="1"/>
        <pt x="605" y="940" on="1"/>
        <pt x="605" y="646" on="1"/>
        <pt x="785" y="646" on="1"/>
        <pt x="785" y="350" on="1"/>
        <pt x="605" y="350" on="1"/>
        <pt x="605" y="0" on="1"/>
        <pt x="241" y="0" on="1"/>
        <pt x="241" y="350" on="1"/>
        <pt x="58" y="350" on="1"/>
        <pt x="58" y="646" on="1"/>
        <pt x="241" y="646" on="1"/>
        <pt x="241" y="940" on="1"/>
        <pt x="58" y="940" on="1"/>
        <pt x="58" y="1236" on="1"/>
        <pt x="241" y="1236" on="1"/>
        <pt x="241" y="1592" on="1"/>
      </contour>
    </TTGlyph>
    <TTGlyph name="dcaron" xMin="64" yMin="-18" xMax="1462" yMax="1767">
      <component glyphName="d" x="0" y="0" flags="0x1004"/>
      <component glyphName="quoteright" x="1036" y="0" flags="0x1004"/>
    </TTGlyph>
    <TTGlyph name="dcroat" xMin="64" yMin="-18" xMax="1005" yMax="1767">
      <contour>
        <pt x="64" y="477" on="1"/>
        <pt x="68" y="1053" on="1"/>
        <pt x="68" y="1125" on="0"/>
        <pt x="106" y="1254" on="0"/>
        <pt x="180" y="1357" on="0"/>
        <pt x="301" y="1418" on="0"/>
        <pt x="377" y="1418" on="1"/>
        <pt x="520" y="1418" on="0"/>
        <pt x="594" y="1319" on="1"/>
        <pt x="594" y="1502" on="1"/>
        <pt x="489" y="1502" on="1"/>
        <pt x="489" y="1674" on="1"/>
        <pt x="594" y="1674" on="1"/>
        <pt x="594" y="1767" on="1"/>
        <pt x="952" y="1767" on="1"/>
        <pt x="952" y="1674" on="1"/>
        <pt x="1005" y="1674" on="1"/>
        <pt x="1005" y="1502" on="1"/>
        <pt x="952" y="1502" on="1"/>
        <pt x="952" y="0" on="1"/>
        <pt x="594" y="0" on="1"/>
        <pt x="594" y="159" on="1"/>
        <pt x="556" y="58" on="0"/>
        <pt x="443" y="-18" on="0"/>
        <pt x="371" y="-18" on="1"/>
        <pt x="319" y="-18" on="0"/>
        <pt x="234" y="1" on="0"/>
        <pt x="173" y="42" on="0"/>
        <pt x="126" y="91" on="0"/>
        <pt x="96" y="165" on="0"/>
        <pt x="77" y="236" on="0"/>
        <pt x="67" y="335" on="0"/>
        <pt x="64" y="420" on="0"/>
      </contour>
      <contour>
        <pt x="422" y="983" on="1"/>
        <pt x="422" y="452" on="1"/>
        <pt x="422" y="264" on="0"/>
        <pt x="508" y="264" on="1"/>
        <pt x="524" y="264" on="0"/>
        <pt x="549" y="276" on="0"/>
        <pt x="567" y="301" on="0"/>
        <pt x="580" y="325" on="0"/>
        <pt x="588" y="367" on="0"/>
        <pt x="593" y="396" on="0"/>
        <pt x="594" y="445" on="0"/>
        <pt x="595" y="468" on="0"/>
        <pt x="594" y="515" on="0"/>
        <pt x="594" y="520" on="1"/>
        <pt x="594" y="983" on="1"/>
        <pt x="594" y="1006" on="0"/>
        <pt x="589" y="1050" on="0"/>
        <pt x="573" y="1105" on="0"/>
        <pt x="537" y="1139" on="0"/>
        <pt x="510" y="1139" on="1"/>
        <pt x="482" y="1139" on="0"/>
        <pt x="444" y="1111" on="0"/>
        <pt x="428" y="1060" on="0"/>
        <pt x="422" y="1014" on="0"/>
      </contour>
    </TTGlyph>
    <TTGlyph name="degree" xMin="37" yMin="931" xMax="744" yMax="1607">
      <contour>
        <pt x="285" y="1379" on="1"/>
        <pt x="249" y="1332" on="0"/>
        <pt x="249" y="1206" on="0"/>
        <pt x="322" y="1112" on="0"/>
        <pt x="460" y="1112" on="0"/>
        <pt x="533" y="1206" on="0"/>
        <pt x="533" y="1332" on="0"/>
        <pt x="460" y="1426" on="0"/>
        <pt x="322" y="1426" on="0"/>
      </contour>
      <contour>
        <pt x="131" y="1022" on="1"/>
        <pt x="37" y="1113" on="0"/>
        <pt x="37" y="1425" on="0"/>
        <pt x="226" y="1607" on="0"/>
        <pt x="554" y="1607" on="0"/>
        <pt x="744" y="1425" on="0"/>
        <pt x="744" y="1113" on="0"/>
        <pt x="554" y="931" on="0"/>
        <pt x="226" y="931" on="0"/>
      </contour>
    </TTGlyph>
    <TTGlyph name="dieresis" xMin="67" yMin="1591" xMax="909" yMax="1889">
      <contour>
        <pt x="67" y="1591" on="1"/>
        <pt x="67" y="1889" on="1"/>
        <pt x="425" y="1889" on="1"/>
        <pt x="425" y="1591" on="1"/>
      </contour>
      <contour>
        <pt x="551" y="1591" on="1"/>
        <pt x="551" y="1889" on="1"/>
        <pt x="909" y="1889" on="1"/>
        <pt x="909" y="1591" on="1"/>
      </contour>
    </TTGlyph>
    <TTGlyph name="divide" xMin="52" yMin="237" xMax="668" yMax="1274">
      <contour>
        <pt x="52" y="638" on="1"/>
        <pt x="52" y="870" on="1"/>
        <pt x="668" y="870" on="1"/>
        <pt x="668" y="638" on="1"/>
      </contour>
      <contour>
        <pt x="211" y="237" on="1"/>
        <pt x="211" y="535" on="1"/>
        <pt x="509" y="535" on="1"/>
        <pt x="509" y="237" on="1"/>
      </contour>
      <contour>
        <pt x="211" y="976" on="1"/>
        <pt x="211" y="1274" on="1"/>
        <pt x="509" y="1274" on="1"/>
        <pt x="509" y="976" on="1"/>
      </contour>
    </TTGlyph>
    <TTGlyph name="dollar" xMin="52" yMin="-113" xMax="929" yMax="1679">
      <contour>
        <pt x="402" y="-113" on="1"/>
        <pt x="402" y="36" on="1"/>
        <pt x="214" y="58" on="0"/>
        <pt x="52" y="279" on="0"/>
        <pt x="52" y="488" on="1"/>
        <pt x="52" y="543" on="1"/>
        <pt x="400" y="543" on="1"/>
        <pt x="400" y="501" on="1"/>
        <pt x="400" y="347" on="0"/>
        <pt x="494" y="347" on="1"/>
        <pt x="533" y="347" on="0"/>
        <pt x="578" y="407" on="0"/>
        <pt x="578" y="456" on="1"/>
        <pt x="578" y="491" on="0"/>
        <pt x="516" y="560" on="1"/>
        <pt x="228" y="849" on="1"/>
        <pt x="70" y="1007" on="0"/>
        <pt x="70" y="1192" on="1"/>
        <pt x="70" y="1327" on="0"/>
        <pt x="249" y="1531" on="0"/>
        <pt x="402" y="1558" on="1"/>
        <pt x="402" y="1679" on="1"/>
        <pt x="575" y="1679" on="1"/>
        <pt x="575" y="1561" on="1"/>
        <pt x="741" y="1540" on="0"/>
        <pt x="924" y="1307" on="0"/>
        <pt x="924" y="1105" on="1"/>
        <pt x="567" y="1105" on="1"/>
        <pt x="565" y="1190" on="1"/>
        <pt x="563" y="1218" on="0"/>
        <pt x="514" y="1259" on="0"/>
        <pt x="483" y="1259" on="1"/>
        <pt x="448" y="1259" on="0"/>
        <pt x="399" y="1216" on="0"/>
        <pt x="399" y="1182" on="1"/>
        <pt x="399" y="1132" on="0"/>
        <pt x="498" y="1034" on="1"/>
        <pt x="778" y="758" on="1"/>
        <pt x="852" y="685" on="0"/>
        <pt x="929" y="504" on="0"/>
        <pt x="929" y="413" on="1"/>
        <pt x="929" y="319" on="0"/>
        <pt x="851" y="159" on="0"/>
        <pt x="688" y="47" on="0"/>
        <pt x="575" y="34" on="1"/>
        <pt x="575" y="-113" on="1"/>
      </contour>
    </TTGlyph>
    <TTGlyph name="dotaccent" xMin="67" yMin="1592" xMax="425" yMax="1890">
      <contour>
        <pt x="67" y="1592" on="1"/>
        <pt x="67" y="1890" on="1"/>
        <pt x="425" y="1890" on="1"/>
        <pt x="425" y="1592" on="1"/>
      </contour>
    </TTGlyph>
    <TTGlyph name="dotlessi" xMin="84" yMin="0" xMax="442" yMax="1500">
      <contour>
        <pt x="84" y="0" on="1"/>
        <pt x="84" y="1500" on="1"/>
        <pt x="442" y="1500" on="1"/>
        <pt x="442" y="0" on="1"/>
      </contour>
    </TTGlyph>
    <TTGlyph name="e" xMin="62" yMin="-18" xMax="944" yMax="1518">
      <contour>
        <pt x="494" y="-18" on="1"/>
        <pt x="414" y="-18" on="0"/>
        <pt x="284" y="15" on="0"/>
        <pt x="195" y="68" on="0"/>
        <pt x="130" y="149" on="0"/>
        <pt x="92" y="233" on="0"/>
        <pt x="69" y="341" on="0"/>
        <pt x="62" y="433" on="0"/>
        <pt x="62" y="489" on="1"/>
        <pt x="62" y="1092" on="1"/>
        <pt x="62" y="1299" on="0"/>
        <pt x="299" y="1518" on="0"/>
        <pt x="512" y="1518" on="1"/>
        <pt x="944" y="1518" on="0"/>
        <pt x="944" y="1092" on="1"/>
        <pt x="944" y="983" on="1"/>
        <pt x="944" y="780" on="0"/>
        <pt x="940" y="704" on="1"/>
        <pt x="420" y="704" on="1"/>
        <pt x="420" y="494" on="1"/>
        <pt x="420" y="484" on="0"/>
        <pt x="419" y="439" on="0"/>
        <pt x="419" y="427" on="1"/>
        <pt x="419" y="391" on="0"/>
        <pt x="425" y="340" on="0"/>
        <pt x="441" y="287" on="0"/>
        <pt x="478" y="260" on="0"/>
        <pt x="506" y="260" on="1"/>
        <pt x="535" y="260" on="0"/>
        <pt x="571" y="301" on="0"/>
        <pt x="586" y="378" on="0"/>
        <pt x="590" y="438" on="0"/>
        <pt x="590" y="483" on="1"/>
        <pt x="590" y="571" on="0"/>
        <pt x="588" y="579" on="1"/>
        <pt x="944" y="579" on="1"/>
        <pt x="944" y="494" on="1"/>
        <pt x="944" y="369" on="0"/>
        <pt x="906" y="193" on="0"/>
        <pt x="809" y="52" on="0"/>
        <pt x="629" y="-18" on="0"/>
      </contour>
      <contour>
        <pt x="508" y="1249" on="1"/>
        <pt x="480" y="1249" on="0"/>
        <pt x="442" y="1220" on="0"/>
        <pt x="424" y="1162" on="0"/>
        <pt x="418" y="1101" on="0"/>
        <pt x="418" y="1057" on="1"/>
        <pt x="418" y="1036" on="0"/>
        <pt x="420" y="952" on="0"/>
        <pt x="420" y="931" on="1"/>
        <pt x="588" y="931" on="1"/>
        <pt x="588" y="1087" on="1"/>
        <pt x="588" y="1249" on="0"/>
      </contour>
    </TTGlyph>
    <TTGlyph name="eacute" xMin="62" yMin="-18" xMax="944" yMax="2081">
      <component glyphName="acute" x="333" y="47" flags="0x1004"/>
      <component glyphName="e" x="0" y="0" flags="0x1204"/>
    </TTGlyph>
    <TTGlyph name="ebreve" xMin="62" yMin="-18" xMax="946" yMax="1993">
      <component glyphName="breve" x="10" y="48" flags="0x1004"/>
      <component glyphName="e" x="0" y="0" flags="0x1204"/>
    </TTGlyph>
    <TTGlyph name="ecaron" xMin="62" yMin="-18" xMax="957" yMax="2043">
      <component glyphName="caron" x="27" y="49" flags="0x1004"/>
      <component glyphName="e" x="0" y="0" flags="0x1204"/>
    </TTGlyph>
    <TTGlyph name="ecircumflex" xMin="62" yMin="-18" xMax="957" yMax="2043">
      <component glyphName="circumflex" x="27" y="49" flags="0x1004"/>
      <component glyphName="e" x="0" y="0" flags="0x1204"/>
    </TTGlyph>
    <TTGlyph name="edieresis" xMin="62" yMin="-18" xMax="944" yMax="1938">
      <component glyphName="dieresis" x="24" y="49" flags="0x1004"/>
      <component glyphName="e" x="0" y="0" flags="0x1204"/>
    </TTGlyph>
    <TTGlyph name="edotaccent" xMin="62" yMin="-18" xMax="944" yMax="1938">
      <component glyphName="dotaccent" x="266" y="48" flags="0x1004"/>
      <component glyphName="e" x="0" y="0" flags="0x1204"/>
    </TTGlyph>
    <TTGlyph name="egrave" xMin="62" yMin="-18" xMax="944" yMax="2081">
      <component glyphName="grave" x="196" y="87" flags="0x1004"/>
      <component glyphName="e" x="0" y="0" flags="0x1204"/>
    </TTGlyph>
    <TTGlyph name="eight" xMin="66" yMin="-18" xMax="990" yMax="1608">
      <contour>
        <pt x="528" y="299" on="1"/>
        <pt x="624" y="299" on="0"/>
        <pt x="624" y="468" on="1"/>
        <pt x="624" y="522" on="0"/>
        <pt x="621" y="618" on="0"/>
        <pt x="603" y="688" on="0"/>
        <pt x="564" y="729" on="0"/>
        <pt x="528" y="729" on="1"/>
        <pt x="492" y="729" on="0"/>
        <pt x="453" y="688" on="0"/>
        <pt x="435" y="618" on="0"/>
        <pt x="432" y="522" on="0"/>
        <pt x="432" y="468" on="1"/>
        <pt x="432" y="299" on="0"/>
      </contour>
      <contour>
        <pt x="528" y="1608" on="1"/>
        <pt x="640" y="1608" on="0"/>
        <pt x="811" y="1561" on="0"/>
        <pt x="928" y="1458" on="0"/>
        <pt x="988" y="1296" on="0"/>
        <pt x="988" y="1181" on="1"/>
        <pt x="988" y="1144" on="0"/>
        <pt x="984" y="1055" on="0"/>
        <pt x="957" y="969" on="0"/>
        <pt x="896" y="895" on="0"/>
        <pt x="839" y="873" on="1"/>
        <pt x="896" y="848" on="0"/>
        <pt x="957" y="774" on="0"/>
        <pt x="985" y="677" on="0"/>
        <pt x="990" y="559" on="0"/>
        <pt x="990" y="490" on="1"/>
        <pt x="990" y="358" on="0"/>
        <pt x="940" y="166" on="0"/>
        <pt x="829" y="42" on="0"/>
        <pt x="653" y="-18" on="0"/>
        <pt x="528" y="-18" on="1"/>
        <pt x="403" y="-18" on="0"/>
        <pt x="227" y="42" on="0"/>
        <pt x="116" y="166" on="0"/>
        <pt x="66" y="358" on="0"/>
        <pt x="66" y="490" on="1"/>
        <pt x="66" y="559" on="0"/>
        <pt x="71" y="677" on="0"/>
        <pt x="99" y="774" on="0"/>
        <pt x="160" y="848" on="0"/>
        <pt x="217" y="873" on="1"/>
        <pt x="160" y="895" on="0"/>
        <pt x="99" y="969" on="0"/>
        <pt x="72" y="1055" on="0"/>
        <pt x="68" y="1144" on="0"/>
        <pt x="68" y="1181" on="1"/>
        <pt x="68" y="1296" on="0"/>
        <pt x="128" y="1458" on="0"/>
        <pt x="245" y="1561" on="0"/>
        <pt x="416" y="1608" on="0"/>
      </contour>
      <contour>
        <pt x="528" y="1314" on="1"/>
        <pt x="500" y="1314" on="0"/>
        <pt x="464" y="1284" on="0"/>
        <pt x="443" y="1239" on="0"/>
        <pt x="435" y="1186" on="0"/>
        <pt x="435" y="1162" on="1"/>
        <pt x="435" y="999" on="0"/>
        <pt x="528" y="999" on="1"/>
        <pt x="621" y="999" on="0"/>
        <pt x="621" y="1162" on="1"/>
        <pt x="621" y="1186" on="0"/>
        <pt x="613" y="1239" on="0"/>
        <pt x="592" y="1284" on="0"/>
        <pt x="556" y="1314" on="0"/>
      </contour>
    </TTGlyph>
    <TTGlyph name="ellipsis" xMin="59" yMin="1" xMax="1399" yMax="299">
      <contour>
        <pt x="59" y="1" on="1"/>
        <pt x="59" y="299" on="1"/>
        <pt x="417" y="299" on="1"/>
        <pt x="417" y="1" on="1"/>
      </contour>
      <contour>
        <pt x="550" y="1" on="1"/>
        <pt x="550" y="299" on="1"/>
        <pt x="908" y="299" on="1"/>
        <pt x="908" y="1" on="1"/>
      </contour>
      <contour>
        <pt x="1041" y="1" on="1"/>
        <pt x="1041" y="299" on="1"/>
        <pt x="1399" y="299" on="1"/>
        <pt x="1399" y="1" on="1"/>
      </contour>
    </TTGlyph>
    <TTGlyph name="emacron" xMin="62" yMin="-18" xMax="944" yMax="1888">
      <component glyphName="macron" x="267" y="48" flags="0x1004"/>
      <component glyphName="e" x="0" y="0" flags="0x1204"/>
    </TTGlyph>
    <TTGlyph name="emdash" xMin="65" yMin="509" xMax="1097" yMax="741">
      <contour>
        <pt x="65" y="741" on="1"/>
        <pt x="1097" y="741" on="1"/>
        <pt x="1097" y="509" on="1"/>
        <pt x="65" y="509" on="1"/>
      </contour>
    </TTGlyph>
    <TTGlyph name="endash" xMin="65" yMin="509" xMax="581" yMax="741">
      <contour>
        <pt x="65" y="509" on="1"/>
        <pt x="65" y="741" on="1"/>
        <pt x="581" y="741" on="1"/>
        <pt x="581" y="509" on="1"/>
      </contour>
    </TTGlyph>
    <TTGlyph name="eng" xMin="84" yMin="-186" xMax="967" yMax="1518">
      <contour>
        <pt x="84" y="0" on="1"/>
        <pt x="84" y="1501" on="1"/>
        <pt x="442" y="1501" on="1"/>
        <pt x="442" y="1329" on="1"/>
        <pt x="464" y="1426" on="0"/>
        <pt x="583" y="1518" on="0"/>
        <pt x="668" y="1518" on="1"/>
        <pt x="809" y="1518" on="0"/>
        <pt x="965" y="1341" on="0"/>
        <pt x="965" y="1157" on="1"/>
        <pt x="965" y="156" on="1"/>
        <pt x="967" y="-13" on="0"/>
        <pt x="832" y="-186" on="0"/>
        <pt x="685" y="-186" on="1"/>
        <pt x="570" y="-186" on="0"/>
        <pt x="533" y="-160" on="1"/>
        <pt x="533" y="80" on="1"/>
        <pt x="549" y="75" on="0"/>
        <pt x="566" y="75" on="1"/>
        <pt x="591" y="75" on="0"/>
        <pt x="609" y="110" on="0"/>
        <pt x="612" y="146" on="1"/>
        <pt x="612" y="1120" on="1"/>
        <pt x="612" y="1167" on="0"/>
        <pt x="574" y="1239" on="0"/>
        <pt x="532" y="1239" on="1"/>
        <pt x="506" y="1239" on="0"/>
        <pt x="470" y="1210" on="0"/>
        <pt x="453" y="1173" on="0"/>
        <pt x="443" y="1113" on="0"/>
        <pt x="442" y="1081" on="0"/>
        <pt x="442" y="1055" on="1"/>
        <pt x="442" y="0" on="1"/>
      </contour>
    </TTGlyph>
    <TTGlyph name="eogonek" xMin="62" yMin="-631" xMax="944" yMax="1518">
      <component glyphName="e" x="0" y="0" flags="0x1204"/>
      <component glyphName="ogonek" x="-139" y="0" flags="0x1004"/>
    </TTGlyph>
    <TTGlyph name="equal" xMin="88" yMin="509" xMax="602" yMax="1116">
      <contour>
        <pt x="88" y="509" on="1"/>
        <pt x="88" y="741" on="1"/>
        <pt x="602" y="741" on="1"/>
        <pt x="602" y="509" on="1"/>
      </contour>
      <contour>
        <pt x="88" y="892" on="1"/>
        <pt x="88" y="1116" on="1"/>
        <pt x="602" y="1116" on="1"/>
        <pt x="602" y="892" on="1"/>
      </contour>
    </TTGlyph>
    <TTGlyph name="eth" xMin="64" yMin="-18" xMax="1005" yMax="1767">
      <contour>
        <pt x="64" y="477" on="1"/>
        <pt x="68" y="1053" on="1"/>
        <pt x="68" y="1125" on="0"/>
        <pt x="106" y="1254" on="0"/>
        <pt x="180" y="1357" on="0"/>
        <pt x="301" y="1418" on="0"/>
        <pt x="377" y="1418" on="1"/>
        <pt x="520" y="1418" on="0"/>
        <pt x="594" y="1319" on="1"/>
        <pt x="594" y="1502" on="1"/>
        <pt x="489" y="1502" on="1"/>
        <pt x="489" y="1674" on="1"/>
        <pt x="594" y="1674" on="1"/>
        <pt x="594" y="1767" on="1"/>
        <pt x="952" y="1767" on="1"/>
        <pt x="952" y="1674" on="1"/>
        <pt x="1005" y="1674" on="1"/>
        <pt x="1005" y="1502" on="1"/>
        <pt x="952" y="1502" on="1"/>
        <pt x="952" y="0" on="1"/>
        <pt x="594" y="0" on="1"/>
        <pt x="594" y="159" on="1"/>
        <pt x="556" y="58" on="0"/>
        <pt x="443" y="-18" on="0"/>
        <pt x="371" y="-18" on="1"/>
        <pt x="319" y="-18" on="0"/>
        <pt x="234" y="1" on="0"/>
        <pt x="173" y="42" on="0"/>
        <pt x="126" y="91" on="0"/>
        <pt x="96" y="165" on="0"/>
        <pt x="77" y="236" on="0"/>
        <pt x="67" y="335" on="0"/>
        <pt x="64" y="420" on="0"/>
      </contour>
      <contour>
        <pt x="422" y="983" on="1"/>
        <pt x="422" y="452" on="1"/>
        <pt x="422" y="264" on="0"/>
        <pt x="508" y="264" on="1"/>
        <pt x="524" y="264" on="0"/>
        <pt x="549" y="276" on="0"/>
        <pt x="567" y="301" on="0"/>
        <pt x="580" y="325" on="0"/>
        <pt x="588" y="367" on="0"/>
        <pt x="593" y="396" on="0"/>
        <pt x="594" y="445" on="0"/>
        <pt x="595" y="468" on="0"/>
        <pt x="594" y="515" on="0"/>
        <pt x="594" y="520" on="1"/>
        <pt x="594" y="983" on="1"/>
        <pt x="594" y="1006" on="0"/>
        <pt x="589" y="1050" on="0"/>
        <pt x="573" y="1105" on="0"/>
        <pt x="537" y="1139" on="0"/>
        <pt x="510" y="1139" on="1"/>
        <pt x="482" y="1139" on="0"/>
        <pt x="444" y="1111" on="0"/>
        <pt x="428" y="1060" on="0"/>
        <pt x="422" y="1014" on="0"/>
      </contour>
    </TTGlyph>
    <TTGlyph name="exclam" xMin="75" yMin="1" xMax="433" yMax="1593">
      <contour>
        <pt x="75" y="1593" on="1"/>
        <pt x="433" y="1593" on="1"/>
        <pt x="363" y="439" on="1"/>
        <pt x="145" y="439" on="1"/>
      </contour>
      <contour>
        <pt x="75" y="1" on="1"/>
        <pt x="75" y="299" on="1"/>
        <pt x="433" y="299" on="1"/>
        <pt x="433" y="1" on="1"/>
      </contour>
    </TTGlyph>
    <TTGlyph name="exclamdown" xMin="74" yMin="1" xMax="432" yMax="1593">
      <contour>
        <pt x="74" y="1" on="1"/>
        <pt x="144" y="1155" on="1"/>
        <pt x="362" y="1155" on="1"/>
        <pt x="432" y="1" on="1"/>
      </contour>
      <contour>
        <pt x="74" y="1593" on="1"/>
        <pt x="432" y="1593" on="1"/>
        <pt x="432" y="1295" on="1"/>
        <pt x="74" y="1295" on="1"/>
      </contour>
    </TTGlyph>
    <TTGlyph name="f" xMin="42" yMin="0" xMax="533" yMax="1778">
      <contour>
        <pt x="107" y="0" on="1"/>
        <pt x="107" y="1161" on="1"/>
        <pt x="42" y="1161" on="1"/>
        <pt x="42" y="1208" on="0"/>
        <pt x="46" y="1434" on="1"/>
        <pt x="107" y="1434" on="1"/>
        <pt x="107" y="1536" on="1"/>
        <pt x="107" y="1778" on="0"/>
        <pt x="349" y="1778" on="1"/>
        <pt x="464" y="1778" on="0"/>
        <pt x="533" y="1749" on="1"/>
        <pt x="533" y="1528" on="1"/>
        <pt x="511" y="1533" on="0"/>
        <pt x="500" y="1533" on="1"/>
        <pt x="472" y="1533" on="0"/>
        <pt x="455" y="1495" on="0"/>
        <pt x="455" y="1453" on="1"/>
        <pt x="455" y="1434" on="1"/>
        <pt x="533" y="1434" on="1"/>
        <pt x="533" y="1157" on="1"/>
        <pt x="462" y="1157" on="1"/>
        <pt x="462" y="0" on="1"/>
      </contour>
    </TTGlyph>
    <TTGlyph name="five" xMin="56" yMin="-24" xMax="987" yMax="1593">
      <contour>
        <pt x="536" y="-24" on="1"/>
        <pt x="431" y="-24" on="0"/>
        <pt x="255" y="23" on="0"/>
        <pt x="128" y="121" on="0"/>
        <pt x="56" y="271" on="0"/>
        <pt x="56" y="373" on="1"/>
        <pt x="56" y="557" on="1"/>
        <pt x="422" y="557" on="1"/>
        <pt x="422" y="471" on="1"/>
        <pt x="422" y="407" on="0"/>
        <pt x="441" y="336" on="0"/>
        <pt x="469" y="302" on="0"/>
        <pt x="502" y="295" on="0"/>
        <pt x="516" y="295" on="1"/>
        <pt x="570" y="295" on="0"/>
        <pt x="609" y="365" on="0"/>
        <pt x="609" y="428" on="1"/>
        <pt x="609" y="644" on="1"/>
        <pt x="609" y="674" on="0"/>
        <pt x="604" y="731" on="0"/>
        <pt x="585" y="778" on="0"/>
        <pt x="549" y="809" on="0"/>
        <pt x="518" y="812" on="1"/>
        <pt x="418" y="812" on="0"/>
        <pt x="418" y="681" on="1"/>
        <pt x="95" y="681" on="1"/>
        <pt x="95" y="1593" on="1"/>
        <pt x="934" y="1593" on="1"/>
        <pt x="934" y="1260" on="1"/>
        <pt x="429" y="1260" on="1"/>
        <pt x="430" y="1048" on="1"/>
        <pt x="483" y="1097" on="0"/>
        <pt x="604" y="1097" on="1"/>
        <pt x="681" y="1097" on="0"/>
        <pt x="798" y="1052" on="0"/>
        <pt x="883" y="976" on="0"/>
        <pt x="940" y="874" on="0"/>
        <pt x="973" y="759" on="0"/>
        <pt x="987" y="637" on="0"/>
        <pt x="987" y="579" on="1"/>
        <pt x="987" y="502" on="0"/>
        <pt x="973" y="353" on="0"/>
        <pt x="936" y="219" on="0"/>
        <pt x="871" y="105" on="0"/>
        <pt x="771" y="23" on="0"/>
        <pt x="631" y="-24" on="0"/>
      </contour>
    </TTGlyph>
    <TTGlyph name="florin" xMin="42" yMin="-47" xMax="579" yMax="1607">
      <contour>
        <pt x="488" y="986" on="1"/>
        <pt x="488" y="195" on="1"/>
        <pt x="488" y="-47" on="0"/>
        <pt x="246" y="-47" on="1"/>
        <pt x="119" y="-47" on="0"/>
        <pt x="42" y="-18" on="1"/>
        <pt x="42" y="203" on="1"/>
        <pt x="70" y="198" on="0"/>
        <pt x="85" y="198" on="1"/>
        <pt x="119" y="198" on="0"/>
        <pt x="140" y="237" on="0"/>
        <pt x="140" y="279" on="1"/>
        <pt x="140" y="297" on="1"/>
        <pt x="133" y="986" on="1"/>
        <pt x="48" y="986" on="1"/>
        <pt x="48" y="1263" on="1"/>
        <pt x="133" y="1263" on="1"/>
        <pt x="133" y="1365" on="1"/>
        <pt x="133" y="1607" on="0"/>
        <pt x="375" y="1607" on="1"/>
        <pt x="502" y="1607" on="0"/>
        <pt x="579" y="1578" on="1"/>
        <pt x="579" y="1357" on="1"/>
        <pt x="551" y="1362" on="0"/>
        <pt x="536" y="1362" on="1"/>
        <pt x="502" y="1362" on="0"/>
        <pt x="481" y="1323" on="0"/>
        <pt x="481" y="1281" on="1"/>
        <pt x="481" y="1263" on="1"/>
        <pt x="579" y="1263" on="1"/>
        <pt x="579" y="986" on="1"/>
      </contour>
    </TTGlyph>
    <TTGlyph name="four" xMin="28" yMin="-1" xMax="1009" yMax="1592">
      <contour>
        <pt x="1009" y="575" on="1"/>
        <pt x="1009" y="270" on="1"/>
        <pt x="939" y="270" on="1"/>
        <pt x="939" y="-1" on="1"/>
        <pt x="570" y="-1" on="1"/>
        <pt x="570" y="270" on="1"/>
        <pt x="28" y="270" on="1"/>
        <pt x="28" y="537" on="1"/>
        <pt x="381" y="1592" on="1"/>
        <pt x="939" y="1592" on="1"/>
        <pt x="939" y="575" on="1"/>
      </contour>
      <contour>
        <pt x="372" y="575" on="1"/>
        <pt x="570" y="575" on="1"/>
        <pt x="570" y="1299" on="1"/>
      </contour>
    </TTGlyph>
    <TTGlyph name="fraction" xMin="-11" yMin="0" xMax="763" yMax="1767">
      <contour>
        <pt x="272" y="0" on="1"/>
        <pt x="-11" y="0" on="1"/>
        <pt x="479" y="1767" on="1"/>
        <pt x="763" y="1767" on="1"/>
      </contour>
    </TTGlyph>
    <TTGlyph name="g" xMin="40" yMin="-220" xMax="958" yMax="1518">
      <contour>
        <pt x="470" y="-220" on="1"/>
        <pt x="323" y="-220" on="0"/>
        <pt x="130" y="-171" on="0"/>
        <pt x="40" y="-96" on="1"/>
        <pt x="161" y="111" on="1"/>
        <pt x="292" y="33" on="0"/>
        <pt x="423" y="33" on="1"/>
        <pt x="505" y="33" on="0"/>
        <pt x="593" y="137" on="0"/>
        <pt x="593" y="231" on="1"/>
        <pt x="593" y="314" on="1"/>
        <pt x="549" y="160" on="0"/>
        <pt x="364" y="160" on="1"/>
        <pt x="285" y="160" on="0"/>
        <pt x="166" y="222" on="0"/>
        <pt x="98" y="330" on="0"/>
        <pt x="65" y="464" on="0"/>
        <pt x="65" y="543" on="1"/>
        <pt x="65" y="1106" on="1"/>
        <pt x="65" y="1223" on="0"/>
        <pt x="107" y="1386" on="0"/>
        <pt x="189" y="1478" on="0"/>
        <pt x="294" y="1518" on="0"/>
        <pt x="364" y="1518" on="1"/>
        <pt x="400" y="1518" on="0"/>
        <pt x="464" y="1502" on="0"/>
        <pt x="530" y="1463" on="0"/>
        <pt x="581" y="1386" on="0"/>
        <pt x="593" y="1331" on="1"/>
        <pt x="593" y="1500" on="1"/>
        <pt x="958" y="1500" on="1"/>
        <pt x="958" y="254" on="1"/>
        <pt x="958" y="117" on="0"/>
        <pt x="895" y="-69" on="0"/>
        <pt x="766" y="-175" on="0"/>
        <pt x="593" y="-220" on="0"/>
      </contour>
      <contour>
        <pt x="505" y="1243" on="1"/>
        <pt x="478" y="1243" on="0"/>
        <pt x="443" y="1219" on="0"/>
        <pt x="430" y="1172" on="0"/>
        <pt x="427" y="1142" on="0"/>
        <pt x="427" y="1116" on="1"/>
        <pt x="427" y="582" on="1"/>
        <pt x="427" y="554" on="0"/>
        <pt x="431" y="515" on="0"/>
        <pt x="445" y="460" on="0"/>
        <pt x="481" y="430" on="0"/>
        <pt x="509" y="430" on="1"/>
        <pt x="593" y="430" on="0"/>
        <pt x="593" y="582" on="1"/>
        <pt x="593" y="1116" on="1"/>
        <pt x="593" y="1159" on="0"/>
        <pt x="546" y="1243" on="0"/>
      </contour>
    </TTGlyph>
    <TTGlyph name="gbreve" xMin="40" yMin="-220" xMax="958" yMax="1993">
      <component glyphName="breve" x="20" y="48" flags="0x1004"/>
      <component glyphName="g" x="0" y="0" flags="0x1204"/>
    </TTGlyph>
    <TTGlyph name="gcircumflex" xMin="40" yMin="-220" xMax="965" yMax="2043">
      <component glyphName="circumflex" x="35" y="49" flags="0x1004"/>
      <component glyphName="g" x="0" y="0" flags="0x1204"/>
    </TTGlyph>
    <TTGlyph name="gcommaaccent" xMin="40" yMin="-220" xMax="958" yMax="2172">
      <component glyphName="g" x="0" y="0" flags="0x1204"/>
      <component glyphName="quoteleft" x="338" y="580" flags="0x1004"/>
    </TTGlyph>
    <TTGlyph name="gdotaccent" xMin="40" yMin="-220" xMax="958" yMax="1938">
      <component glyphName="dotaccent" x="283" y="48" flags="0x1004"/>
      <component glyphName="g" x="0" y="0" flags="0x1204"/>
    </TTGlyph>
    <TTGlyph name="germandbls" xMin="80" yMin="0" xMax="991" yMax="1593">
      <contour>
        <pt x="505" y="1593" on="1"/>
        <pt x="599" y="1593" on="0"/>
        <pt x="748" y="1555" on="0"/>
        <pt x="867" y="1473" on="0"/>
        <pt x="931" y="1329" on="0"/>
        <pt x="931" y="1229" on="1"/>
        <pt x="931" y="1224" on="0"/>
        <pt x="931" y="1214" on="1"/>
        <pt x="931" y="1179" on="0"/>
        <pt x="931" y="1145" on="0"/>
        <pt x="925" y="1073" on="0"/>
        <pt x="914" y="1030" on="0"/>
        <pt x="892" y="970" on="0"/>
        <pt x="861" y="932" on="0"/>
        <pt x="812" y="897" on="0"/>
        <pt x="781" y="887" on="1"/>
        <pt x="823" y="877" on="0"/>
        <pt x="889" y="834" on="0"/>
        <pt x="932" y="783" on="0"/>
        <pt x="964" y="712" on="0"/>
        <pt x="980" y="650" on="0"/>
        <pt x="989" y="568" on="0"/>
        <pt x="991" y="513" on="0"/>
        <pt x="991" y="476" on="1"/>
        <pt x="991" y="359" on="0"/>
        <pt x="956" y="193" on="0"/>
        <pt x="870" y="64" on="0"/>
        <pt x="717" y="0" on="0"/>
        <pt x="604" y="0" on="1"/>
        <pt x="500" y="0" on="1"/>
        <pt x="500" y="281" on="1"/>
        <pt x="643" y="281" on="0"/>
        <pt x="643" y="399" on="1"/>
        <pt x="643" y="598" on="1"/>
        <pt x="643" y="677" on="0"/>
        <pt x="579" y="745" on="0"/>
        <pt x="496" y="745" on="1"/>
        <pt x="496" y="993" on="1"/>
        <pt x="525" y="993" on="0"/>
        <pt x="562" y="1015" on="0"/>
        <pt x="576" y="1057" on="0"/>
        <pt x="580" y="1088" on="0"/>
        <pt x="580" y="1112" on="1"/>
        <pt x="580" y="1270" on="1"/>
        <pt x="580" y="1346" on="0"/>
        <pt x="430" y="1346" on="0"/>
        <pt x="430" y="1270" on="1"/>
        <pt x="430" y="0" on="1"/>
        <pt x="80" y="0" on="1"/>
        <pt x="80" y="1229" on="1"/>
        <pt x="80" y="1593" on="0"/>
      </contour>
    </TTGlyph>
    <TTGlyph name="grave" xMin="51" yMin="1553" xMax="526" yMax="1994">
      <contour>
        <pt x="526" y="1553" on="1"/>
        <pt x="51" y="1647" on="1"/>
        <pt x="51" y="1994" on="1"/>
        <pt x="526" y="1776" on="1"/>
      </contour>
    </TTGlyph>
    <TTGlyph name="greater" xMin="88" yMin="200" xMax="658" yMax="1300">
      <contour>
        <pt x="658" y="545" on="1"/>
        <pt x="88" y="200" on="1"/>
        <pt x="88" y="558" on="1"/>
        <pt x="430" y="749" on="1"/>
        <pt x="88" y="941" on="1"/>
        <pt x="88" y="1300" on="1"/>
        <pt x="658" y="959" on="1"/>
      </contour>
    </TTGlyph>
    <TTGlyph name="greaterequal" xMin="80" yMin="0" xMax="650" yMax="1392">
      <contour>
        <pt x="650" y="637" on="1"/>
        <pt x="80" y="292" on="1"/>
        <pt x="80" y="650" on="1"/>
        <pt x="422" y="841" on="1"/>
        <pt x="80" y="1033" on="1"/>
        <pt x="80" y="1392" on="1"/>
        <pt x="650" y="1051" on="1"/>
      </contour>
      <contour>
        <pt x="107" y="0" on="1"/>
        <pt x="107" y="232" on="1"/>
        <pt x="623" y="232" on="1"/>
        <pt x="623" y="0" on="1"/>
      </contour>
    </TTGlyph>
    <TTGlyph name="guillemotleft" xMin="46" yMin="260" xMax="1134" yMax="1230">
      <contour>
        <pt x="624" y="545" on="1"/>
        <pt x="624" y="959" on="1"/>
        <pt x="1134" y="1230" on="1"/>
        <pt x="1134" y="871" on="1"/>
        <pt x="822" y="749" on="1"/>
        <pt x="1134" y="618" on="1"/>
        <pt x="1134" y="260" on="1"/>
      </contour>
      <contour>
        <pt x="46" y="545" on="1"/>
        <pt x="46" y="959" on="1"/>
        <pt x="556" y="1230" on="1"/>
        <pt x="556" y="871" on="1"/>
        <pt x="244" y="749" on="1"/>
        <pt x="556" y="618" on="1"/>
        <pt x="556" y="260" on="1"/>
      </contour>
    </TTGlyph>
    <TTGlyph name="guillemotright" xMin="83" yMin="260" xMax="1170" yMax="1230">
      <contour>
        <pt x="593" y="545" on="1"/>
        <pt x="83" y="260" on="1"/>
        <pt x="83" y="618" on="1"/>
        <pt x="395" y="749" on="1"/>
        <pt x="83" y="871" on="1"/>
        <pt x="83" y="1230" on="1"/>
        <pt x="593" y="959" on="1"/>
      </contour>
      <contour>
        <pt x="1170" y="545" on="1"/>
        <pt x="660" y="260" on="1"/>
        <pt x="660" y="618" on="1"/>
        <pt x="972" y="749" on="1"/>
        <pt x="660" y="871" on="1"/>
        <pt x="660" y="1230" on="1"/>
        <pt x="1170" y="959" on="1"/>
      </contour>
    </TTGlyph>
    <TTGlyph name="guilsinglleft" xMin="46" yMin="260" xMax="556" yMax="1230">
      <contour>
        <pt x="46" y="545" on="1"/>
        <pt x="46" y="959" on="1"/>
        <pt x="556" y="1230" on="1"/>
        <pt x="556" y="871" on="1"/>
        <pt x="244" y="749" on="1"/>
        <pt x="556" y="618" on="1"/>
        <pt x="556" y="260" on="1"/>
      </contour>
    </TTGlyph>
    <TTGlyph name="guilsinglright" xMin="83" yMin="260" xMax="593" yMax="1230">
      <contour>
        <pt x="593" y="545" on="1"/>
        <pt x="83" y="260" on="1"/>
        <pt x="83" y="618" on="1"/>
        <pt x="395" y="749" on="1"/>
        <pt x="83" y="871" on="1"/>
        <pt x="83" y="1230" on="1"/>
        <pt x="593" y="959" on="1"/>
      </contour>
    </TTGlyph>
    <TTGlyph name="h" xMin="84" yMin="0" xMax="979" yMax="1767">
      <contour>
        <pt x="84" y="0" on="1"/>
        <pt x="84" y="1767" on="1"/>
        <pt x="452" y="1767" on="1"/>
        <pt x="452" y="1351" on="1"/>
        <pt x="510" y="1519" on="0"/>
        <pt x="671" y="1519" on="1"/>
        <pt x="813" y="1519" on="0"/>
        <pt x="979" y="1336" on="0"/>
        <pt x="979" y="1155" on="1"/>
        <pt x="979" y="0" on="1"/>
        <pt x="620" y="0" on="1"/>
        <pt x="620" y="1034" on="1"/>
        <pt x="620" y="1040" on="0"/>
        <pt x="621" y="1075" on="0"/>
        <pt x="621" y="1085" on="1"/>
        <pt x="621" y="1243" on="0"/>
        <pt x="532" y="1243" on="1"/>
        <pt x="506" y="1243" on="0"/>
        <pt x="452" y="1192" on="0"/>
        <pt x="452" y="1135" on="1"/>
        <pt x="452" y="0" on="1"/>
      </contour>
    </TTGlyph>
    <TTGlyph name="hbar" xMin="0" yMin="0" xMax="979" yMax="1767">
      <contour>
        <pt x="84" y="0" on="1"/>
        <pt x="84" y="1416" on="1"/>
        <pt x="0" y="1416" on="1"/>
        <pt x="0" y="1592" on="1"/>
        <pt x="84" y="1592" on="1"/>
        <pt x="84" y="1767" on="1"/>
        <pt x="452" y="1767" on="1"/>
        <pt x="452" y="1592" on="1"/>
        <pt x="570" y="1592" on="1"/>
        <pt x="570" y="1416" on="1"/>
        <pt x="452" y="1416" on="1"/>
        <pt x="452" y="1113" on="1"/>
        <pt x="510" y="1281" on="0"/>
        <pt x="671" y="1281" on="1"/>
        <pt x="813" y="1281" on="0"/>
        <pt x="979" y="1098" on="0"/>
        <pt x="979" y="917" on="1"/>
        <pt x="979" y="0" on="1"/>
        <pt x="620" y="0" on="1"/>
        <pt x="620" y="796" on="1"/>
        <pt x="620" y="802" on="0"/>
        <pt x="621" y="837" on="0"/>
        <pt x="621" y="847" on="1"/>
        <pt x="621" y="1005" on="0"/>
        <pt x="532" y="1005" on="1"/>
        <pt x="506" y="1005" on="0"/>
        <pt x="452" y="954" on="0"/>
        <pt x="452" y="897" on="1"/>
        <pt x="452" y="0" on="1"/>
      </contour>
    </TTGlyph>
    <TTGlyph name="hcircumflex" xMin="84" yMin="0" xMax="979" yMax="2292">
      <component glyphName="circumflex" x="46" y="298" flags="0x1004"/>
      <component glyphName="h" x="0" y="0" flags="0x1204"/>
    </TTGlyph>
    <TTGlyph name="hungarumlaut" xMin="257" yMin="1236" xMax="1014" yMax="1773">
      <contour>
        <pt x="423" y="1236" on="1"/>
        <pt x="257" y="1294" on="1"/>
        <pt x="441" y="1773" on="1"/>
        <pt x="671" y="1665" on="1"/>
      </contour>
      <contour>
        <pt x="725" y="1236" on="1"/>
        <pt x="559" y="1294" on="1"/>
        <pt x="780" y="1773" on="1"/>
        <pt x="1014" y="1665" on="1"/>
      </contour>
    </TTGlyph>
    <TTGlyph name="hyphen" xMin="65" yMin="509" xMax="581" yMax="741">
      <contour>
        <pt x="65" y="509" on="1"/>
        <pt x="65" y="741" on="1"/>
        <pt x="581" y="741" on="1"/>
        <pt x="581" y="509" on="1"/>
      </contour>
    </TTGlyph>
    <TTGlyph name="i" xMin="84" yMin="0" xMax="442" yMax="1769">
      <contour>
        <pt x="84" y="0" on="1"/>
        <pt x="84" y="1501" on="1"/>
        <pt x="442" y="1501" on="1"/>
        <pt x="442" y="0" on="1"/>
      </contour>
      <contour>
        <pt x="84" y="1593" on="1"/>
        <pt x="84" y="1769" on="1"/>
        <pt x="442" y="1769" on="1"/>
        <pt x="442" y="1593" on="1"/>
      </contour>
    </TTGlyph>
    <TTGlyph name="iacute" xMin="50" yMin="0" xMax="525" yMax="2081">
      <component glyphName="acute" x="49" y="47" flags="0x1004"/>
      <component glyphName="dotlessi" x="0" y="0" flags="0x1204"/>
    </TTGlyph>
    <TTGlyph name="ibreve" xMin="-170" yMin="0" xMax="697" yMax="1993">
      <component glyphName="breve" x="-239" y="48" flags="0x1004"/>
      <component glyphName="dotlessi" x="1" y="0" flags="0x1204"/>
    </TTGlyph>
    <TTGlyph name="icircumflex" xMin="-182" yMin="0" xMax="708" yMax="2043">
      <component glyphName="circumflex" x="-222" y="49" flags="0x1004"/>
      <component glyphName="dotlessi" x="0" y="0" flags="0x1204"/>
    </TTGlyph>
    <TTGlyph name="idieresis" xMin="-158" yMin="0" xMax="684" yMax="1938">
      <component glyphName="dieresis" x="-225" y="49" flags="0x1004"/>
      <component glyphName="dotlessi" x="0" y="0" flags="0x1204"/>
    </TTGlyph>
    <TTGlyph name="igrave" xMin="1" yMin="0" xMax="476" yMax="2081">
      <component glyphName="grave" x="-50" y="87" flags="0x1004"/>
      <component glyphName="dotlessi" x="0" y="0" flags="0x1204"/>
    </TTGlyph>
    <TTGlyph name="imacron" xMin="-22" yMin="0" xMax="548" yMax="1888">
      <component glyphName="macron" x="18" y="48" flags="0x1004"/>
      <component glyphName="dotlessi" x="0" y="0" flags="0x1204"/>
    </TTGlyph>
    <TTGlyph name="infinity" xMin="53" yMin="439" xMax="1127" yMax="1041">
      <contour>
        <pt x="584" y="885" on="1"/>
        <pt x="710" y="1041" on="0"/>
        <pt x="857" y="1041" on="1"/>
        <pt x="888" y="1041" on="0"/>
        <pt x="951" y="1030" on="0"/>
        <pt x="1029" y="991" on="0"/>
        <pt x="1087" y="930" on="0"/>
        <pt x="1127" y="818" on="0"/>
        <pt x="1127" y="744" on="1"/>
        <pt x="1127" y="668" on="0"/>
        <pt x="1087" y="553" on="0"/>
        <pt x="1029" y="490" on="0"/>
        <pt x="951" y="451" on="0"/>
        <pt x="888" y="439" on="0"/>
        <pt x="857" y="439" on="1"/>
        <pt x="770" y="439" on="0"/>
        <pt x="632" y="524" on="0"/>
        <pt x="584" y="585" on="1"/>
        <pt x="536" y="531" on="0"/>
        <pt x="392" y="452" on="0"/>
        <pt x="315" y="452" on="1"/>
        <pt x="284" y="452" on="0"/>
        <pt x="223" y="463" on="0"/>
        <pt x="147" y="500" on="0"/>
        <pt x="91" y="560" on="0"/>
        <pt x="53" y="671" on="0"/>
        <pt x="53" y="744" on="1"/>
        <pt x="53" y="815" on="0"/>
        <pt x="92" y="922" on="0"/>
        <pt x="148" y="981" on="0"/>
        <pt x="223" y="1017" on="0"/>
        <pt x="284" y="1028" on="0"/>
        <pt x="315" y="1028" on="1"/>
        <pt x="457" y="1028" on="0"/>
      </contour>
      <contour>
        <pt x="798" y="669" on="1"/>
        <pt x="893" y="669" on="0"/>
        <pt x="893" y="811" on="0"/>
        <pt x="798" y="811" on="1"/>
        <pt x="722" y="811" on="0"/>
        <pt x="646" y="740" on="1"/>
        <pt x="717" y="669" on="0"/>
      </contour>
      <contour>
        <pt x="522" y="740" on="1"/>
        <pt x="450" y="810" on="0"/>
        <pt x="378" y="810" on="1"/>
        <pt x="289" y="810" on="0"/>
        <pt x="289" y="740" on="1"/>
        <pt x="289" y="669" on="0"/>
        <pt x="378" y="669" on="1"/>
        <pt x="448" y="669" on="0"/>
      </contour>
    </TTGlyph>
    <TTGlyph name="integral" xMin="35" yMin="-47" xMax="572" yMax="1607">
      <contour>
        <pt x="474" y="195" on="1"/>
        <pt x="474" y="145" on="0"/>
        <pt x="456" y="68" on="0"/>
        <pt x="409" y="-6" on="0"/>
        <pt x="311" y="-47" on="0"/>
        <pt x="239" y="-47" on="1"/>
        <pt x="112" y="-47" on="0"/>
        <pt x="35" y="-18" on="1"/>
        <pt x="35" y="203" on="1"/>
        <pt x="63" y="198" on="0"/>
        <pt x="78" y="198" on="1"/>
        <pt x="96" y="198" on="0"/>
        <pt x="116" y="208" on="0"/>
        <pt x="125" y="235" on="0"/>
        <pt x="126" y="255" on="0"/>
        <pt x="126" y="279" on="1"/>
        <pt x="126" y="1365" on="1"/>
        <pt x="126" y="1418" on="0"/>
        <pt x="147" y="1497" on="0"/>
        <pt x="196" y="1569" on="0"/>
        <pt x="296" y="1607" on="0"/>
        <pt x="368" y="1607" on="1"/>
        <pt x="495" y="1607" on="0"/>
        <pt x="572" y="1578" on="1"/>
        <pt x="572" y="1357" on="1"/>
        <pt x="544" y="1362" on="0"/>
        <pt x="529" y="1362" on="1"/>
        <pt x="495" y="1362" on="0"/>
        <pt x="474" y="1323" on="0"/>
        <pt x="474" y="1281" on="1"/>
      </contour>
    </TTGlyph>
    <TTGlyph name="iogonek" xMin="-106" yMin="-610" xMax="442" yMax="1769">
      <component glyphName="ogonek" x="-412" y="21" flags="0x1004"/>
      <component glyphName="i" x="0" y="0" flags="0x1204"/>
    </TTGlyph>
    <TTGlyph name="itilde" xMin="-144" yMin="0" xMax="670" yMax="2026">
      <component glyphName="tilde" x="-234" y="38" flags="0x1004"/>
      <component glyphName="dotlessi" x="0" y="0" flags="0x1204"/>
    </TTGlyph>
    <TTGlyph name="j" xMin="37" yMin="-176" xMax="471" yMax="1769">
      <contour>
        <pt x="113" y="1500" on="1"/>
        <pt x="471" y="1500" on="1"/>
        <pt x="471" y="166" on="1"/>
        <pt x="471" y="-3" on="0"/>
        <pt x="336" y="-176" on="0"/>
        <pt x="189" y="-176" on="1"/>
        <pt x="74" y="-176" on="0"/>
        <pt x="37" y="-150" on="1"/>
        <pt x="37" y="90" on="1"/>
        <pt x="53" y="85" on="0"/>
        <pt x="70" y="85" on="1"/>
        <pt x="95" y="85" on="0"/>
        <pt x="113" y="120" on="0"/>
        <pt x="113" y="156" on="1"/>
      </contour>
      <contour>
        <pt x="113" y="1593" on="1"/>
        <pt x="113" y="1769" on="1"/>
        <pt x="471" y="1769" on="1"/>
        <pt x="471" y="1593" on="1"/>
      </contour>
    </TTGlyph>
    <TTGlyph name="jcircumflex" xMin="-166" yMin="-176" xMax="724" yMax="2008">
      <contour>
        <pt x="113" y="1500" on="1"/>
        <pt x="471" y="1500" on="1"/>
        <pt x="471" y="166" on="1"/>
        <pt x="471" y="-3" on="0"/>
        <pt x="336" y="-176" on="0"/>
        <pt x="189" y="-176" on="1"/>
        <pt x="74" y="-176" on="0"/>
        <pt x="37" y="-150" on="1"/>
        <pt x="37" y="90" on="1"/>
        <pt x="53" y="85" on="0"/>
        <pt x="70" y="85" on="1"/>
        <pt x="95" y="85" on="0"/>
        <pt x="113" y="120" on="0"/>
        <pt x="113" y="156" on="1"/>
      </contour>
      <contour>
        <pt x="483" y="2008" on="1"/>
        <pt x="724" y="1605" on="1"/>
        <pt x="365" y="1605" on="1"/>
        <pt x="279" y="1890" on="1"/>
        <pt x="193" y="1605" on="1"/>
        <pt x="-166" y="1605" on="1"/>
        <pt x="75" y="2008" on="1"/>
      </contour>
    </TTGlyph>
    <TTGlyph name="k" xMin="84" yMin="0" xMax="1042" yMax="1769">
      <contour>
        <pt x="84" y="0" on="1"/>
        <pt x="84" y="1769" on="1"/>
        <pt x="438" y="1769" on="1"/>
        <pt x="438" y="983" on="1"/>
        <pt x="610" y="1500" on="1"/>
        <pt x="981" y="1500" on="1"/>
        <pt x="756" y="848" on="1"/>
        <pt x="1042" y="0" on="1"/>
        <pt x="661" y="0" on="1"/>
        <pt x="438" y="707" on="1"/>
        <pt x="438" y="0" on="1"/>
      </contour>
    </TTGlyph>
    <TTGlyph name="kcommaaccent" xMin="84" yMin="-656" xMax="1042" yMax="1769">
      <component glyphName="comma" x="318" y="-421" flags="0x1004"/>
      <component glyphName="k" x="0" y="0" flags="0x1204"/>
    </TTGlyph>
    <TTGlyph name="l" xMin="84" yMin="0" xMax="448" yMax="1767">
      <contour>
        <pt x="448" y="0" on="1"/>
        <pt x="84" y="0" on="1"/>
        <pt x="84" y="1767" on="1"/>
        <pt x="448" y="1767" on="1"/>
      </contour>
    </TTGlyph>
    <TTGlyph name="lacute" xMin="84" yMin="0" xMax="560" yMax="2330">
      <component glyphName="acute" x="84" y="296" flags="0x1004"/>
      <component glyphName="l" x="0" y="0" flags="0x1204"/>
    </TTGlyph>
    <TTGlyph name="lcaron" xMin="84" yMin="0" xMax="958" yMax="1767">
      <component glyphName="l" x="0" y="0" flags="0x1004"/>
      <component glyphName="quoteright" x="532" y="0" flags="0x1004"/>
    </TTGlyph>
    <TTGlyph name="lcommaaccent" xMin="79" yMin="-656" xMax="453" yMax="1767">
      <component glyphName="comma" x="21" y="-421" flags="0x1004"/>
      <component glyphName="l" x="0" y="0" flags="0x1204"/>
    </TTGlyph>
    <TTGlyph name="ldot" xMin="84" yMin="0" xMax="907" yMax="1767">
      <component glyphName="l" x="0" y="0" flags="0x1004"/>
      <component glyphName="periodcentered" x="482" y="0" flags="0x1004"/>
    </TTGlyph>
    <TTGlyph name="less" xMin="53" yMin="200" xMax="623" yMax="1300">
      <contour>
        <pt x="53" y="545" on="1"/>
        <pt x="53" y="959" on="1"/>
        <pt x="623" y="1300" on="1"/>
        <pt x="623" y="941" on="1"/>
        <pt x="281" y="749" on="1"/>
        <pt x="623" y="558" on="1"/>
        <pt x="623" y="200" on="1"/>
      </contour>
    </TTGlyph>
    <TTGlyph name="lessequal" xMin="57" yMin="0" xMax="627" yMax="1392">
      <contour>
        <pt x="57" y="637" on="1"/>
        <pt x="57" y="1051" on="1"/>
        <pt x="627" y="1392" on="1"/>
        <pt x="627" y="1033" on="1"/>
        <pt x="285" y="841" on="1"/>
        <pt x="627" y="650" on="1"/>
        <pt x="627" y="292" on="1"/>
      </contour>
      <contour>
        <pt x="84" y="0" on="1"/>
        <pt x="84" y="232" on="1"/>
        <pt x="600" y="232" on="1"/>
        <pt x="600" y="0" on="1"/>
      </contour>
    </TTGlyph>
    <TTGlyph name="logicalnot" xMin="52" yMin="439" xMax="781" yMax="979">
      <contour>
        <pt x="52" y="979" on="1"/>
        <pt x="781" y="979" on="1"/>
        <pt x="781" y="439" on="1"/>
        <pt x="470" y="439" on="1"/>
        <pt x="470" y="801" on="1"/>
        <pt x="52" y="801" on="1"/>
      </contour>
    </TTGlyph>
    <TTGlyph name="lozenge" xMin="45" yMin="0" xMax="898" yMax="1436">
      <contour>
        <pt x="320" y="713" on="1"/>
        <pt x="454" y="179" on="1"/>
        <pt x="486" y="179" on="1"/>
        <pt x="620" y="713" on="1"/>
        <pt x="486" y="1247" on="1"/>
        <pt x="454" y="1247" on="1"/>
      </contour>
      <contour>
        <pt x="45" y="713" on="1"/>
        <pt x="228" y="1436" on="1"/>
        <pt x="719" y="1436" on="1"/>
        <pt x="898" y="713" on="1"/>
        <pt x="719" y="0" on="1"/>
        <pt x="228" y="0" on="1"/>
      </contour>
    </TTGlyph>
    <TTGlyph name="lslash" xMin="16" yMin="0" xMax="532" yMax="1767">
      <contour>
        <pt x="455" y="0" on="1"/>
        <pt x="91" y="0" on="1"/>
        <pt x="91" y="1767" on="1"/>
        <pt x="455" y="1767" on="1"/>
      </contour>
      <contour>
        <pt x="16" y="509" on="1"/>
        <pt x="16" y="741" on="1"/>
        <pt x="532" y="973" on="1"/>
        <pt x="532" y="741" on="1"/>
      </contour>
    </TTGlyph>
    <TTGlyph name="m" xMin="84" yMin="0" xMax="1497" yMax="1519">
      <contour>
        <pt x="84" y="1501" on="1"/>
        <pt x="434" y="1501" on="1"/>
        <pt x="434" y="1326" on="1"/>
        <pt x="447" y="1376" on="0"/>
        <pt x="491" y="1449" on="0"/>
        <pt x="540" y="1489" on="0"/>
        <pt x="603" y="1513" on="0"/>
        <pt x="655" y="1519" on="0"/>
        <pt x="686" y="1519" on="1"/>
        <pt x="732" y="1519" on="0"/>
        <pt x="820" y="1493" on="0"/>
        <pt x="908" y="1420" on="0"/>
        <pt x="929" y="1365" on="1"/>
        <pt x="976" y="1450" on="0"/>
        <pt x="1095" y="1519" on="0"/>
        <pt x="1184" y="1519" on="1"/>
        <pt x="1251" y="1519" on="0"/>
        <pt x="1356" y="1485" on="0"/>
        <pt x="1423" y="1420" on="0"/>
        <pt x="1468" y="1343" on="0"/>
        <pt x="1489" y="1241" on="0"/>
        <pt x="1497" y="1151" on="0"/>
        <pt x="1497" y="1096" on="1"/>
        <pt x="1493" y="0" on="1"/>
        <pt x="1132" y="0" on="1"/>
        <pt x="1132" y="1102" on="1"/>
        <pt x="1132" y="1247" on="0"/>
        <pt x="1059" y="1247" on="1"/>
        <pt x="1031" y="1247" on="0"/>
        <pt x="990" y="1212" on="0"/>
        <pt x="970" y="1156" on="0"/>
        <pt x="962" y="1103" on="0"/>
        <pt x="962" y="1077" on="1"/>
        <pt x="962" y="0" on="1"/>
        <pt x="604" y="0" on="1"/>
        <pt x="604" y="1059" on="1"/>
        <pt x="604" y="1062" on="0"/>
        <pt x="604" y="1093" on="0"/>
        <pt x="604" y="1110" on="0"/>
        <pt x="603" y="1145" on="0"/>
        <pt x="599" y="1166" on="0"/>
        <pt x="593" y="1197" on="0"/>
        <pt x="582" y="1216" on="0"/>
        <pt x="568" y="1234" on="0"/>
        <pt x="547" y="1243" on="0"/>
        <pt x="534" y="1243" on="1"/>
        <pt x="505" y="1243" on="0"/>
        <pt x="464" y="1207" on="0"/>
        <pt x="443" y="1147" on="0"/>
        <pt x="434" y="1089" on="0"/>
        <pt x="434" y="1059" on="1"/>
        <pt x="434" y="0" on="1"/>
        <pt x="84" y="0" on="1"/>
      </contour>
    </TTGlyph>
    <TTGlyph name="macron" xMin="-40" yMin="1592" xMax="530" yMax="1840">
      <contour>
        <pt x="-40" y="1592" on="1"/>
        <pt x="-40" y="1840" on="1"/>
        <pt x="530" y="1840" on="1"/>
        <pt x="530" y="1592" on="1"/>
      </contour>
    </TTGlyph>
    <TTGlyph name="minus" xMin="69" yMin="509" xMax="585" yMax="741">
      <contour>
        <pt x="69" y="509" on="1"/>
        <pt x="69" y="741" on="1"/>
        <pt x="585" y="741" on="1"/>
        <pt x="585" y="509" on="1"/>
      </contour>
    </TTGlyph>
    <TTGlyph name="multiply" xMin="49" yMin="314" xMax="671" yMax="936">
      <contour>
        <pt x="213" y="314" on="1"/>
        <pt x="49" y="478" on="1"/>
        <pt x="196" y="625" on="1"/>
        <pt x="49" y="772" on="1"/>
        <pt x="213" y="936" on="1"/>
        <pt x="360" y="789" on="1"/>
        <pt x="507" y="936" on="1"/>
        <pt x="671" y="772" on="1"/>
        <pt x="524" y="625" on="1"/>
        <pt x="671" y="478" on="1"/>
        <pt x="507" y="314" on="1"/>
        <pt x="360" y="461" on="1"/>
      </contour>
    </TTGlyph>
    <TTGlyph name="n" xMin="84" yMin="0" xMax="965" yMax="1518">
      <contour>
        <pt x="84" y="0" on="1"/>
        <pt x="84" y="1501" on="1"/>
        <pt x="442" y="1501" on="1"/>
        <pt x="442" y="1329" on="1"/>
        <pt x="464" y="1426" on="0"/>
        <pt x="583" y="1518" on="0"/>
        <pt x="668" y="1518" on="1"/>
        <pt x="809" y="1518" on="0"/>
        <pt x="965" y="1341" on="0"/>
        <pt x="965" y="1157" on="1"/>
        <pt x="965" y="0" on="1"/>
        <pt x="612" y="0" on="1"/>
        <pt x="612" y="1120" on="1"/>
        <pt x="612" y="1167" on="0"/>
        <pt x="574" y="1239" on="0"/>
        <pt x="532" y="1239" on="1"/>
        <pt x="506" y="1239" on="0"/>
        <pt x="470" y="1210" on="0"/>
        <pt x="453" y="1173" on="0"/>
        <pt x="443" y="1113" on="0"/>
        <pt x="442" y="1081" on="0"/>
        <pt x="442" y="1055" on="1"/>
        <pt x="442" y="0" on="1"/>
      </contour>
    </TTGlyph>
    <TTGlyph name="nacute" xMin="84" yMin="0" xMax="965" yMax="2081">
      <component glyphName="acute" x="379" y="47" flags="0x1004"/>
      <component glyphName="n" x="0" y="0" flags="0x1204"/>
    </TTGlyph>
    <TTGlyph name="napostrophe" xMin="74" yMin="0" xMax="965" yMax="2084">
      <contour>
        <pt x="74" y="1786" on="1"/>
        <pt x="74" y="2084" on="1"/>
        <pt x="448" y="2084" on="1"/>
        <pt x="448" y="1795" on="1"/>
        <pt x="346" y="1550" on="1"/>
        <pt x="135" y="1550" on="1"/>
        <pt x="201" y="1786" on="1"/>
      </contour>
      <contour>
        <pt x="84" y="0" on="1"/>
        <pt x="84" y="1501" on="1"/>
        <pt x="442" y="1501" on="1"/>
        <pt x="442" y="1329" on="1"/>
        <pt x="464" y="1426" on="0"/>
        <pt x="583" y="1518" on="0"/>
        <pt x="668" y="1518" on="1"/>
        <pt x="809" y="1518" on="0"/>
        <pt x="965" y="1341" on="0"/>
        <pt x="965" y="1157" on="1"/>
        <pt x="965" y="0" on="1"/>
        <pt x="612" y="0" on="1"/>
        <pt x="612" y="1120" on="1"/>
        <pt x="612" y="1167" on="0"/>
        <pt x="574" y="1239" on="0"/>
        <pt x="532" y="1239" on="1"/>
        <pt x="506" y="1239" on="0"/>
        <pt x="470" y="1210" on="0"/>
        <pt x="453" y="1173" on="0"/>
        <pt x="443" y="1113" on="0"/>
        <pt x="442" y="1081" on="0"/>
        <pt x="442" y="1055" on="1"/>
        <pt x="442" y="0" on="1"/>
      </contour>
    </TTGlyph>
    <TTGlyph name="ncaron" xMin="79" yMin="0" xMax="969" yMax="2043">
      <component glyphName="caron" x="39" y="49" flags="0x1004"/>
      <component glyphName="n" x="-1" y="0" flags="0x1204"/>
    </TTGlyph>
    <TTGlyph name="ncommaaccent" xMin="84" yMin="-656" xMax="965" yMax="1518">
      <component glyphName="comma" x="280" y="-421" flags="0x1004"/>
      <component glyphName="n" x="0" y="0" flags="0x1204"/>
    </TTGlyph>
    <TTGlyph name="nine" xMin="58" yMin="-18" xMax="993" yMax="1606">
      <contour>
        <pt x="530" y="-18" on="1"/>
        <pt x="440" y="-18" on="0"/>
        <pt x="270" y="25" on="0"/>
        <pt x="138" y="115" on="0"/>
        <pt x="58" y="252" on="0"/>
        <pt x="58" y="346" on="1"/>
        <pt x="58" y="476" on="1"/>
        <pt x="430" y="476" on="1"/>
        <pt x="429" y="417" on="1"/>
        <pt x="429" y="397" on="0"/>
        <pt x="443" y="362" on="0"/>
        <pt x="467" y="335" on="0"/>
        <pt x="500" y="320" on="0"/>
        <pt x="518" y="320" on="1"/>
        <pt x="534" y="320" on="0"/>
        <pt x="567" y="333" on="0"/>
        <pt x="594" y="361" on="0"/>
        <pt x="610" y="402" on="0"/>
        <pt x="610" y="431" on="1"/>
        <pt x="610" y="656" on="1"/>
        <pt x="575" y="618" on="0"/>
        <pt x="469" y="578" on="0"/>
        <pt x="415" y="578" on="1"/>
        <pt x="334" y="578" on="0"/>
        <pt x="218" y="614" on="0"/>
        <pt x="139" y="678" on="0"/>
        <pt x="93" y="766" on="0"/>
        <pt x="68" y="872" on="0"/>
        <pt x="61" y="992" on="0"/>
        <pt x="61" y="1055" on="1"/>
        <pt x="61" y="1131" on="0"/>
        <pt x="78" y="1271" on="0"/>
        <pt x="120" y="1394" on="0"/>
        <pt x="189" y="1495" on="0"/>
        <pt x="294" y="1566" on="0"/>
        <pt x="438" y="1606" on="0"/>
        <pt x="533" y="1606" on="1"/>
        <pt x="672" y="1606" on="0"/>
        <pt x="851" y="1524" on="0"/>
        <pt x="954" y="1375" on="0"/>
        <pt x="993" y="1168" on="0"/>
        <pt x="993" y="1043" on="1"/>
        <pt x="993" y="707" on="1"/>
        <pt x="993" y="623" on="0"/>
        <pt x="985" y="451" on="0"/>
        <pt x="955" y="290" on="0"/>
        <pt x="896" y="148" on="0"/>
        <pt x="793" y="43" on="0"/>
        <pt x="639" y="-18" on="0"/>
      </contour>
      <contour>
        <pt x="441" y="1046" on="1"/>
        <pt x="442" y="1009" on="0"/>
        <pt x="447" y="945" on="0"/>
        <pt x="464" y="899" on="0"/>
        <pt x="499" y="875" on="0"/>
        <pt x="531" y="878" on="1"/>
        <pt x="621" y="878" on="0"/>
        <pt x="621" y="1029" on="1"/>
        <pt x="621" y="1131" on="1"/>
        <pt x="621" y="1207" on="0"/>
        <pt x="584" y="1292" on="0"/>
        <pt x="533" y="1292" on="1"/>
        <pt x="504" y="1292" on="0"/>
        <pt x="468" y="1265" on="0"/>
        <pt x="448" y="1222" on="0"/>
        <pt x="440" y="1167" on="0"/>
        <pt x="439" y="1113" on="0"/>
        <pt x="441" y="1063" on="0"/>
      </contour>
    </TTGlyph>
    <TTGlyph name="notequal" xMin="88" yMin="509" xMax="602" yMax="1116">
      <contour>
        <pt x="88" y="509" on="1"/>
        <pt x="88" y="741" on="1"/>
        <pt x="602" y="741" on="1"/>
        <pt x="602" y="509" on="1"/>
      </contour>
      <contour>
        <pt x="88" y="892" on="1"/>
        <pt x="88" y="1116" on="1"/>
        <pt x="602" y="1116" on="1"/>
        <pt x="602" y="892" on="1"/>
      </contour>
    </TTGlyph>
    <TTGlyph name="ntilde" xMin="84" yMin="0" xMax="965" yMax="2026">
      <component glyphName="tilde" x="28" y="38" flags="0x1004"/>
      <component glyphName="n" x="0" y="0" flags="0x1204"/>
    </TTGlyph>
    <TTGlyph name="numbersign" xMin="53" yMin="0" xMax="1097" yMax="1593">
      <contour>
        <pt x="115" y="886" on="1"/>
        <pt x="115" y="1118" on="1"/>
        <pt x="270" y="1118" on="1"/>
        <pt x="363" y="1593" on="1"/>
        <pt x="647" y="1593" on="1"/>
        <pt x="554" y="1118" on="1"/>
        <pt x="720" y="1118" on="1"/>
        <pt x="813" y="1593" on="1"/>
        <pt x="1097" y="1593" on="1"/>
        <pt x="1004" y="1118" on="1"/>
        <pt x="1097" y="1118" on="1"/>
        <pt x="1097" y="886" on="1"/>
        <pt x="959" y="886" on="1"/>
        <pt x="931" y="741" on="1"/>
        <pt x="1039" y="741" on="1"/>
        <pt x="1039" y="509" on="1"/>
        <pt x="885" y="509" on="1"/>
        <pt x="786" y="0" on="1"/>
        <pt x="503" y="0" on="1"/>
        <pt x="602" y="509" on="1"/>
        <pt x="435" y="509" on="1"/>
        <pt x="336" y="0" on="1"/>
        <pt x="53" y="0" on="1"/>
        <pt x="152" y="509" on="1"/>
        <pt x="57" y="509" on="1"/>
        <pt x="57" y="741" on="1"/>
        <pt x="197" y="741" on="1"/>
        <pt x="225" y="886" on="1"/>
      </contour>
      <contour>
        <pt x="509" y="886" on="1"/>
        <pt x="481" y="741" on="1"/>
        <pt x="647" y="741" on="1"/>
        <pt x="675" y="886" on="1"/>
      </contour>
    </TTGlyph>
    <TTGlyph name="o" xMin="61" yMin="-18" xMax="958" yMax="1518">
      <contour>
        <pt x="509" y="-18" on="1"/>
        <pt x="61" y="-18" on="0"/>
        <pt x="61" y="449" on="1"/>
        <pt x="61" y="1051" on="1"/>
        <pt x="61" y="1266" on="0"/>
        <pt x="301" y="1518" on="0"/>
        <pt x="509" y="1518" on="1"/>
        <pt x="718" y="1518" on="0"/>
        <pt x="958" y="1266" on="0"/>
        <pt x="958" y="1051" on="1"/>
        <pt x="958" y="449" on="1"/>
        <pt x="958" y="214" on="0"/>
        <pt x="729" y="-18" on="0"/>
      </contour>
      <contour>
        <pt x="425" y="1108" on="1"/>
        <pt x="425" y="375" on="1"/>
        <pt x="425" y="315" on="0"/>
        <pt x="472" y="260" on="0"/>
        <pt x="546" y="260" on="0"/>
        <pt x="593" y="315" on="0"/>
        <pt x="593" y="375" on="1"/>
        <pt x="593" y="1108" on="1"/>
        <pt x="593" y="1239" on="0"/>
        <pt x="425" y="1239" on="0"/>
      </contour>
    </TTGlyph>
    <TTGlyph name="oacute" xMin="61" yMin="-18" xMax="958" yMax="2081">
      <component glyphName="acute" x="321" y="47" flags="0x1004"/>
      <component glyphName="o" x="0" y="0" flags="0x1204"/>
    </TTGlyph>
    <TTGlyph name="obreve" xMin="61" yMin="-18" xMax="958" yMax="1993">
      <component glyphName="breve" x="6" y="48" flags="0x1004"/>
      <component glyphName="o" x="0" y="0" flags="0x1204"/>
    </TTGlyph>
    <TTGlyph name="ocircumflex" xMin="61" yMin="-18" xMax="958" yMax="2043">
      <component glyphName="circumflex" x="24" y="49" flags="0x1004"/>
      <component glyphName="o" x="0" y="0" flags="0x1204"/>
    </TTGlyph>
    <TTGlyph name="odieresis" xMin="61" yMin="-18" xMax="958" yMax="1938">
      <component glyphName="dieresis" x="21" y="49" flags="0x1004"/>
      <component glyphName="o" x="0" y="0" flags="0x1204"/>
    </TTGlyph>
    <TTGlyph name="oe" xMin="61" yMin="-18" xMax="1475" yMax="1518">
      <contour>
        <pt x="509" y="-18" on="1"/>
        <pt x="61" y="-18" on="0"/>
        <pt x="61" y="449" on="1"/>
        <pt x="61" y="1051" on="1"/>
        <pt x="61" y="1266" on="0"/>
        <pt x="301" y="1518" on="0"/>
        <pt x="509" y="1518" on="1"/>
        <pt x="662" y="1518" on="0"/>
        <pt x="774" y="1422" on="1"/>
        <pt x="876" y="1518" on="0"/>
        <pt x="1043" y="1518" on="1"/>
        <pt x="1475" y="1518" on="0"/>
        <pt x="1475" y="1092" on="1"/>
        <pt x="1475" y="983" on="1"/>
        <pt x="1475" y="780" on="0"/>
        <pt x="1471" y="704" on="1"/>
        <pt x="951" y="704" on="1"/>
        <pt x="951" y="494" on="1"/>
        <pt x="951" y="484" on="0"/>
        <pt x="950" y="439" on="0"/>
        <pt x="950" y="427" on="1"/>
        <pt x="950" y="391" on="0"/>
        <pt x="956" y="340" on="0"/>
        <pt x="972" y="287" on="0"/>
        <pt x="1009" y="260" on="0"/>
        <pt x="1037" y="260" on="1"/>
        <pt x="1066" y="260" on="0"/>
        <pt x="1102" y="301" on="0"/>
        <pt x="1117" y="378" on="0"/>
        <pt x="1121" y="438" on="0"/>
        <pt x="1121" y="483" on="1"/>
        <pt x="1121" y="571" on="0"/>
        <pt x="1119" y="579" on="1"/>
        <pt x="1475" y="579" on="1"/>
        <pt x="1475" y="494" on="1"/>
        <pt x="1475" y="369" on="0"/>
        <pt x="1437" y="193" on="0"/>
        <pt x="1340" y="52" on="0"/>
        <pt x="1160" y="-18" on="0"/>
        <pt x="1025" y="-18" on="1"/>
        <pt x="874" y="-18" on="0"/>
        <pt x="779" y="69" on="1"/>
        <pt x="674" y="-18" on="0"/>
      </contour>
      <contour>
        <pt x="425" y="1108" on="1"/>
        <pt x="425" y="375" on="1"/>
        <pt x="425" y="315" on="0"/>
        <pt x="472" y="260" on="0"/>
        <pt x="546" y="260" on="0"/>
        <pt x="593" y="315" on="0"/>
        <pt x="593" y="375" on="1"/>
        <pt x="593" y="1108" on="1"/>
        <pt x="593" y="1239" on="0"/>
        <pt x="425" y="1239" on="0"/>
      </contour>
      <contour>
        <pt x="1039" y="1249" on="1"/>
        <pt x="1011" y="1249" on="0"/>
        <pt x="973" y="1220" on="0"/>
        <pt x="955" y="1162" on="0"/>
        <pt x="949" y="1101" on="0"/>
        <pt x="949" y="1057" on="1"/>
        <pt x="949" y="1036" on="0"/>
        <pt x="951" y="952" on="0"/>
        <pt x="951" y="931" on="1"/>
        <pt x="1119" y="931" on="1"/>
        <pt x="1119" y="1087" on="1"/>
        <pt x="1119" y="1249" on="0"/>
      </contour>
    </TTGlyph>
    <TTGlyph name="ogonek" xMin="306" yMin="-631" xMax="852" yMax="0">
      <contour>
        <pt x="852" y="-591" on="1"/>
        <pt x="756" y="-631" on="0"/>
        <pt x="654" y="-631" on="1"/>
        <pt x="507" y="-631" on="0"/>
        <pt x="306" y="-469" on="0"/>
        <pt x="306" y="-330" on="1"/>
        <pt x="306" y="-149" on="0"/>
        <pt x="570" y="0" on="1"/>
        <pt x="781" y="0" on="1"/>
        <pt x="697" y="-102" on="0"/>
        <pt x="621" y="-230" on="0"/>
        <pt x="621" y="-279" on="1"/>
        <pt x="621" y="-337" on="0"/>
        <pt x="683" y="-391" on="0"/>
        <pt x="736" y="-391" on="1"/>
        <pt x="786" y="-391" on="0"/>
        <pt x="852" y="-368" on="1"/>
      </contour>
    </TTGlyph>
    <TTGlyph name="ograve" xMin="61" yMin="-18" xMax="958" yMax="2081">
      <component glyphName="grave" x="181" y="87" flags="0x1004"/>
      <component glyphName="o" x="0" y="0" flags="0x1204"/>
    </TTGlyph>
    <TTGlyph name="ohungarumlaut" xMin="61" yMin="-18" xMax="958" yMax="2177">
      <component glyphName="hungarumlaut" x="-65" y="404" flags="0x1004"/>
      <component glyphName="o" x="0" y="0" flags="0x1204"/>
    </TTGlyph>
    <TTGlyph name="omacron" xMin="61" yMin="-18" xMax="958" yMax="1888">
      <component glyphName="macron" x="264" y="48" flags="0x1004"/>
      <component glyphName="o" x="0" y="0" flags="0x1204"/>
    </TTGlyph>
    <TTGlyph name="one" xMin="22" yMin="0" xMax="613" yMax="1593">
      <contour>
        <pt x="330" y="1593" on="1"/>
        <pt x="613" y="1593" on="1"/>
        <pt x="613" y="0" on="1"/>
        <pt x="240" y="0" on="1"/>
        <pt x="240" y="1160" on="1"/>
        <pt x="228" y="1154" on="0"/>
        <pt x="187" y="1136" on="0"/>
        <pt x="72" y="1106" on="0"/>
        <pt x="22" y="1106" on="1"/>
        <pt x="22" y="1379" on="1"/>
        <pt x="50" y="1379" on="0"/>
        <pt x="148" y="1409" on="0"/>
        <pt x="254" y="1461" on="0"/>
        <pt x="330" y="1545" on="0"/>
      </contour>
    </TTGlyph>
    <TTGlyph name="onehalf" xMin="41" yMin="-1" xMax="1545" yMax="1767">
      <contour>
        <pt x="215" y="1607" on="1"/>
        <pt x="374" y="1607" on="1"/>
        <pt x="374" y="656" on="1"/>
        <pt x="164" y="656" on="1"/>
        <pt x="164" y="1364" on="1"/>
        <pt x="105" y="1334" on="0"/>
        <pt x="41" y="1334" on="1"/>
        <pt x="43" y="1398" on="0"/>
        <pt x="43" y="1444" on="1"/>
        <pt x="43" y="1481" on="0"/>
        <pt x="41" y="1487" on="1"/>
        <pt x="83" y="1487" on="0"/>
        <pt x="215" y="1558" on="0"/>
      </contour>
      <contour>
        <pt x="673" y="0" on="1"/>
        <pt x="390" y="0" on="1"/>
        <pt x="880" y="1767" on="1"/>
        <pt x="1164" y="1767" on="1"/>
      </contour>
      <contour>
        <pt x="1019" y="-1" on="1"/>
        <pt x="1019" y="46" on="1"/>
        <pt x="1019" y="191" on="0"/>
        <pt x="1123" y="344" on="1"/>
        <pt x="1161" y="400" on="0"/>
        <pt x="1282" y="546" on="1"/>
        <pt x="1333" y="606" on="0"/>
        <pt x="1333" y="709" on="1"/>
        <pt x="1333" y="792" on="0"/>
        <pt x="1280" y="792" on="1"/>
        <pt x="1229" y="792" on="0"/>
        <pt x="1229" y="705" on="1"/>
        <pt x="1229" y="586" on="1"/>
        <pt x="1019" y="586" on="1"/>
        <pt x="1017" y="646" on="1"/>
        <pt x="1017" y="818" on="0"/>
        <pt x="1132" y="974" on="0"/>
        <pt x="1282" y="974" on="1"/>
        <pt x="1404" y="974" on="0"/>
        <pt x="1545" y="840" on="0"/>
        <pt x="1545" y="712" on="1"/>
        <pt x="1545" y="641" on="0"/>
        <pt x="1505" y="515" on="0"/>
        <pt x="1437" y="414" on="0"/>
        <pt x="1367" y="328" on="0"/>
        <pt x="1288" y="226" on="0"/>
        <pt x="1265" y="182" on="1"/>
        <pt x="1538" y="182" on="1"/>
        <pt x="1538" y="-1" on="1"/>
      </contour>
    </TTGlyph>
    <TTGlyph name="onequarter" xMin="42" yMin="-1" xMax="1379" yMax="1767">
      <contour>
        <pt x="216" y="1607" on="1"/>
        <pt x="375" y="1607" on="1"/>
        <pt x="375" y="656" on="1"/>
        <pt x="165" y="656" on="1"/>
        <pt x="165" y="1364" on="1"/>
        <pt x="106" y="1334" on="0"/>
        <pt x="42" y="1334" on="1"/>
        <pt x="44" y="1398" on="0"/>
        <pt x="44" y="1444" on="1"/>
        <pt x="44" y="1481" on="0"/>
        <pt x="42" y="1487" on="1"/>
        <pt x="84" y="1487" on="0"/>
        <pt x="216" y="1558" on="0"/>
      </contour>
      <contour>
        <pt x="616" y="0" on="1"/>
        <pt x="333" y="0" on="1"/>
        <pt x="823" y="1767" on="1"/>
        <pt x="1107" y="1767" on="1"/>
      </contour>
      <contour>
        <pt x="1379" y="322" on="1"/>
        <pt x="1379" y="151" on="1"/>
        <pt x="1340" y="151" on="1"/>
        <pt x="1340" y="-1" on="1"/>
        <pt x="1133" y="-1" on="1"/>
        <pt x="1133" y="151" on="1"/>
        <pt x="830" y="151" on="1"/>
        <pt x="830" y="300" on="1"/>
        <pt x="1017" y="941" on="1"/>
        <pt x="1340" y="941" on="1"/>
        <pt x="1340" y="322" on="1"/>
      </contour>
      <contour>
        <pt x="1023" y="322" on="1"/>
        <pt x="1133" y="322" on="1"/>
        <pt x="1133" y="727" on="1"/>
      </contour>
    </TTGlyph>
    <TTGlyph name="ordfeminine" xMin="43" yMin="389" xMax="744" yMax="1607">
      <contour>
        <pt x="43" y="744" on="1"/>
        <pt x="43" y="902" on="0"/>
        <pt x="90" y="982" on="1"/>
        <pt x="131" y="1050" on="0"/>
        <pt x="231" y="1097" on="1"/>
        <pt x="282" y="1121" on="0"/>
        <pt x="458" y="1181" on="1"/>
        <pt x="458" y="1182" on="0"/>
        <pt x="458" y="1183" on="1"/>
        <pt x="458" y="1209" on="0"/>
        <pt x="457" y="1240" on="0"/>
        <pt x="456" y="1280" on="0"/>
        <pt x="455" y="1304" on="0"/>
        <pt x="451" y="1332" on="0"/>
        <pt x="448" y="1347" on="0"/>
        <pt x="440" y="1366" on="0"/>
        <pt x="432" y="1375" on="0"/>
        <pt x="421" y="1383" on="0"/>
        <pt x="406" y="1386" on="0"/>
        <pt x="397" y="1386" on="1"/>
        <pt x="338" y="1386" on="0"/>
        <pt x="338" y="1321" on="1"/>
        <pt x="338" y="1241" on="1"/>
        <pt x="62" y="1241" on="1"/>
        <pt x="61" y="1255" on="0"/>
        <pt x="61" y="1280" on="1"/>
        <pt x="61" y="1450" on="0"/>
        <pt x="222" y="1607" on="0"/>
        <pt x="411" y="1607" on="1"/>
        <pt x="414" y="1607" on="0"/>
        <pt x="418" y="1607" on="1"/>
        <pt x="475" y="1607" on="0"/>
        <pt x="529" y="1591" on="1"/>
        <pt x="586" y="1574" on="0"/>
        <pt x="685" y="1506" on="0"/>
        <pt x="744" y="1387" on="0"/>
        <pt x="744" y="1310" on="1"/>
        <pt x="744" y="403" on="1"/>
        <pt x="462" y="403" on="1"/>
        <pt x="462" y="527" on="1"/>
        <pt x="448" y="474" on="0"/>
        <pt x="345" y="389" on="0"/>
        <pt x="285" y="389" on="1"/>
        <pt x="242" y="389" on="0"/>
        <pt x="177" y="404" on="0"/>
        <pt x="112" y="450" on="0"/>
        <pt x="70" y="527" on="0"/>
        <pt x="43" y="656" on="0"/>
      </contour>
      <contour>
        <pt x="333" y="855" on="1"/>
        <pt x="333" y="716" on="1"/>
        <pt x="333" y="611" on="0"/>
        <pt x="397" y="611" on="1"/>
        <pt x="414" y="611" on="0"/>
        <pt x="440" y="630" on="0"/>
        <pt x="452" y="660" on="0"/>
        <pt x="457" y="689" on="0"/>
        <pt x="457" y="704" on="1"/>
        <pt x="457" y="1017" on="1"/>
        <pt x="384" y="988" on="0"/>
        <pt x="333" y="909" on="0"/>
      </contour>
    </TTGlyph>
    <TTGlyph name="ordmasculine" xMin="66" yMin="387" xMax="778" yMax="1605">
      <contour>
        <pt x="422" y="387" on="1"/>
        <pt x="66" y="387" on="0"/>
        <pt x="66" y="757" on="1"/>
        <pt x="66" y="1235" on="1"/>
        <pt x="66" y="1405" on="0"/>
        <pt x="162" y="1506" on="1"/>
        <pt x="256" y="1605" on="0"/>
        <pt x="419" y="1605" on="1"/>
        <pt x="420" y="1605" on="0"/>
        <pt x="422" y="1605" on="1"/>
        <pt x="588" y="1605" on="0"/>
        <pt x="778" y="1406" on="0"/>
        <pt x="778" y="1235" on="1"/>
        <pt x="778" y="757" on="1"/>
        <pt x="778" y="571" on="0"/>
        <pt x="597" y="387" on="0"/>
      </contour>
      <contour>
        <pt x="355" y="1280" on="1"/>
        <pt x="355" y="699" on="1"/>
        <pt x="355" y="651" on="0"/>
        <pt x="392" y="607" on="0"/>
        <pt x="451" y="608" on="0"/>
        <pt x="488" y="651" on="0"/>
        <pt x="488" y="699" on="1"/>
        <pt x="488" y="1280" on="1"/>
        <pt x="488" y="1384" on="0"/>
        <pt x="355" y="1384" on="0"/>
      </contour>
    </TTGlyph>
    <TTGlyph name="oslash" xMin="61" yMin="-173" xMax="958" yMax="1672">
      <contour>
        <pt x="509" y="-18" on="1"/>
        <pt x="419" y="-18" on="0"/>
        <pt x="342" y="2" on="1"/>
        <pt x="293" y="-173" on="1"/>
        <pt x="193" y="-145" on="1"/>
        <pt x="245" y="42" on="1"/>
        <pt x="61" y="151" on="0"/>
        <pt x="61" y="449" on="1"/>
        <pt x="61" y="1051" on="1"/>
        <pt x="61" y="1266" on="0"/>
        <pt x="301" y="1518" on="0"/>
        <pt x="509" y="1518" on="1"/>
        <pt x="583" y="1518" on="0"/>
        <pt x="653" y="1499" on="1"/>
        <pt x="702" y="1672" on="1"/>
        <pt x="803" y="1644" on="1"/>
        <pt x="751" y="1459" on="1"/>
        <pt x="851" y="1402" on="0"/>
        <pt x="958" y="1193" on="0"/>
        <pt x="958" y="1051" on="1"/>
        <pt x="958" y="449" on="1"/>
        <pt x="958" y="214" on="0"/>
        <pt x="729" y="-18" on="0"/>
      </contour>
      <contour>
        <pt x="509" y="260" on="1"/>
        <pt x="546" y="260" on="0"/>
        <pt x="593" y="315" on="0"/>
        <pt x="593" y="375" on="1"/>
        <pt x="593" y="895" on="1"/>
        <pt x="432" y="321" on="1"/>
        <pt x="450" y="260" on="0"/>
      </contour>
      <contour>
        <pt x="509" y="1239" on="1"/>
        <pt x="425" y="1239" on="0"/>
        <pt x="425" y="1108" on="1"/>
        <pt x="425" y="683" on="1"/>
        <pt x="571" y="1206" on="1"/>
        <pt x="550" y="1239" on="0"/>
      </contour>
    </TTGlyph>
    <TTGlyph name="oslashacute" xMin="61" yMin="-173" xMax="958" yMax="2235">
      <component glyphName="acute" x="468" y="201" flags="0x1004"/>
      <component glyphName="oslash" x="0" y="0" flags="0x1204"/>
    </TTGlyph>
    <TTGlyph name="otilde" xMin="61" yMin="-18" xMax="958" yMax="2026">
      <component glyphName="tilde" x="12" y="38" flags="0x1004"/>
      <component glyphName="o" x="0" y="0" flags="0x1204"/>
    </TTGlyph>
    <TTGlyph name="p" xMin="82" yMin="-186" xMax="973" yMax="1518">
      <contour>
        <pt x="446" y="-186" on="1"/>
        <pt x="82" y="-186" on="1"/>
        <pt x="82" y="1500" on="1"/>
        <pt x="446" y="1500" on="1"/>
        <pt x="446" y="1419" on="1"/>
        <pt x="527" y="1518" on="0"/>
        <pt x="661" y="1518" on="1"/>
        <pt x="733" y="1518" on="0"/>
        <pt x="844" y="1472" on="0"/>
        <pt x="913" y="1394" on="0"/>
        <pt x="956" y="1278" on="0"/>
        <pt x="973" y="1152" on="0"/>
        <pt x="973" y="1075" on="1"/>
        <pt x="973" y="526" on="1"/>
        <pt x="973" y="524" on="0"/>
        <pt x="973" y="521" on="1"/>
        <pt x="973" y="449" on="0"/>
        <pt x="971" y="374" on="0"/>
        <pt x="959" y="240" on="0"/>
        <pt x="936" y="166" on="0"/>
        <pt x="889" y="69" on="0"/>
        <pt x="822" y="19" on="0"/>
        <pt x="718" y="-18" on="0"/>
        <pt x="651" y="-18" on="1"/>
        <pt x="516" y="-18" on="0"/>
        <pt x="446" y="59" on="1"/>
      </contour>
      <contour>
        <pt x="446" y="1079" on="1"/>
        <pt x="446" y="422" on="1"/>
        <pt x="446" y="341" on="0"/>
        <pt x="485" y="262" on="0"/>
        <pt x="532" y="262" on="1"/>
        <pt x="574" y="262" on="0"/>
        <pt x="610" y="343" on="0"/>
        <pt x="610" y="438" on="1"/>
        <pt x="610" y="1075" on="1"/>
        <pt x="610" y="1098" on="0"/>
        <pt x="609" y="1118" on="0"/>
        <pt x="606" y="1165" on="0"/>
        <pt x="596" y="1190" on="0"/>
        <pt x="579" y="1221" on="0"/>
        <pt x="550" y="1235" on="0"/>
        <pt x="530" y="1235" on="1"/>
        <pt x="446" y="1235" on="0"/>
      </contour>
    </TTGlyph>
    <TTGlyph name="paragraph" xMin="44" yMin="0" xMax="970" yMax="1593">
      <contour>
        <pt x="391" y="0" on="1"/>
        <pt x="391" y="797" on="1"/>
        <pt x="290" y="808" on="0"/>
        <pt x="152" y="876" on="0"/>
        <pt x="76" y="987" on="0"/>
        <pt x="44" y="1120" on="0"/>
        <pt x="44" y="1210" on="1"/>
        <pt x="44" y="1296" on="0"/>
        <pt x="96" y="1427" on="0"/>
        <pt x="189" y="1514" on="0"/>
        <pt x="328" y="1569" on="0"/>
        <pt x="492" y="1593" on="0"/>
        <pt x="595" y="1593" on="1"/>
        <pt x="970" y="1593" on="1"/>
        <pt x="970" y="0" on="1"/>
        <pt x="731" y="0" on="1"/>
        <pt x="731" y="1287" on="1"/>
        <pt x="637" y="1287" on="1"/>
        <pt x="637" y="0" on="1"/>
      </contour>
    </TTGlyph>
    <TTGlyph name="parenleft" xMin="64" yMin="-17" xMax="575" yMax="1729">
      <contour>
        <pt x="575" y="268" on="1"/>
        <pt x="575" y="-17" on="1"/>
        <pt x="504" y="-14" on="0"/>
        <pt x="366" y="28" on="0"/>
        <pt x="230" y="119" on="0"/>
        <pt x="128" y="248" on="0"/>
        <pt x="64" y="444" on="0"/>
        <pt x="64" y="562" on="1"/>
        <pt x="64" y="1151" on="1"/>
        <pt x="64" y="1434" on="0"/>
        <pt x="326" y="1722" on="0"/>
        <pt x="575" y="1729" on="1"/>
        <pt x="575" y="1462" on="1"/>
        <pt x="552" y="1458" on="0"/>
        <pt x="513" y="1443" on="0"/>
        <pt x="486" y="1427" on="0"/>
        <pt x="465" y="1397" on="0"/>
        <pt x="451" y="1378" on="0"/>
        <pt x="442" y="1337" on="0"/>
        <pt x="438" y="1319" on="0"/>
        <pt x="436" y="1271" on="0"/>
        <pt x="436" y="1258" on="0"/>
        <pt x="436" y="1233" on="1"/>
        <pt x="436" y="450" on="1"/>
        <pt x="436" y="375" on="0"/>
        <pt x="515" y="284" on="0"/>
      </contour>
    </TTGlyph>
    <TTGlyph name="parenright" xMin="45" yMin="-17" xMax="556" yMax="1729">
      <contour>
        <pt x="45" y="268" on="1"/>
        <pt x="105" y="284" on="0"/>
        <pt x="184" y="375" on="0"/>
        <pt x="184" y="450" on="1"/>
        <pt x="184" y="1233" on="1"/>
        <pt x="184" y="1258" on="0"/>
        <pt x="184" y="1271" on="0"/>
        <pt x="182" y="1319" on="0"/>
        <pt x="178" y="1337" on="0"/>
        <pt x="169" y="1378" on="0"/>
        <pt x="155" y="1397" on="0"/>
        <pt x="134" y="1427" on="0"/>
        <pt x="107" y="1443" on="0"/>
        <pt x="68" y="1458" on="0"/>
        <pt x="45" y="1462" on="1"/>
        <pt x="45" y="1729" on="1"/>
        <pt x="294" y="1722" on="0"/>
        <pt x="556" y="1434" on="0"/>
        <pt x="556" y="1151" on="1"/>
        <pt x="556" y="562" on="1"/>
        <pt x="556" y="444" on="0"/>
        <pt x="492" y="248" on="0"/>
        <pt x="390" y="119" on="0"/>
        <pt x="254" y="28" on="0"/>
        <pt x="116" y="-14" on="0"/>
        <pt x="45" y="-17" on="1"/>
      </contour>
    </TTGlyph>
    <TTGlyph name="partialdiff" xMin="49" yMin="-21" xMax="1042" yMax="1681">
      <contour>
        <pt x="295" y="1376" on="1"/>
        <pt x="241" y="1607" on="1"/>
        <pt x="472" y="1681" on="0"/>
        <pt x="631" y="1681" on="1"/>
        <pt x="850" y="1681" on="0"/>
        <pt x="1042" y="1415" on="0"/>
        <pt x="1042" y="1159" on="1"/>
        <pt x="1042" y="1064" on="0"/>
        <pt x="992" y="567" on="1"/>
        <pt x="984" y="489" on="0"/>
        <pt x="965" y="370" on="0"/>
        <pt x="927" y="242" on="0"/>
        <pt x="876" y="150" on="0"/>
        <pt x="796" y="64" on="0"/>
        <pt x="692" y="11" on="0"/>
        <pt x="547" y="-21" on="0"/>
        <pt x="458" y="-21" on="1"/>
        <pt x="363" y="-21" on="0"/>
        <pt x="219" y="23" on="0"/>
        <pt x="128" y="98" on="0"/>
        <pt x="71" y="211" on="0"/>
        <pt x="49" y="336" on="0"/>
        <pt x="49" y="413" on="1"/>
        <pt x="49" y="482" on="0"/>
        <pt x="63" y="619" on="0"/>
        <pt x="94" y="777" on="0"/>
        <pt x="156" y="911" on="0"/>
        <pt x="242" y="1022" on="0"/>
        <pt x="375" y="1086" on="0"/>
        <pt x="457" y="1086" on="1"/>
        <pt x="551" y="1086" on="0"/>
        <pt x="666" y="1047" on="1"/>
        <pt x="677" y="1116" on="0"/>
        <pt x="677" y="1164" on="1"/>
        <pt x="677" y="1301" on="0"/>
        <pt x="586" y="1415" on="0"/>
        <pt x="519" y="1415" on="1"/>
        <pt x="455" y="1415" on="0"/>
        <pt x="330" y="1390" on="0"/>
      </contour>
      <contour>
        <pt x="603" y="419" on="1"/>
        <pt x="634" y="759" on="1"/>
        <pt x="585" y="794" on="0"/>
        <pt x="546" y="794" on="1"/>
        <pt x="467" y="794" on="0"/>
        <pt x="452" y="645" on="1"/>
        <pt x="435" y="475" on="1"/>
        <pt x="429" y="421" on="0"/>
        <pt x="429" y="391" on="1"/>
        <pt x="429" y="345" on="0"/>
        <pt x="460" y="293" on="0"/>
        <pt x="502" y="293" on="1"/>
        <pt x="542" y="293" on="0"/>
        <pt x="597" y="354" on="0"/>
      </contour>
    </TTGlyph>
    <TTGlyph name="percent" xMin="53" yMin="-18" xMax="2133" yMax="1767">
      <contour>
        <pt x="1741" y="-18" on="1"/>
        <pt x="1666" y="-18" on="0"/>
        <pt x="1531" y="30" on="0"/>
        <pt x="1417" y="126" on="0"/>
        <pt x="1350" y="293" on="0"/>
        <pt x="1350" y="402" on="1"/>
        <pt x="1350" y="765" on="1"/>
        <pt x="1350" y="974" on="0"/>
        <pt x="1550" y="1183" on="0"/>
        <pt x="1932" y="1183" on="0"/>
        <pt x="2133" y="974" on="0"/>
        <pt x="2133" y="765" on="1"/>
        <pt x="2133" y="402" on="1"/>
        <pt x="2133" y="293" on="0"/>
        <pt x="2066" y="126" on="0"/>
        <pt x="1952" y="30" on="0"/>
        <pt x="1817" y="-18" on="0"/>
      </contour>
      <contour>
        <pt x="1834" y="343" on="1"/>
        <pt x="1834" y="829" on="1"/>
        <pt x="1834" y="852" on="0"/>
        <pt x="1833" y="876" on="0"/>
        <pt x="1823" y="917" on="0"/>
        <pt x="1805" y="939" on="0"/>
        <pt x="1768" y="956" on="0"/>
        <pt x="1741" y="956" on="1"/>
        <pt x="1715" y="956" on="0"/>
        <pt x="1678" y="939" on="0"/>
        <pt x="1659" y="917" on="0"/>
        <pt x="1649" y="877" on="0"/>
        <pt x="1648" y="851" on="0"/>
        <pt x="1648" y="829" on="1"/>
        <pt x="1648" y="343" on="1"/>
        <pt x="1648" y="296" on="0"/>
        <pt x="1707" y="244" on="0"/>
        <pt x="1775" y="244" on="0"/>
        <pt x="1834" y="296" on="0"/>
      </contour>
      <contour>
        <pt x="994" y="0" on="1"/>
        <pt x="671" y="0" on="1"/>
        <pt x="1211" y="1767" on="1"/>
        <pt x="1535" y="1767" on="1"/>
      </contour>
      <contour>
        <pt x="444" y="528" on="1"/>
        <pt x="369" y="528" on="0"/>
        <pt x="234" y="576" on="0"/>
        <pt x="120" y="672" on="0"/>
        <pt x="53" y="839" on="0"/>
        <pt x="53" y="948" on="1"/>
        <pt x="53" y="1311" on="1"/>
        <pt x="53" y="1520" on="0"/>
        <pt x="253" y="1729" on="0"/>
        <pt x="635" y="1729" on="0"/>
        <pt x="836" y="1520" on="0"/>
        <pt x="836" y="1311" on="1"/>
        <pt x="836" y="948" on="1"/>
        <pt x="836" y="839" on="0"/>
        <pt x="769" y="672" on="0"/>
        <pt x="655" y="576" on="0"/>
        <pt x="520" y="528" on="0"/>
      </contour>
      <contour>
        <pt x="537" y="889" on="1"/>
        <pt x="537" y="1375" on="1"/>
        <pt x="537" y="1398" on="0"/>
        <pt x="536" y="1422" on="0"/>
        <pt x="526" y="1463" on="0"/>
        <pt x="508" y="1485" on="0"/>
        <pt x="471" y="1502" on="0"/>
        <pt x="444" y="1502" on="1"/>
        <pt x="418" y="1502" on="0"/>
        <pt x="381" y="1485" on="0"/>
        <pt x="362" y="1463" on="0"/>
        <pt x="352" y="1423" on="0"/>
        <pt x="351" y="1397" on="0"/>
        <pt x="351" y="1375" on="1"/>
        <pt x="351" y="889" on="1"/>
        <pt x="351" y="842" on="0"/>
        <pt x="410" y="790" on="0"/>
        <pt x="478" y="790" on="0"/>
        <pt x="537" y="842" on="0"/>
      </contour>
    </TTGlyph>
    <TTGlyph name="period" xMin="59" yMin="1" xMax="417" yMax="299">
      <contour>
        <pt x="59" y="1" on="1"/>
        <pt x="59" y="299" on="1"/>
        <pt x="417" y="299" on="1"/>
        <pt x="417" y="1" on="1"/>
      </contour>
    </TTGlyph>
    <TTGlyph name="periodcentered" xMin="67" yMin="723" xMax="425" yMax="1021">
      <contour>
        <pt x="67" y="723" on="1"/>
        <pt x="67" y="1021" on="1"/>
        <pt x="425" y="1021" on="1"/>
        <pt x="425" y="723" on="1"/>
      </contour>
    </TTGlyph>
    <TTGlyph name="periodcentered#1" xMin="67" yMin="723" xMax="425" yMax="1021">
      <component glyphName="periodcentered" x="0" y="0" flags="0x1204"/>
    </TTGlyph>
    <TTGlyph name="perthousand" xMin="53" yMin="-18" xMax="3000" yMax="1767">
      <contour>
        <pt x="2608" y="-18" on="1"/>
        <pt x="2533" y="-18" on="0"/>
        <pt x="2398" y="30" on="0"/>
        <pt x="2284" y="126" on="0"/>
        <pt x="2217" y="293" on="0"/>
        <pt x="2217" y="402" on="1"/>
        <pt x="2217" y="765" on="1"/>
        <pt x="2217" y="974" on="0"/>
        <pt x="2417" y="1183" on="0"/>
        <pt x="2799" y="1183" on="0"/>
        <pt x="3000" y="974" on="0"/>
        <pt x="3000" y="765" on="1"/>
        <pt x="3000" y="402" on="1"/>
        <pt x="3000" y="293" on="0"/>
        <pt x="2933" y="126" on="0"/>
        <pt x="2819" y="30" on="0"/>
        <pt x="2684" y="-18" on="0"/>
      </contour>
      <contour>
        <pt x="2701" y="343" on="1"/>
        <pt x="2701" y="829" on="1"/>
        <pt x="2701" y="852" on="0"/>
        <pt x="2700" y="876" on="0"/>
        <pt x="2690" y="917" on="0"/>
        <pt x="2672" y="939" on="0"/>
        <pt x="2635" y="956" on="0"/>
        <pt x="2608" y="956" on="1"/>
        <pt x="2582" y="956" on="0"/>
        <pt x="2545" y="939" on="0"/>
        <pt x="2526" y="917" on="0"/>
        <pt x="2516" y="877" on="0"/>
        <pt x="2515" y="851" on="0"/>
        <pt x="2515" y="829" on="1"/>
        <pt x="2515" y="343" on="1"/>
        <pt x="2515" y="296" on="0"/>
        <pt x="2574" y="244" on="0"/>
        <pt x="2642" y="244" on="0"/>
        <pt x="2701" y="296" on="0"/>
      </contour>
      <contour>
        <pt x="994" y="0" on="1"/>
        <pt x="671" y="0" on="1"/>
        <pt x="1211" y="1767" on="1"/>
        <pt x="1535" y="1767" on="1"/>
      </contour>
      <contour>
        <pt x="444" y="528" on="1"/>
        <pt x="369" y="528" on="0"/>
        <pt x="234" y="576" on="0"/>
        <pt x="120" y="672" on="0"/>
        <pt x="53" y="839" on="0"/>
        <pt x="53" y="948" on="1"/>
        <pt x="53" y="1311" on="1"/>
        <pt x="53" y="1520" on="0"/>
        <pt x="253" y="1729" on="0"/>
        <pt x="635" y="1729" on="0"/>
        <pt x="836" y="1520" on="0"/>
        <pt x="836" y="1311" on="1"/>
        <pt x="836" y="948" on="1"/>
        <pt x="836" y="839" on="0"/>
        <pt x="769" y="672" on="0"/>
        <pt x="655" y="576" on="0"/>
        <pt x="520" y="528" on="0"/>
      </contour>
      <contour>
        <pt x="537" y="889" on="1"/>
        <pt x="537" y="1375" on="1"/>
        <pt x="537" y="1398" on="0"/>
        <pt x="536" y="1422" on="0"/>
        <pt x="526" y="1463" on="0"/>
        <pt x="508" y="1485" on="0"/>
        <pt x="471" y="1502" on="0"/>
        <pt x="444" y="1502" on="1"/>
        <pt x="418" y="1502" on="0"/>
        <pt x="381" y="1485" on="0"/>
        <pt x="362" y="1463" on="0"/>
        <pt x="352" y="1423" on="0"/>
        <pt x="351" y="1397" on="0"/>
        <pt x="351" y="1375" on="1"/>
        <pt x="351" y="889" on="1"/>
        <pt x="351" y="842" on="0"/>
        <pt x="410" y="790" on="0"/>
        <pt x="478" y="790" on="0"/>
        <pt x="537" y="842" on="0"/>
      </contour>
      <contour>
        <pt x="1741" y="-18" on="1"/>
        <pt x="1666" y="-18" on="0"/>
        <pt x="1531" y="30" on="0"/>
        <pt x="1417" y="126" on="0"/>
        <pt x="1350" y="293" on="0"/>
        <pt x="1350" y="402" on="1"/>
        <pt x="1350" y="765" on="1"/>
        <pt x="1350" y="974" on="0"/>
        <pt x="1550" y="1183" on="0"/>
        <pt x="1932" y="1183" on="0"/>
        <pt x="2133" y="974" on="0"/>
        <pt x="2133" y="765" on="1"/>
        <pt x="2133" y="402" on="1"/>
        <pt x="2133" y="293" on="0"/>
        <pt x="2066" y="126" on="0"/>
        <pt x="1952" y="30" on="0"/>
        <pt x="1817" y="-18" on="0"/>
      </contour>
      <contour>
        <pt x="1834" y="343" on="1"/>
        <pt x="1834" y="829" on="1"/>
        <pt x="1834" y="852" on="0"/>
        <pt x="1833" y="876" on="0"/>
        <pt x="1823" y="917" on="0"/>
        <pt x="1805" y="939" on="0"/>
        <pt x="1768" y="956" on="0"/>
        <pt x="1741" y="956" on="1"/>
        <pt x="1715" y="956" on="0"/>
        <pt x="1678" y="939" on="0"/>
        <pt x="1659" y="917" on="0"/>
        <pt x="1649" y="877" on="0"/>
        <pt x="1648" y="851" on="0"/>
        <pt x="1648" y="829" on="1"/>
        <pt x="1648" y="343" on="1"/>
        <pt x="1648" y="296" on="0"/>
        <pt x="1707" y="244" on="0"/>
        <pt x="1775" y="244" on="0"/>
        <pt x="1834" y="296" on="0"/>
      </contour>
    </TTGlyph>
    <TTGlyph name="pi" xMin="94" yMin="0" xMax="452" yMax="1500">
      <contour>
        <pt x="94" y="0" on="1"/>
        <pt x="94" y="1500" on="1"/>
        <pt x="452" y="1500" on="1"/>
        <pt x="452" y="0" on="1"/>
      </contour>
    </TTGlyph>
    <TTGlyph name="plus" xMin="52" yMin="301" xMax="700" yMax="949">
      <contour>
        <pt x="52" y="509" on="1"/>
        <pt x="52" y="741" on="1"/>
        <pt x="260" y="741" on="1"/>
        <pt x="260" y="949" on="1"/>
        <pt x="492" y="949" on="1"/>
        <pt x="492" y="741" on="1"/>
        <pt x="700" y="741" on="1"/>
        <pt x="700" y="509" on="1"/>
        <pt x="492" y="509" on="1"/>
        <pt x="492" y="301" on="1"/>
        <pt x="260" y="301" on="1"/>
        <pt x="260" y="509" on="1"/>
      </contour>
    </TTGlyph>
    <TTGlyph name="plusminus" xMin="60" yMin="-1" xMax="708" yMax="1062">
      <contour>
        <pt x="60" y="622" on="1"/>
        <pt x="60" y="854" on="1"/>
        <pt x="268" y="854" on="1"/>
        <pt x="268" y="1062" on="1"/>
        <pt x="500" y="1062" on="1"/>
        <pt x="500" y="854" on="1"/>
        <pt x="708" y="854" on="1"/>
        <pt x="708" y="622" on="1"/>
        <pt x="500" y="622" on="1"/>
        <pt x="500" y="414" on="1"/>
        <pt x="268" y="414" on="1"/>
        <pt x="268" y="622" on="1"/>
      </contour>
      <contour>
        <pt x="101" y="-1" on="1"/>
        <pt x="101" y="231" on="1"/>
        <pt x="617" y="231" on="1"/>
        <pt x="617" y="-1" on="1"/>
      </contour>
    </TTGlyph>
    <TTGlyph name="product" xMin="97" yMin="0" xMax="963" yMax="1593">
      <contour>
        <pt x="963" y="1593" on="1"/>
        <pt x="963" y="0" on="1"/>
        <pt x="613" y="0" on="1"/>
        <pt x="613" y="1292" on="1"/>
        <pt x="447" y="1292" on="1"/>
        <pt x="447" y="0" on="1"/>
        <pt x="97" y="0" on="1"/>
        <pt x="97" y="1593" on="1"/>
      </contour>
    </TTGlyph>
    <TTGlyph name="q" xMin="65" yMin="-186" xMax="956" yMax="1518">
      <contour>
        <pt x="591" y="-186" on="1"/>
        <pt x="591" y="90" on="1"/>
        <pt x="552" y="37" on="0"/>
        <pt x="443" y="-18" on="0"/>
        <pt x="386" y="-18" on="1"/>
        <pt x="319" y="-18" on="0"/>
        <pt x="215" y="14" on="0"/>
        <pt x="148" y="59" on="0"/>
        <pt x="102" y="146" on="0"/>
        <pt x="79" y="214" on="0"/>
        <pt x="67" y="339" on="0"/>
        <pt x="65" y="412" on="0"/>
        <pt x="65" y="482" on="1"/>
        <pt x="65" y="485" on="0"/>
        <pt x="65" y="487" on="1"/>
        <pt x="65" y="1075" on="1"/>
        <pt x="65" y="1152" on="0"/>
        <pt x="82" y="1278" on="0"/>
        <pt x="125" y="1394" on="0"/>
        <pt x="194" y="1472" on="0"/>
        <pt x="304" y="1518" on="0"/>
        <pt x="376" y="1518" on="1"/>
        <pt x="511" y="1518" on="0"/>
        <pt x="591" y="1419" on="1"/>
        <pt x="591" y="1500" on="1"/>
        <pt x="956" y="1500" on="1"/>
        <pt x="956" y="-186" on="1"/>
      </contour>
      <contour>
        <pt x="591" y="1079" on="1"/>
        <pt x="591" y="1235" on="0"/>
        <pt x="507" y="1235" on="1"/>
        <pt x="487" y="1235" on="0"/>
        <pt x="458" y="1221" on="0"/>
        <pt x="441" y="1190" on="0"/>
        <pt x="431" y="1165" on="0"/>
        <pt x="428" y="1118" on="0"/>
        <pt x="427" y="1098" on="0"/>
        <pt x="427" y="1075" on="1"/>
        <pt x="427" y="438" on="1"/>
        <pt x="427" y="343" on="0"/>
        <pt x="463" y="262" on="0"/>
        <pt x="505" y="262" on="1"/>
        <pt x="553" y="262" on="0"/>
        <pt x="591" y="341" on="0"/>
        <pt x="591" y="422" on="1"/>
      </contour>
    </TTGlyph>
</ttFont>
